<ttFont>
    <TTGlyph name=".notdef" xMin="0" yMin="0" xMax="360" yMax="540">
      <contour>
        <pt x="360" y="27" on="1"/>
        <pt x="360" y="0" on="0"/>
        <pt x="333" y="0" on="1"/>
        <pt x="28" y="0" on="1"/>
        <pt x="0" y="0" on="0"/>
        <pt x="0" y="27" on="1"/>
        <pt x="0" y="513" on="1"/>
        <pt x="0" y="540" on="0"/>
        <pt x="28" y="540" on="1"/>
        <pt x="333" y="540" on="1"/>
        <pt x="360" y="540" on="0"/>
        <pt x="360" y="513" on="1"/>
      </contour>
      <contour>
        <pt x="180" y="242" on="1"/>
        <pt x="232" y="248" on="0"/>
        <pt x="300" y="316" on="0"/>
        <pt x="300" y="366" on="1"/>
        <pt x="300" y="388" on="0"/>
        <pt x="283" y="431" on="0"/>
        <pt x="251" y="461" on="0"/>
        <pt x="204" y="480" on="0"/>
        <pt x="171" y="480" on="1"/>
        <pt x="130" y="480" on="0"/>
        <pt x="70" y="460" on="0"/>
        <pt x="63" y="453" on="1"/>
        <pt x="52" y="444" on="0"/>
        <pt x="52" y="431" on="1"/>
        <pt x="52" y="420" on="0"/>
        <pt x="66" y="402" on="0"/>
        <pt x="76" y="402" on="1"/>
        <pt x="81" y="402" on="0"/>
        <pt x="88" y="404" on="1"/>
        <pt x="94" y="406" on="0"/>
        <pt x="131" y="420" on="0"/>
        <pt x="160" y="420" on="1"/>
        <pt x="206" y="420" on="0"/>
        <pt x="240" y="385" on="0"/>
        <pt x="240" y="361" on="1"/>
        <pt x="240" y="329" on="0"/>
        <pt x="194" y="297" on="0"/>
        <pt x="159" y="294" on="1"/>
        <pt x="139" y="292" on="0"/>
        <pt x="120" y="279" on="0"/>
        <pt x="120" y="265" on="1"/>
        <pt x="120" y="199" on="1"/>
        <pt x="120" y="184" on="0"/>
        <pt x="134" y="172" on="0"/>
        <pt x="150" y="172" on="1"/>
        <pt x="164" y="172" on="0"/>
        <pt x="180" y="184" on="0"/>
        <pt x="180" y="199" on="1"/>
      </contour>
      <contour>
        <pt x="109" y="90" on="1"/>
        <pt x="109" y="73" on="0"/>
        <pt x="132" y="49" on="0"/>
        <pt x="150" y="49" on="1"/>
        <pt x="168" y="49" on="0"/>
        <pt x="192" y="73" on="0"/>
        <pt x="192" y="90" on="1"/>
        <pt x="192" y="108" on="0"/>
        <pt x="168" y="132" on="0"/>
        <pt x="150" y="132" on="1"/>
        <pt x="132" y="132" on="0"/>
        <pt x="109" y="108" on="0"/>
      </contour>
    </TTGlyph>
    <TTGlyph name="A" xMin="-60" yMin="0" xMax="480" yMax="540">
      <contour>
        <pt x="120" y="55" on="1"/>
        <pt x="120" y="0" on="1"/>
        <pt x="-60" y="0" on="1"/>
        <pt x="-60" y="55" on="1"/>
        <pt x="-5" y="55" on="1"/>
        <pt x="179" y="540" on="1"/>
        <pt x="246" y="540" on="1"/>
        <pt x="426" y="55" on="1"/>
        <pt x="480" y="55" on="1"/>
        <pt x="480" y="0" on="1"/>
        <pt x="300" y="0" on="1"/>
        <pt x="300" y="55" on="1"/>
        <pt x="362" y="55" on="1"/>
        <pt x="314" y="185" on="1"/>
        <pt x="102" y="185" on="1"/>
        <pt x="55" y="55" on="1"/>
      </contour>
      <contour>
        <pt x="210" y="470" on="1"/>
        <pt x="206" y="470" on="1"/>
        <pt x="122" y="240" on="1"/>
        <pt x="294" y="240" on="1"/>
      </contour>
    </TTGlyph>
    <TTGlyph name="AE" xMin="-60" yMin="0" xMax="640" yMax="540">
      <contour>
        <pt x="120" y="55" on="1"/>
        <pt x="120" y="0" on="1"/>
        <pt x="-60" y="0" on="1"/>
        <pt x="-60" y="55" on="1"/>
        <pt x="-5" y="55" on="1"/>
        <pt x="240" y="540" on="1"/>
        <pt x="640" y="540" on="1"/>
        <pt x="640" y="380" on="1"/>
        <pt x="580" y="380" on="1"/>
        <pt x="580" y="485" on="1"/>
        <pt x="360" y="485" on="1"/>
        <pt x="360" y="310" on="1"/>
        <pt x="460" y="310" on="1"/>
        <pt x="460" y="370" on="1"/>
        <pt x="520" y="370" on="1"/>
        <pt x="520" y="190" on="1"/>
        <pt x="460" y="190" on="1"/>
        <pt x="460" y="255" on="1"/>
        <pt x="360" y="255" on="1"/>
        <pt x="360" y="55" on="1"/>
        <pt x="580" y="55" on="1"/>
        <pt x="580" y="160" on="1"/>
        <pt x="640" y="160" on="1"/>
        <pt x="640" y="0" on="1"/>
        <pt x="240" y="0" on="1"/>
        <pt x="240" y="55" on="1"/>
        <pt x="300" y="55" on="1"/>
        <pt x="300" y="185" on="1"/>
        <pt x="121" y="185" on="1"/>
        <pt x="56" y="55" on="1"/>
      </contour>
      <contour>
        <pt x="300" y="485" on="1"/>
        <pt x="271" y="485" on="1"/>
        <pt x="149" y="240" on="1"/>
        <pt x="300" y="240" on="1"/>
      </contour>
    </TTGlyph>
    <TTGlyph name="Aacute" xMin="-60" yMin="0" xMax="480" yMax="720">
      <component glyphName="A" x="0" y="0" flags="0x204"/>
      <component glyphName="uni0301.cap" x="420" y="0" flags="0x4"/>
    </TTGlyph>
    <TTGlyph name="Abreve" xMin="-60" yMin="0" xMax="480" yMax="720">
      <component glyphName="A" x="0" y="0" flags="0x204"/>
      <component glyphName="uni0306.cap" x="420" y="0" flags="0x4"/>
    </TTGlyph>
    <TTGlyph name="Acircumflex" xMin="-60" yMin="0" xMax="480" yMax="720">
      <component glyphName="A" x="0" y="0" flags="0x204"/>
      <component glyphName="uni0302.cap" x="420" y="0" flags="0x4"/>
    </TTGlyph>
    <TTGlyph name="Adieresis" xMin="-60" yMin="0" xMax="480" yMax="689">
      <component glyphName="A" x="0" y="0" flags="0x204"/>
      <component glyphName="uni0308.cap" x="420" y="0" flags="0x4"/>
    </TTGlyph>
    <TTGlyph name="Agrave" xMin="-60" yMin="0" xMax="480" yMax="720">
      <component glyphName="A" x="0" y="0" flags="0x204"/>
      <component glyphName="uni0300.cap" x="420" y="0" flags="0x4"/>
    </TTGlyph>
    <TTGlyph name="Amacron" xMin="-60" yMin="0" xMax="480" yMax="650">
      <component glyphName="A" x="0" y="0" flags="0x204"/>
      <component glyphName="uni0304.cap" x="420" y="0" flags="0x4"/>
    </TTGlyph>
    <TTGlyph name="Aogonek" xMin="-60" yMin="-180" xMax="480" yMax="540">
      <contour>
        <pt x="120" y="55" on="1"/>
        <pt x="120" y="0" on="1"/>
        <pt x="-60" y="0" on="1"/>
        <pt x="-60" y="55" on="1"/>
        <pt x="-5" y="55" on="1"/>
        <pt x="179" y="540" on="1"/>
        <pt x="246" y="540" on="1"/>
        <pt x="426" y="55" on="1"/>
        <pt x="480" y="55" on="1"/>
        <pt x="480" y="0" on="1"/>
        <pt x="382" y="0" on="1"/>
        <pt x="320" y="-41" on="0"/>
        <pt x="320" y="-86" on="1"/>
        <pt x="320" y="-106" on="0"/>
        <pt x="341" y="-125" on="0"/>
        <pt x="357" y="-125" on="1"/>
        <pt x="378" y="-125" on="0"/>
        <pt x="400" y="-114" on="1"/>
        <pt x="400" y="-165" on="1"/>
        <pt x="374" y="-180" on="0"/>
        <pt x="343" y="-180" on="1"/>
        <pt x="309" y="-180" on="0"/>
        <pt x="260" y="-140" on="0"/>
        <pt x="260" y="-100" on="1"/>
        <pt x="260" y="-25" on="0"/>
        <pt x="366" y="42" on="1"/>
        <pt x="314" y="185" on="1"/>
        <pt x="102" y="185" on="1"/>
        <pt x="55" y="55" on="1"/>
      </contour>
      <contour>
        <pt x="210" y="470" on="1"/>
        <pt x="206" y="470" on="1"/>
        <pt x="122" y="240" on="1"/>
        <pt x="294" y="240" on="1"/>
      </contour>
    </TTGlyph>
    <TTGlyph name="Aring" xMin="-60" yMin="0" xMax="480" yMax="720">
      <component glyphName="A" x="0" y="0" flags="0x204"/>
      <component glyphName="uni030A.cap" x="420" y="0" flags="0x4"/>
    </TTGlyph>
    <TTGlyph name="Atilde" xMin="-60" yMin="0" xMax="480" yMax="697">
      <component glyphName="A" x="0" y="0" flags="0x204"/>
      <component glyphName="uni0303.cap" x="420" y="0" flags="0x4"/>
    </TTGlyph>
    <TTGlyph name="B" xMin="0" yMin="0" xMax="400" yMax="540">
      <contour>
        <pt x="291" y="287" on="1"/>
        <pt x="349" y="272" on="0"/>
        <pt x="400" y="203" on="0"/>
        <pt x="400" y="153" on="1"/>
        <pt x="400" y="78" on="0"/>
        <pt x="294" y="0" on="0"/>
        <pt x="185" y="0" on="1"/>
        <pt x="0" y="0" on="1"/>
        <pt x="0" y="55" on="1"/>
        <pt x="60" y="55" on="1"/>
        <pt x="60" y="485" on="1"/>
        <pt x="0" y="485" on="1"/>
        <pt x="0" y="540" on="1"/>
        <pt x="183" y="540" on="1"/>
        <pt x="288" y="540" on="0"/>
        <pt x="380" y="478" on="0"/>
        <pt x="380" y="408" on="1"/>
        <pt x="380" y="365" on="0"/>
        <pt x="340" y="306" on="0"/>
        <pt x="291" y="290" on="1"/>
      </contour>
      <contour>
        <pt x="189" y="55" on="1"/>
        <pt x="262" y="55" on="0"/>
        <pt x="335" y="102" on="0"/>
        <pt x="335" y="153" on="1"/>
        <pt x="335" y="201" on="0"/>
        <pt x="272" y="255" on="0"/>
        <pt x="200" y="255" on="1"/>
        <pt x="120" y="255" on="1"/>
        <pt x="120" y="55" on="1"/>
      </contour>
      <contour>
        <pt x="188" y="310" on="1"/>
        <pt x="251" y="310" on="0"/>
        <pt x="315" y="353" on="0"/>
        <pt x="315" y="401" on="1"/>
        <pt x="315" y="448" on="0"/>
        <pt x="257" y="485" on="0"/>
        <pt x="179" y="485" on="1"/>
        <pt x="120" y="485" on="1"/>
        <pt x="120" y="310" on="1"/>
      </contour>
    </TTGlyph>
    <TTGlyph name="C" xMin="25" yMin="0" xMax="460" yMax="540">
      <contour>
        <pt x="460" y="51" on="1"/>
        <pt x="372" y="0" on="0"/>
        <pt x="282" y="0" on="1"/>
        <pt x="166" y="0" on="0"/>
        <pt x="25" y="146" on="0"/>
        <pt x="25" y="269" on="1"/>
        <pt x="25" y="398" on="0"/>
        <pt x="168" y="540" on="0"/>
        <pt x="285" y="540" on="1"/>
        <pt x="372" y="540" on="0"/>
        <pt x="460" y="498" on="1"/>
        <pt x="460" y="360" on="1"/>
        <pt x="400" y="360" on="1"/>
        <pt x="400" y="460" on="1"/>
        <pt x="347" y="485" on="0"/>
        <pt x="280" y="485" on="1"/>
        <pt x="187" y="485" on="0"/>
        <pt x="90" y="374" on="0"/>
        <pt x="90" y="274" on="1"/>
        <pt x="90" y="172" on="0"/>
        <pt x="194" y="55" on="0"/>
        <pt x="287" y="55" on="1"/>
        <pt x="367" y="55" on="0"/>
        <pt x="460" y="107" on="1"/>
      </contour>
    </TTGlyph>
    <TTGlyph name="Cacute" xMin="25" yMin="0" xMax="460" yMax="720">
      <component glyphName="C" x="0" y="0" flags="0x204"/>
      <component glyphName="uni0301.cap" x="480" y="0" flags="0x4"/>
    </TTGlyph>
    <TTGlyph name="Ccaron" xMin="25" yMin="0" xMax="460" yMax="720">
      <component glyphName="C" x="0" y="0" flags="0x204"/>
      <component glyphName="uni030C.cap" x="480" y="0" flags="0x4"/>
    </TTGlyph>
    <TTGlyph name="Ccedilla" xMin="25" yMin="-180" xMax="460" yMax="540">
      <component glyphName="C" x="0" y="0" flags="0x204"/>
      <component glyphName="uni0327" x="480" y="0" flags="0x4"/>
    </TTGlyph>
    <TTGlyph name="Ccircumflex" xMin="25" yMin="0" xMax="460" yMax="720">
      <component glyphName="C" x="0" y="0" flags="0x204"/>
      <component glyphName="uni0302.cap" x="480" y="0" flags="0x4"/>
    </TTGlyph>
    <TTGlyph name="Cdotaccent" xMin="25" yMin="0" xMax="460" yMax="694">
      <component glyphName="C" x="0" y="0" flags="0x204"/>
      <component glyphName="uni0307.cap" x="480" y="0" flags="0x4"/>
    </TTGlyph>
    <TTGlyph name="D" xMin="0" yMin="0" xMax="455" yMax="540">
      <contour>
        <pt x="0" y="55" on="1"/>
        <pt x="60" y="55" on="1"/>
        <pt x="60" y="485" on="1"/>
        <pt x="0" y="485" on="1"/>
        <pt x="0" y="540" on="1"/>
        <pt x="186" y="540" on="1"/>
        <pt x="318" y="540" on="0"/>
        <pt x="455" y="411" on="0"/>
        <pt x="455" y="285" on="1"/>
        <pt x="455" y="142" on="0"/>
        <pt x="305" y="0" on="0"/>
        <pt x="176" y="0" on="1"/>
        <pt x="0" y="0" on="1"/>
      </contour>
      <contour>
        <pt x="120" y="55" on="1"/>
        <pt x="182" y="55" on="1"/>
        <pt x="282" y="55" on="0"/>
        <pt x="390" y="166" on="0"/>
        <pt x="390" y="278" on="1"/>
        <pt x="390" y="382" on="0"/>
        <pt x="291" y="485" on="0"/>
        <pt x="183" y="485" on="1"/>
        <pt x="120" y="485" on="1"/>
      </contour>
    </TTGlyph>
    <TTGlyph name="Dcaron" xMin="0" yMin="0" xMax="455" yMax="720">
      <component glyphName="D" x="0" y="0" flags="0x204"/>
      <component glyphName="uni030C.cap" x="420" y="0" flags="0x4"/>
    </TTGlyph>
    <TTGlyph name="Dcroat" xMin="0" yMin="0" xMax="485" yMax="540">
      <contour>
        <pt x="60" y="245" on="1"/>
        <pt x="0" y="245" on="1"/>
        <pt x="0" y="300" on="1"/>
        <pt x="60" y="300" on="1"/>
        <pt x="60" y="485" on="1"/>
        <pt x="0" y="485" on="1"/>
        <pt x="0" y="540" on="1"/>
        <pt x="192" y="540" on="1"/>
        <pt x="336" y="540" on="0"/>
        <pt x="485" y="411" on="0"/>
        <pt x="485" y="285" on="1"/>
        <pt x="485" y="142" on="0"/>
        <pt x="322" y="0" on="0"/>
        <pt x="181" y="0" on="1"/>
        <pt x="0" y="0" on="1"/>
        <pt x="0" y="55" on="1"/>
        <pt x="60" y="55" on="1"/>
      </contour>
      <contour>
        <pt x="120" y="55" on="1"/>
        <pt x="189" y="55" on="1"/>
        <pt x="300" y="55" on="0"/>
        <pt x="420" y="166" on="0"/>
        <pt x="420" y="278" on="1"/>
        <pt x="420" y="382" on="0"/>
        <pt x="310" y="485" on="0"/>
        <pt x="190" y="485" on="1"/>
        <pt x="120" y="485" on="1"/>
        <pt x="120" y="300" on="1"/>
        <pt x="240" y="300" on="1"/>
        <pt x="240" y="245" on="1"/>
        <pt x="120" y="245" on="1"/>
      </contour>
    </TTGlyph>
    <TTGlyph name="E" xMin="0" yMin="0" xMax="400" yMax="540">
      <contour>
        <pt x="0" y="485" on="1"/>
        <pt x="0" y="540" on="1"/>
        <pt x="400" y="540" on="1"/>
        <pt x="400" y="380" on="1"/>
        <pt x="340" y="380" on="1"/>
        <pt x="340" y="485" on="1"/>
        <pt x="120" y="485" on="1"/>
        <pt x="120" y="310" on="1"/>
        <pt x="220" y="310" on="1"/>
        <pt x="220" y="370" on="1"/>
        <pt x="280" y="370" on="1"/>
        <pt x="280" y="190" on="1"/>
        <pt x="220" y="190" on="1"/>
        <pt x="220" y="255" on="1"/>
        <pt x="120" y="255" on="1"/>
        <pt x="120" y="55" on="1"/>
        <pt x="340" y="55" on="1"/>
        <pt x="340" y="160" on="1"/>
        <pt x="400" y="160" on="1"/>
        <pt x="400" y="0" on="1"/>
        <pt x="0" y="0" on="1"/>
        <pt x="0" y="55" on="1"/>
        <pt x="60" y="55" on="1"/>
        <pt x="60" y="485" on="1"/>
      </contour>
    </TTGlyph>
    <TTGlyph name="Eacute" xMin="0" yMin="0" xMax="400" yMax="720">
      <component glyphName="E" x="0" y="0" flags="0x204"/>
      <component glyphName="uni0301.cap" x="420" y="0" flags="0x4"/>
    </TTGlyph>
    <TTGlyph name="Ebreve" xMin="0" yMin="0" xMax="400" yMax="720">
      <component glyphName="E" x="0" y="0" flags="0x204"/>
      <component glyphName="uni0306.cap" x="420" y="0" flags="0x4"/>
    </TTGlyph>
    <TTGlyph name="Ecaron" xMin="0" yMin="0" xMax="400" yMax="720">
      <component glyphName="E" x="0" y="0" flags="0x204"/>
      <component glyphName="uni030C.cap" x="420" y="0" flags="0x4"/>
    </TTGlyph>
    <TTGlyph name="Ecircumflex" xMin="0" yMin="0" xMax="400" yMax="720">
      <component glyphName="E" x="0" y="0" flags="0x204"/>
      <component glyphName="uni0302.cap" x="420" y="0" flags="0x4"/>
    </TTGlyph>
    <TTGlyph name="Edieresis" xMin="0" yMin="0" xMax="400" yMax="689">
      <component glyphName="E" x="0" y="0" flags="0x204"/>
      <component glyphName="uni0308.cap" x="420" y="0" flags="0x4"/>
    </TTGlyph>
    <TTGlyph name="Edotaccent" xMin="0" yMin="0" xMax="400" yMax="694">
      <component glyphName="E" x="0" y="0" flags="0x204"/>
      <component glyphName="uni0307.cap" x="420" y="0" flags="0x4"/>
    </TTGlyph>
    <TTGlyph name="Egrave" xMin="0" yMin="0" xMax="400" yMax="720">
      <component glyphName="E" x="0" y="0" flags="0x204"/>
      <component glyphName="uni0300.cap" x="420" y="0" flags="0x4"/>
    </TTGlyph>
    <TTGlyph name="Emacron" xMin="0" yMin="0" xMax="400" yMax="650">
      <component glyphName="E" x="0" y="0" flags="0x204"/>
      <component glyphName="uni0304.cap" x="420" y="0" flags="0x4"/>
    </TTGlyph>
    <TTGlyph name="Eng" xMin="0" yMin="-120" xMax="540" yMax="540">
      <contour>
        <pt x="320" y="-64" on="1"/>
        <pt x="327" y="-65" on="0"/>
        <pt x="341" y="-65" on="0"/>
        <pt x="349" y="-65" on="1"/>
        <pt x="381" y="-65" on="0"/>
        <pt x="417" y="-36" on="0"/>
        <pt x="420" y="0" on="1"/>
        <pt x="124" y="431" on="1"/>
        <pt x="120" y="431" on="1"/>
        <pt x="120" y="55" on="1"/>
        <pt x="180" y="55" on="1"/>
        <pt x="180" y="0" on="1"/>
        <pt x="0" y="0" on="1"/>
        <pt x="0" y="55" on="1"/>
        <pt x="60" y="55" on="1"/>
        <pt x="60" y="485" on="1"/>
        <pt x="0" y="485" on="1"/>
        <pt x="0" y="540" on="1"/>
        <pt x="120" y="540" on="1"/>
        <pt x="416" y="110" on="1"/>
        <pt x="420" y="110" on="1"/>
        <pt x="420" y="485" on="1"/>
        <pt x="360" y="485" on="1"/>
        <pt x="360" y="540" on="1"/>
        <pt x="540" y="540" on="1"/>
        <pt x="540" y="485" on="1"/>
        <pt x="480" y="485" on="1"/>
        <pt x="480" y="19" on="1"/>
        <pt x="480" y="-44" on="0"/>
        <pt x="424" y="-120" on="0"/>
        <pt x="354" y="-120" on="1"/>
        <pt x="335" y="-120" on="0"/>
        <pt x="320" y="-117" on="1"/>
      </contour>
    </TTGlyph>
    <TTGlyph name="Eogonek" xMin="0" yMin="-180" xMax="400" yMax="540">
      <component glyphName="E" x="0" y="0" flags="0x204"/>
      <component glyphName="uni0328" x="460" y="0" flags="0x4"/>
    </TTGlyph>
    <TTGlyph name="Eth" xMin="0" yMin="0" xMax="485" yMax="540">
      <component glyphName="Dcroat" x="0" y="0" flags="0x204"/>
    </TTGlyph>
    <TTGlyph name="Euro" xMin="10" yMin="0" xMax="460" yMax="540">
      <contour>
        <pt x="21" y="240" on="1"/>
        <pt x="81" y="240" on="1"/>
        <pt x="80" y="253" on="0"/>
        <pt x="80" y="268" on="1"/>
        <pt x="80" y="284" on="0"/>
        <pt x="81" y="300" on="1"/>
        <pt x="12" y="300" on="1"/>
        <pt x="23" y="350" on="1"/>
        <pt x="88" y="350" on="1"/>
        <pt x="106" y="435" on="0"/>
        <pt x="226" y="540" on="0"/>
        <pt x="326" y="540" on="1"/>
        <pt x="395" y="540" on="0"/>
        <pt x="460" y="514" on="1"/>
        <pt x="460" y="420" on="1"/>
        <pt x="403" y="420" on="1"/>
        <pt x="403" y="474" on="1"/>
        <pt x="368" y="485" on="0"/>
        <pt x="325" y="485" on="1"/>
        <pt x="182" y="485" on="0"/>
        <pt x="152" y="350" on="1"/>
        <pt x="393" y="350" on="1"/>
        <pt x="382" y="300" on="1"/>
        <pt x="146" y="300" on="1"/>
        <pt x="145" y="287" on="0"/>
        <pt x="145" y="274" on="1"/>
        <pt x="145" y="256" on="0"/>
        <pt x="146" y="240" on="1"/>
        <pt x="370" y="240" on="1"/>
        <pt x="360" y="190" on="1"/>
        <pt x="153" y="190" on="1"/>
        <pt x="187" y="55" on="0"/>
        <pt x="327" y="55" on="1"/>
        <pt x="389" y="55" on="0"/>
        <pt x="460" y="81" on="1"/>
        <pt x="460" y="25" on="1"/>
        <pt x="393" y="0" on="0"/>
        <pt x="325" y="0" on="1"/>
        <pt x="224" y="0" on="0"/>
        <pt x="103" y="106" on="0"/>
        <pt x="87" y="190" on="1"/>
        <pt x="10" y="190" on="1"/>
      </contour>
    </TTGlyph>
    <TTGlyph name="F" xMin="0" yMin="0" xMax="400" yMax="540">
      <contour>
        <pt x="180" y="0" on="1"/>
        <pt x="0" y="0" on="1"/>
        <pt x="0" y="55" on="1"/>
        <pt x="60" y="55" on="1"/>
        <pt x="60" y="485" on="1"/>
        <pt x="0" y="485" on="1"/>
        <pt x="0" y="540" on="1"/>
        <pt x="400" y="540" on="1"/>
        <pt x="400" y="380" on="1"/>
        <pt x="340" y="380" on="1"/>
        <pt x="340" y="485" on="1"/>
        <pt x="120" y="485" on="1"/>
        <pt x="120" y="310" on="1"/>
        <pt x="220" y="310" on="1"/>
        <pt x="220" y="370" on="1"/>
        <pt x="280" y="370" on="1"/>
        <pt x="280" y="190" on="1"/>
        <pt x="220" y="190" on="1"/>
        <pt x="220" y="255" on="1"/>
        <pt x="120" y="255" on="1"/>
        <pt x="120" y="55" on="1"/>
        <pt x="180" y="55" on="1"/>
      </contour>
    </TTGlyph>
    <TTGlyph name="G" xMin="25" yMin="0" xMax="540" yMax="540">
      <contour>
        <pt x="480" y="43" on="1"/>
        <pt x="389" y="0" on="0"/>
        <pt x="295" y="0" on="1"/>
        <pt x="173" y="0" on="0"/>
        <pt x="25" y="146" on="0"/>
        <pt x="25" y="269" on="1"/>
        <pt x="25" y="398" on="0"/>
        <pt x="175" y="540" on="0"/>
        <pt x="297" y="540" on="1"/>
        <pt x="388" y="540" on="0"/>
        <pt x="480" y="498" on="1"/>
        <pt x="480" y="360" on="1"/>
        <pt x="420" y="360" on="1"/>
        <pt x="420" y="460" on="1"/>
        <pt x="364" y="485" on="0"/>
        <pt x="292" y="485" on="1"/>
        <pt x="193" y="485" on="0"/>
        <pt x="90" y="374" on="0"/>
        <pt x="90" y="274" on="1"/>
        <pt x="90" y="172" on="0"/>
        <pt x="201" y="55" on="0"/>
        <pt x="301" y="55" on="1"/>
        <pt x="357" y="55" on="0"/>
        <pt x="420" y="76" on="1"/>
        <pt x="420" y="210" on="1"/>
        <pt x="360" y="210" on="1"/>
        <pt x="360" y="265" on="1"/>
        <pt x="540" y="265" on="1"/>
        <pt x="540" y="210" on="1"/>
        <pt x="480" y="210" on="1"/>
      </contour>
    </TTGlyph>
    <TTGlyph name="Gbreve" xMin="25" yMin="0" xMax="540" yMax="720">
      <component glyphName="G" x="0" y="0" flags="0x204"/>
      <component glyphName="uni0306.cap" x="500" y="0" flags="0x4"/>
    </TTGlyph>
    <TTGlyph name="Gcircumflex" xMin="25" yMin="0" xMax="540" yMax="720">
      <component glyphName="G" x="0" y="0" flags="0x204"/>
      <component glyphName="uni0302.cap" x="500" y="0" flags="0x4"/>
    </TTGlyph>
    <TTGlyph name="Gcommaaccent" xMin="25" yMin="-180" xMax="540" yMax="540">
      <component glyphName="G" x="0" y="0" flags="0x204"/>
      <component glyphName="uni0326" x="500" y="0" flags="0x4"/>
    </TTGlyph>
    <TTGlyph name="Gdotaccent" xMin="25" yMin="0" xMax="540" yMax="694">
      <component glyphName="G" x="0" y="0" flags="0x204"/>
      <component glyphName="uni0307.cap" x="500" y="0" flags="0x4"/>
    </TTGlyph>
    <TTGlyph name="H" xMin="0" yMin="0" xMax="540" yMax="540">
      <contour>
        <pt x="360" y="55" on="1"/>
        <pt x="420" y="55" on="1"/>
        <pt x="420" y="255" on="1"/>
        <pt x="120" y="255" on="1"/>
        <pt x="120" y="55" on="1"/>
        <pt x="180" y="55" on="1"/>
        <pt x="180" y="0" on="1"/>
        <pt x="0" y="0" on="1"/>
        <pt x="0" y="55" on="1"/>
        <pt x="60" y="55" on="1"/>
        <pt x="60" y="485" on="1"/>
        <pt x="0" y="485" on="1"/>
        <pt x="0" y="540" on="1"/>
        <pt x="180" y="540" on="1"/>
        <pt x="180" y="485" on="1"/>
        <pt x="120" y="485" on="1"/>
        <pt x="120" y="310" on="1"/>
        <pt x="420" y="310" on="1"/>
        <pt x="420" y="485" on="1"/>
        <pt x="360" y="485" on="1"/>
        <pt x="360" y="540" on="1"/>
        <pt x="540" y="540" on="1"/>
        <pt x="540" y="485" on="1"/>
        <pt x="480" y="485" on="1"/>
        <pt x="480" y="55" on="1"/>
        <pt x="540" y="55" on="1"/>
        <pt x="540" y="0" on="1"/>
        <pt x="360" y="0" on="1"/>
      </contour>
    </TTGlyph>
    <TTGlyph name="Hbar" xMin="0" yMin="0" xMax="540" yMax="540">
      <contour>
        <pt x="540" y="365" on="1"/>
        <pt x="480" y="365" on="1"/>
        <pt x="480" y="55" on="1"/>
        <pt x="540" y="55" on="1"/>
        <pt x="540" y="0" on="1"/>
        <pt x="360" y="0" on="1"/>
        <pt x="360" y="55" on="1"/>
        <pt x="420" y="55" on="1"/>
        <pt x="420" y="240" on="1"/>
        <pt x="120" y="240" on="1"/>
        <pt x="120" y="55" on="1"/>
        <pt x="180" y="55" on="1"/>
        <pt x="180" y="0" on="1"/>
        <pt x="0" y="0" on="1"/>
        <pt x="0" y="55" on="1"/>
        <pt x="60" y="55" on="1"/>
        <pt x="60" y="365" on="1"/>
        <pt x="0" y="365" on="1"/>
        <pt x="0" y="420" on="1"/>
        <pt x="60" y="420" on="1"/>
        <pt x="60" y="485" on="1"/>
        <pt x="0" y="485" on="1"/>
        <pt x="0" y="540" on="1"/>
        <pt x="180" y="540" on="1"/>
        <pt x="180" y="485" on="1"/>
        <pt x="120" y="485" on="1"/>
        <pt x="120" y="420" on="1"/>
        <pt x="420" y="420" on="1"/>
        <pt x="420" y="485" on="1"/>
        <pt x="360" y="485" on="1"/>
        <pt x="360" y="540" on="1"/>
        <pt x="540" y="540" on="1"/>
        <pt x="540" y="485" on="1"/>
        <pt x="480" y="485" on="1"/>
        <pt x="480" y="420" on="1"/>
        <pt x="540" y="420" on="1"/>
      </contour>
      <contour>
        <pt x="420" y="295" on="1"/>
        <pt x="420" y="365" on="1"/>
        <pt x="120" y="365" on="1"/>
        <pt x="120" y="295" on="1"/>
      </contour>
    </TTGlyph>
    <TTGlyph name="Hcircumflex" xMin="0" yMin="0" xMax="540" yMax="720">
      <component glyphName="H" x="0" y="0" flags="0x204"/>
      <component glyphName="uni0302.cap" x="480" y="0" flags="0x4"/>
    </TTGlyph>
    <TTGlyph name="I" xMin="0" yMin="0" xMax="180" yMax="540">
      <contour>
        <pt x="0" y="55" on="1"/>
        <pt x="60" y="55" on="1"/>
        <pt x="60" y="485" on="1"/>
        <pt x="0" y="485" on="1"/>
        <pt x="0" y="540" on="1"/>
        <pt x="180" y="540" on="1"/>
        <pt x="180" y="485" on="1"/>
        <pt x="120" y="485" on="1"/>
        <pt x="120" y="55" on="1"/>
        <pt x="180" y="55" on="1"/>
        <pt x="180" y="0" on="1"/>
        <pt x="0" y="0" on="1"/>
      </contour>
    </TTGlyph>
    <TTGlyph name="IJ" xMin="0" yMin="-120" xMax="420" yMax="540">
      <component glyphName="I" x="0" y="0" flags="0x4"/>
      <component glyphName="J" x="240" y="0" flags="0x4"/>
    </TTGlyph>
    <TTGlyph name="Iacute" xMin="0" yMin="0" xMax="200" yMax="720">
      <component glyphName="I" x="0" y="0" flags="0x204"/>
      <component glyphName="uni0301.cap" x="300" y="0" flags="0x4"/>
    </TTGlyph>
    <TTGlyph name="Ibreve" xMin="-28" yMin="0" xMax="208" yMax="720">
      <component glyphName="I" x="0" y="0" flags="0x204"/>
      <component glyphName="uni0306.cap" x="300" y="0" flags="0x4"/>
    </TTGlyph>
    <TTGlyph name="Icircumflex" xMin="-40" yMin="0" xMax="220" yMax="720">
      <component glyphName="I" x="0" y="0" flags="0x204"/>
      <component glyphName="uni0302.cap" x="300" y="0" flags="0x4"/>
    </TTGlyph>
    <TTGlyph name="Idieresis" xMin="-30" yMin="0" xMax="210" yMax="689">
      <component glyphName="I" x="0" y="0" flags="0x204"/>
      <component glyphName="uni0308.cap" x="300" y="0" flags="0x4"/>
    </TTGlyph>
    <TTGlyph name="Idotaccent" xMin="0" yMin="0" xMax="180" yMax="694">
      <component glyphName="I" x="0" y="0" flags="0x204"/>
      <component glyphName="uni0307.cap" x="301" y="0" flags="0x4"/>
    </TTGlyph>
    <TTGlyph name="Igrave" xMin="-20" yMin="0" xMax="180" yMax="720">
      <component glyphName="I" x="0" y="0" flags="0x204"/>
      <component glyphName="uni0300.cap" x="300" y="0" flags="0x4"/>
    </TTGlyph>
    <TTGlyph name="Imacron" xMin="-20" yMin="0" xMax="200" yMax="650">
      <component glyphName="I" x="0" y="0" flags="0x204"/>
      <component glyphName="uni0304.cap" x="300" y="0" flags="0x4"/>
    </TTGlyph>
    <TTGlyph name="Iogonek" xMin="0" yMin="-180" xMax="180" yMax="540">
      <component glyphName="I" x="0" y="0" flags="0x204"/>
      <component glyphName="uni0328" x="240" y="0" flags="0x4"/>
    </TTGlyph>
    <TTGlyph name="Itilde" xMin="-30" yMin="0" xMax="209" yMax="697">
      <component glyphName="I" x="0" y="0" flags="0x204"/>
      <component glyphName="uni0303.cap" x="300" y="0" flags="0x4"/>
    </TTGlyph>
    <TTGlyph name="J" xMin="-40" yMin="-120" xMax="180" yMax="540">
      <contour>
        <pt x="-40" y="-64" on="1"/>
        <pt x="-27" y="-65" on="0"/>
        <pt x="-11" y="-65" on="1"/>
        <pt x="28" y="-65" on="0"/>
        <pt x="60" y="-22" on="0"/>
        <pt x="60" y="27" on="1"/>
        <pt x="60" y="485" on="1"/>
        <pt x="0" y="485" on="1"/>
        <pt x="0" y="540" on="1"/>
        <pt x="180" y="540" on="1"/>
        <pt x="180" y="485" on="1"/>
        <pt x="120" y="485" on="1"/>
        <pt x="120" y="32" on="1"/>
        <pt x="120" y="-44" on="0"/>
        <pt x="65" y="-120" on="0"/>
        <pt x="-6" y="-120" on="1"/>
        <pt x="-25" y="-120" on="0"/>
        <pt x="-40" y="-117" on="1"/>
      </contour>
    </TTGlyph>
    <TTGlyph name="Jcircumflex" xMin="-40" yMin="-120" xMax="220" yMax="720">
      <component glyphName="J" x="0" y="0" flags="0x204"/>
      <component glyphName="uni0302.cap" x="300" y="0" flags="0x4"/>
    </TTGlyph>
    <TTGlyph name="K" xMin="0" yMin="0" xMax="480" yMax="540">
      <contour>
        <pt x="480" y="55" on="1"/>
        <pt x="480" y="0" on="1"/>
        <pt x="300" y="0" on="1"/>
        <pt x="300" y="55" on="1"/>
        <pt x="343" y="55" on="1"/>
        <pt x="130" y="271" on="1"/>
        <pt x="352" y="485" on="1"/>
        <pt x="300" y="485" on="1"/>
        <pt x="300" y="540" on="1"/>
        <pt x="480" y="540" on="1"/>
        <pt x="480" y="485" on="1"/>
        <pt x="426" y="485" on="1"/>
        <pt x="209" y="276" on="1"/>
        <pt x="427" y="55" on="1"/>
      </contour>
      <contour>
        <pt x="0" y="55" on="1"/>
        <pt x="60" y="55" on="1"/>
        <pt x="60" y="485" on="1"/>
        <pt x="0" y="485" on="1"/>
        <pt x="0" y="540" on="1"/>
        <pt x="180" y="540" on="1"/>
        <pt x="180" y="485" on="1"/>
        <pt x="120" y="485" on="1"/>
        <pt x="120" y="55" on="1"/>
        <pt x="180" y="55" on="1"/>
        <pt x="180" y="0" on="1"/>
        <pt x="0" y="0" on="1"/>
      </contour>
    </TTGlyph>
    <TTGlyph name="Kcommaaccent" xMin="0" yMin="-180" xMax="480" yMax="540">
      <component glyphName="K" x="0" y="0" flags="0x204"/>
      <component glyphName="uni0326" x="450" y="0" flags="0x4"/>
    </TTGlyph>
    <TTGlyph name="L" xMin="0" yMin="0" xMax="420" yMax="540">
      <contour>
        <pt x="0" y="55" on="1"/>
        <pt x="60" y="55" on="1"/>
        <pt x="60" y="485" on="1"/>
        <pt x="0" y="485" on="1"/>
        <pt x="0" y="540" on="1"/>
        <pt x="180" y="540" on="1"/>
        <pt x="180" y="485" on="1"/>
        <pt x="120" y="485" on="1"/>
        <pt x="120" y="55" on="1"/>
        <pt x="360" y="55" on="1"/>
        <pt x="360" y="160" on="1"/>
        <pt x="420" y="160" on="1"/>
        <pt x="420" y="0" on="1"/>
        <pt x="0" y="0" on="1"/>
      </contour>
    </TTGlyph>
    <TTGlyph name="Lacute" xMin="0" yMin="0" xMax="420" yMax="720">
      <component glyphName="L" x="0" y="0" flags="0x204"/>
      <component glyphName="uni0301.cap" x="300" y="0" flags="0x4"/>
    </TTGlyph>
    <TTGlyph name="Lcaron" xMin="0" yMin="0" xMax="420" yMax="540">
      <component glyphName="L" x="0" y="0" flags="0x204"/>
      <component glyphName="uni0315.cap" x="480" y="0" flags="0x4"/>
    </TTGlyph>
    <TTGlyph name="Lcommaaccent" xMin="0" yMin="-180" xMax="420" yMax="540">
      <component glyphName="L" x="0" y="0" flags="0x204"/>
      <component glyphName="uni0326" x="420" y="0" flags="0x4"/>
    </TTGlyph>
    <TTGlyph name="Ldot" xMin="0" yMin="0" xMax="420" yMax="540">
      <contour>
        <pt x="281" y="308" on="1"/>
        <pt x="281" y="332" on="0"/>
        <pt x="308" y="360" on="0"/>
        <pt x="330" y="360" on="1"/>
        <pt x="353" y="360" on="0"/>
        <pt x="380" y="332" on="0"/>
        <pt x="380" y="311" on="1"/>
        <pt x="380" y="288" on="0"/>
        <pt x="352" y="260" on="0"/>
        <pt x="329" y="260" on="1"/>
        <pt x="307" y="260" on="0"/>
        <pt x="281" y="288" on="0"/>
      </contour>
      <contour>
        <pt x="0" y="55" on="1"/>
        <pt x="60" y="55" on="1"/>
        <pt x="60" y="485" on="1"/>
        <pt x="0" y="485" on="1"/>
        <pt x="0" y="540" on="1"/>
        <pt x="180" y="540" on="1"/>
        <pt x="180" y="485" on="1"/>
        <pt x="120" y="485" on="1"/>
        <pt x="120" y="55" on="1"/>
        <pt x="360" y="55" on="1"/>
        <pt x="360" y="160" on="1"/>
        <pt x="420" y="160" on="1"/>
        <pt x="420" y="0" on="1"/>
        <pt x="0" y="0" on="1"/>
      </contour>
    </TTGlyph>
    <TTGlyph name="Lslash" xMin="0" yMin="0" xMax="420" yMax="540">
      <contour>
        <pt x="0" y="55" on="1"/>
        <pt x="60" y="55" on="1"/>
        <pt x="60" y="256" on="1"/>
        <pt x="0" y="240" on="1"/>
        <pt x="0" y="292" on="1"/>
        <pt x="60" y="308" on="1"/>
        <pt x="60" y="485" on="1"/>
        <pt x="0" y="485" on="1"/>
        <pt x="0" y="540" on="1"/>
        <pt x="180" y="540" on="1"/>
        <pt x="180" y="485" on="1"/>
        <pt x="120" y="485" on="1"/>
        <pt x="120" y="322" on="1"/>
        <pt x="260" y="360" on="1"/>
        <pt x="260" y="308" on="1"/>
        <pt x="120" y="270" on="1"/>
        <pt x="120" y="55" on="1"/>
        <pt x="360" y="55" on="1"/>
        <pt x="360" y="160" on="1"/>
        <pt x="420" y="160" on="1"/>
        <pt x="420" y="0" on="1"/>
        <pt x="0" y="0" on="1"/>
      </contour>
    </TTGlyph>
    <TTGlyph name="M" xMin="0" yMin="0" xMax="660" yMax="540">
      <contour>
        <pt x="335" y="101" on="1"/>
        <pt x="517" y="540" on="1"/>
        <pt x="660" y="540" on="1"/>
        <pt x="660" y="485" on="1"/>
        <pt x="600" y="485" on="1"/>
        <pt x="600" y="55" on="1"/>
        <pt x="660" y="55" on="1"/>
        <pt x="660" y="0" on="1"/>
        <pt x="480" y="0" on="1"/>
        <pt x="480" y="55" on="1"/>
        <pt x="540" y="55" on="1"/>
        <pt x="540" y="447" on="1"/>
        <pt x="536" y="447" on="1"/>
        <pt x="351" y="0" on="1"/>
        <pt x="308" y="0" on="1"/>
        <pt x="124" y="447" on="1"/>
        <pt x="120" y="447" on="1"/>
        <pt x="120" y="55" on="1"/>
        <pt x="180" y="55" on="1"/>
        <pt x="180" y="0" on="1"/>
        <pt x="0" y="0" on="1"/>
        <pt x="0" y="55" on="1"/>
        <pt x="60" y="55" on="1"/>
        <pt x="60" y="485" on="1"/>
        <pt x="0" y="485" on="1"/>
        <pt x="0" y="540" on="1"/>
        <pt x="151" y="540" on="1"/>
        <pt x="331" y="101" on="1"/>
      </contour>
    </TTGlyph>
    <TTGlyph name="N" xMin="0" yMin="0" xMax="540" yMax="540">
      <contour>
        <pt x="420" y="485" on="1"/>
        <pt x="360" y="485" on="1"/>
        <pt x="360" y="540" on="1"/>
        <pt x="540" y="540" on="1"/>
        <pt x="540" y="485" on="1"/>
        <pt x="480" y="485" on="1"/>
        <pt x="480" y="0" on="1"/>
        <pt x="420" y="0" on="1"/>
        <pt x="124" y="431" on="1"/>
        <pt x="120" y="431" on="1"/>
        <pt x="120" y="55" on="1"/>
        <pt x="180" y="55" on="1"/>
        <pt x="180" y="0" on="1"/>
        <pt x="0" y="0" on="1"/>
        <pt x="0" y="55" on="1"/>
        <pt x="60" y="55" on="1"/>
        <pt x="60" y="485" on="1"/>
        <pt x="0" y="485" on="1"/>
        <pt x="0" y="540" on="1"/>
        <pt x="120" y="540" on="1"/>
        <pt x="416" y="110" on="1"/>
        <pt x="420" y="110" on="1"/>
      </contour>
    </TTGlyph>
    <TTGlyph name="Nacute" xMin="0" yMin="0" xMax="540" yMax="720">
      <component glyphName="N" x="0" y="0" flags="0x204"/>
      <component glyphName="uni0301.cap" x="480" y="0" flags="0x4"/>
    </TTGlyph>
    <TTGlyph name="Ncaron" xMin="0" yMin="0" xMax="540" yMax="720">
      <component glyphName="N" x="0" y="0" flags="0x204"/>
      <component glyphName="uni030C.cap" x="480" y="0" flags="0x4"/>
    </TTGlyph>
    <TTGlyph name="Ncommaaccent" xMin="0" yMin="-180" xMax="540" yMax="540">
      <component glyphName="N" x="0" y="0" flags="0x204"/>
      <component glyphName="uni0326" x="480" y="0" flags="0x4"/>
    </TTGlyph>
    <TTGlyph name="Ntilde" xMin="0" yMin="0" xMax="540" yMax="697">
      <component glyphName="N" x="0" y="0" flags="0x204"/>
      <component glyphName="uni0303.cap" x="480" y="0" flags="0x4"/>
    </TTGlyph>
    <TTGlyph name="O" xMin="25" yMin="0" xMax="515" yMax="540">
      <contour>
        <pt x="25" y="271" on="1"/>
        <pt x="25" y="392" on="0"/>
        <pt x="161" y="540" on="0"/>
        <pt x="275" y="540" on="1"/>
        <pt x="386" y="540" on="0"/>
        <pt x="515" y="398" on="0"/>
        <pt x="515" y="278" on="1"/>
        <pt x="515" y="150" on="0"/>
        <pt x="379" y="0" on="0"/>
        <pt x="268" y="0" on="1"/>
        <pt x="158" y="0" on="0"/>
        <pt x="25" y="147" on="0"/>
      </contour>
      <contour>
        <pt x="90" y="275" on="1"/>
        <pt x="90" y="175" on="0"/>
        <pt x="186" y="55" on="0"/>
        <pt x="270" y="55" on="1"/>
        <pt x="355" y="55" on="0"/>
        <pt x="450" y="175" on="0"/>
        <pt x="450" y="275" on="1"/>
        <pt x="450" y="370" on="0"/>
        <pt x="359" y="485" on="0"/>
        <pt x="271" y="485" on="1"/>
        <pt x="184" y="485" on="0"/>
        <pt x="90" y="374" on="0"/>
      </contour>
    </TTGlyph>
    <TTGlyph name="OE" xMin="25" yMin="0" xMax="760" yMax="540">
      <contour>
        <pt x="420" y="540" on="1"/>
        <pt x="760" y="540" on="1"/>
        <pt x="760" y="380" on="1"/>
        <pt x="700" y="380" on="1"/>
        <pt x="700" y="485" on="1"/>
        <pt x="480" y="485" on="1"/>
        <pt x="480" y="310" on="1"/>
        <pt x="580" y="310" on="1"/>
        <pt x="580" y="370" on="1"/>
        <pt x="640" y="370" on="1"/>
        <pt x="640" y="190" on="1"/>
        <pt x="580" y="190" on="1"/>
        <pt x="580" y="255" on="1"/>
        <pt x="480" y="255" on="1"/>
        <pt x="480" y="55" on="1"/>
        <pt x="700" y="55" on="1"/>
        <pt x="700" y="160" on="1"/>
        <pt x="760" y="160" on="1"/>
        <pt x="760" y="0" on="1"/>
        <pt x="420" y="0" on="1"/>
        <pt x="420" y="49" on="1"/>
        <pt x="354" y="0" on="0"/>
        <pt x="272" y="0" on="1"/>
        <pt x="157" y="0" on="0"/>
        <pt x="25" y="148" on="0"/>
        <pt x="25" y="271" on="1"/>
        <pt x="25" y="394" on="0"/>
        <pt x="161" y="540" on="0"/>
        <pt x="280" y="540" on="1"/>
        <pt x="357" y="540" on="0"/>
        <pt x="420" y="497" on="1"/>
      </contour>
      <contour>
        <pt x="274" y="55" on="1"/>
        <pt x="360" y="55" on="0"/>
        <pt x="420" y="115" on="1"/>
        <pt x="420" y="429" on="1"/>
        <pt x="360" y="485" on="0"/>
        <pt x="276" y="485" on="1"/>
        <pt x="184" y="485" on="0"/>
        <pt x="90" y="374" on="0"/>
        <pt x="90" y="275" on="1"/>
        <pt x="90" y="176" on="0"/>
        <pt x="185" y="55" on="0"/>
      </contour>
    </TTGlyph>
    <TTGlyph name="Oacute" xMin="25" yMin="0" xMax="515" yMax="720">
      <component glyphName="O" x="0" y="0" flags="0x204"/>
      <component glyphName="uni0301.cap" x="480" y="0" flags="0x4"/>
    </TTGlyph>
    <TTGlyph name="Obreve" xMin="25" yMin="0" xMax="515" yMax="720">
      <component glyphName="O" x="0" y="0" flags="0x204"/>
      <component glyphName="uni0306.cap" x="480" y="0" flags="0x4"/>
    </TTGlyph>
    <TTGlyph name="Ocircumflex" xMin="25" yMin="0" xMax="515" yMax="720">
      <component glyphName="O" x="0" y="0" flags="0x204"/>
      <component glyphName="uni0302.cap" x="480" y="0" flags="0x4"/>
    </TTGlyph>
    <TTGlyph name="Odieresis" xMin="25" yMin="0" xMax="515" yMax="689">
      <component glyphName="O" x="0" y="0" flags="0x204"/>
      <component glyphName="uni0308.cap" x="480" y="0" flags="0x4"/>
    </TTGlyph>
    <TTGlyph name="Ograve" xMin="25" yMin="0" xMax="515" yMax="720">
      <component glyphName="O" x="0" y="0" flags="0x204"/>
      <component glyphName="uni0300.cap" x="480" y="0" flags="0x4"/>
    </TTGlyph>
    <TTGlyph name="Ohungarumlaut" xMin="25" yMin="0" xMax="515" yMax="720">
      <component glyphName="O" x="0" y="0" flags="0x204"/>
      <component glyphName="uni030B.cap" x="480" y="0" flags="0x4"/>
    </TTGlyph>
    <TTGlyph name="Omacron" xMin="25" yMin="0" xMax="515" yMax="650">
      <component glyphName="O" x="0" y="0" flags="0x204"/>
      <component glyphName="uni0304.cap" x="480" y="0" flags="0x4"/>
    </TTGlyph>
    <TTGlyph name="Oslash" xMin="25" yMin="-36" xMax="515" yMax="576">
      <contour>
        <pt x="25" y="271" on="1"/>
        <pt x="25" y="392" on="0"/>
        <pt x="161" y="540" on="0"/>
        <pt x="275" y="540" on="1"/>
        <pt x="349" y="540" on="0"/>
        <pt x="404" y="507" on="1"/>
        <pt x="450" y="576" on="1"/>
        <pt x="491" y="550" on="1"/>
        <pt x="442" y="477" on="1"/>
        <pt x="515" y="405" on="0"/>
        <pt x="515" y="278" on="1"/>
        <pt x="515" y="150" on="0"/>
        <pt x="379" y="0" on="0"/>
        <pt x="268" y="0" on="1"/>
        <pt x="193" y="0" on="0"/>
        <pt x="138" y="35" on="1"/>
        <pt x="90" y="-36" on="1"/>
        <pt x="50" y="-11" on="1"/>
        <pt x="101" y="64" on="1"/>
        <pt x="25" y="138" on="0"/>
      </contour>
      <contour>
        <pt x="90" y="275" on="1"/>
        <pt x="90" y="174" on="0"/>
        <pt x="137" y="116" on="1"/>
        <pt x="370" y="459" on="1"/>
        <pt x="330" y="485" on="0"/>
        <pt x="271" y="485" on="1"/>
        <pt x="184" y="485" on="0"/>
        <pt x="90" y="374" on="0"/>
      </contour>
      <contour>
        <pt x="270" y="55" on="1"/>
        <pt x="355" y="55" on="0"/>
        <pt x="450" y="175" on="0"/>
        <pt x="450" y="275" on="1"/>
        <pt x="450" y="370" on="0"/>
        <pt x="406" y="426" on="1"/>
        <pt x="171" y="83" on="1"/>
        <pt x="212" y="55" on="0"/>
      </contour>
    </TTGlyph>
    <TTGlyph name="Otilde" xMin="25" yMin="0" xMax="515" yMax="697">
      <component glyphName="O" x="0" y="0" flags="0x204"/>
      <component glyphName="uni0303.cap" x="480" y="0" flags="0x4"/>
    </TTGlyph>
    <TTGlyph name="P" xMin="0" yMin="0" xMax="425" yMax="540">
      <contour>
        <pt x="120" y="240" on="1"/>
        <pt x="120" y="55" on="1"/>
        <pt x="180" y="55" on="1"/>
        <pt x="180" y="0" on="1"/>
        <pt x="0" y="0" on="1"/>
        <pt x="0" y="55" on="1"/>
        <pt x="60" y="55" on="1"/>
        <pt x="60" y="485" on="1"/>
        <pt x="0" y="485" on="1"/>
        <pt x="0" y="540" on="1"/>
        <pt x="240" y="540" on="1"/>
        <pt x="337" y="540" on="0"/>
        <pt x="425" y="468" on="0"/>
        <pt x="425" y="398" on="1"/>
        <pt x="425" y="320" on="0"/>
        <pt x="322" y="240" on="0"/>
        <pt x="227" y="240" on="1"/>
      </contour>
      <contour>
        <pt x="230" y="295" on="1"/>
        <pt x="293" y="295" on="0"/>
        <pt x="360" y="342" on="0"/>
        <pt x="360" y="392" on="1"/>
        <pt x="360" y="441" on="0"/>
        <pt x="300" y="485" on="0"/>
        <pt x="235" y="485" on="1"/>
        <pt x="120" y="485" on="1"/>
        <pt x="120" y="295" on="1"/>
      </contour>
    </TTGlyph>
    <TTGlyph name="Q" xMin="25" yMin="-120" xMax="560" yMax="540">
      <contour>
        <pt x="560" y="-107" on="1"/>
        <pt x="519" y="-120" on="0"/>
        <pt x="475" y="-120" on="1"/>
        <pt x="320" y="-120" on="0"/>
        <pt x="227" y="2" on="1"/>
        <pt x="135" y="17" on="0"/>
        <pt x="25" y="160" on="0"/>
        <pt x="25" y="271" on="1"/>
        <pt x="25" y="391" on="0"/>
        <pt x="161" y="540" on="0"/>
        <pt x="275" y="540" on="1"/>
        <pt x="386" y="540" on="0"/>
        <pt x="515" y="397" on="0"/>
        <pt x="515" y="278" on="1"/>
        <pt x="515" y="163" on="0"/>
        <pt x="404" y="18" on="0"/>
        <pt x="311" y="5" on="1"/>
        <pt x="311" y="0" on="1"/>
        <pt x="373" y="-60" on="0"/>
        <pt x="480" y="-60" on="1"/>
        <pt x="522" y="-60" on="0"/>
        <pt x="560" y="-49" on="1"/>
      </contour>
      <contour>
        <pt x="90" y="275" on="1"/>
        <pt x="90" y="175" on="0"/>
        <pt x="186" y="55" on="0"/>
        <pt x="270" y="55" on="1"/>
        <pt x="355" y="55" on="0"/>
        <pt x="450" y="175" on="0"/>
        <pt x="450" y="275" on="1"/>
        <pt x="450" y="370" on="0"/>
        <pt x="359" y="485" on="0"/>
        <pt x="271" y="485" on="1"/>
        <pt x="184" y="485" on="0"/>
        <pt x="90" y="374" on="0"/>
      </contour>
    </TTGlyph>
    <TTGlyph name="R" xMin="0" yMin="0" xMax="480" yMax="540">
      <contour>
        <pt x="120" y="240" on="1"/>
        <pt x="120" y="55" on="1"/>
        <pt x="180" y="55" on="1"/>
        <pt x="180" y="0" on="1"/>
        <pt x="0" y="0" on="1"/>
        <pt x="0" y="55" on="1"/>
        <pt x="60" y="55" on="1"/>
        <pt x="60" y="485" on="1"/>
        <pt x="0" y="485" on="1"/>
        <pt x="0" y="540" on="1"/>
        <pt x="240" y="540" on="1"/>
        <pt x="338" y="540" on="0"/>
        <pt x="425" y="468" on="0"/>
        <pt x="425" y="396" on="1"/>
        <pt x="425" y="272" on="0"/>
        <pt x="282" y="248" on="1"/>
        <pt x="282" y="245" on="1"/>
        <pt x="299" y="236" on="0"/>
        <pt x="331" y="204" on="0"/>
        <pt x="353" y="166" on="1"/>
        <pt x="417" y="55" on="1"/>
        <pt x="480" y="55" on="1"/>
        <pt x="480" y="0" on="1"/>
        <pt x="374" y="0" on="1"/>
        <pt x="361" y="24" on="0"/>
        <pt x="338" y="65" on="0"/>
        <pt x="327" y="84" on="1"/>
        <pt x="293" y="144" on="1"/>
        <pt x="275" y="177" on="0"/>
        <pt x="248" y="215" on="0"/>
        <pt x="222" y="235" on="0"/>
        <pt x="194" y="240" on="0"/>
        <pt x="175" y="240" on="1"/>
      </contour>
      <contour>
        <pt x="230" y="295" on="1"/>
        <pt x="293" y="295" on="0"/>
        <pt x="360" y="341" on="0"/>
        <pt x="360" y="392" on="1"/>
        <pt x="360" y="441" on="0"/>
        <pt x="301" y="485" on="0"/>
        <pt x="235" y="485" on="1"/>
        <pt x="120" y="485" on="1"/>
        <pt x="120" y="295" on="1"/>
      </contour>
    </TTGlyph>
    <TTGlyph name="Racute" xMin="0" yMin="0" xMax="480" yMax="720">
      <component glyphName="R" x="0" y="0" flags="0x204"/>
      <component glyphName="uni0301.cap" x="420" y="0" flags="0x4"/>
    </TTGlyph>
    <TTGlyph name="Rcaron" xMin="0" yMin="0" xMax="480" yMax="720">
      <component glyphName="R" x="0" y="0" flags="0x204"/>
      <component glyphName="uni030C.cap" x="420" y="0" flags="0x4"/>
    </TTGlyph>
    <TTGlyph name="Rcommaaccent" xMin="0" yMin="-180" xMax="480" yMax="540">
      <component glyphName="R" x="0" y="0" flags="0x204"/>
      <component glyphName="uni0326" x="420" y="0" flags="0x4"/>
    </TTGlyph>
    <TTGlyph name="S" xMin="-5" yMin="0" xMax="365" yMax="540">
      <contour>
        <pt x="158" y="0" on="1"/>
        <pt x="79" y="0" on="0"/>
        <pt x="0" y="33" on="1"/>
        <pt x="0" y="160" on="1"/>
        <pt x="60" y="160" on="1"/>
        <pt x="60" y="70" on="1"/>
        <pt x="106" y="55" on="0"/>
        <pt x="168" y="55" on="1"/>
        <pt x="231" y="55" on="0"/>
        <pt x="300" y="103" on="0"/>
        <pt x="300" y="139" on="1"/>
        <pt x="300" y="159" on="0"/>
        <pt x="285" y="187" on="0"/>
        <pt x="253" y="209" on="0"/>
        <pt x="203" y="229" on="0"/>
        <pt x="168" y="240" on="1"/>
        <pt x="138" y="250" on="0"/>
        <pt x="77" y="274" on="0"/>
        <pt x="26" y="308" on="0"/>
        <pt x="-5" y="359" on="0"/>
        <pt x="-5" y="395" on="1"/>
        <pt x="-5" y="460" on="0"/>
        <pt x="102" y="540" on="0"/>
        <pt x="191" y="540" on="1"/>
        <pt x="273" y="540" on="0"/>
        <pt x="340" y="506" on="1"/>
        <pt x="340" y="380" on="1"/>
        <pt x="280" y="380" on="1"/>
        <pt x="280" y="469" on="1"/>
        <pt x="242" y="485" on="0"/>
        <pt x="183" y="485" on="1"/>
        <pt x="123" y="485" on="0"/>
        <pt x="60" y="436" on="0"/>
        <pt x="60" y="402" on="1"/>
        <pt x="60" y="380" on="0"/>
        <pt x="77" y="351" on="0"/>
        <pt x="111" y="328" on="0"/>
        <pt x="161" y="309" on="0"/>
        <pt x="195" y="298" on="1"/>
        <pt x="225" y="288" on="0"/>
        <pt x="286" y="264" on="0"/>
        <pt x="335" y="231" on="0"/>
        <pt x="365" y="182" on="0"/>
        <pt x="365" y="147" on="1"/>
        <pt x="365" y="77" on="0"/>
        <pt x="255" y="0" on="0"/>
      </contour>
    </TTGlyph>
    <TTGlyph name="Sacute" xMin="-5" yMin="0" xMax="365" yMax="720">
      <component glyphName="S" x="0" y="0" flags="0x204"/>
      <component glyphName="uni0301.cap" x="390" y="0" flags="0x4"/>
    </TTGlyph>
    <TTGlyph name="Scaron" xMin="-5" yMin="0" xMax="365" yMax="720">
      <component glyphName="S" x="0" y="0" flags="0x204"/>
      <component glyphName="uni030C.cap" x="390" y="0" flags="0x4"/>
    </TTGlyph>
    <TTGlyph name="Scircumflex" xMin="-5" yMin="0" xMax="365" yMax="720">
      <component glyphName="S" x="0" y="0" flags="0x204"/>
      <component glyphName="uni0302.cap" x="390" y="0" flags="0x4"/>
    </TTGlyph>
    <TTGlyph name="T" xMin="0" yMin="0" xMax="420" yMax="540">
      <contour>
        <pt x="120" y="55" on="1"/>
        <pt x="180" y="55" on="1"/>
        <pt x="180" y="485" on="1"/>
        <pt x="60" y="485" on="1"/>
        <pt x="60" y="380" on="1"/>
        <pt x="0" y="380" on="1"/>
        <pt x="0" y="540" on="1"/>
        <pt x="420" y="540" on="1"/>
        <pt x="420" y="380" on="1"/>
        <pt x="360" y="380" on="1"/>
        <pt x="360" y="485" on="1"/>
        <pt x="240" y="485" on="1"/>
        <pt x="240" y="55" on="1"/>
        <pt x="300" y="55" on="1"/>
        <pt x="300" y="0" on="1"/>
        <pt x="120" y="0" on="1"/>
      </contour>
    </TTGlyph>
    <TTGlyph name="Tbar" xMin="0" yMin="0" xMax="420" yMax="540">
      <contour>
        <pt x="120" y="55" on="1"/>
        <pt x="180" y="55" on="1"/>
        <pt x="180" y="245" on="1"/>
        <pt x="60" y="245" on="1"/>
        <pt x="60" y="300" on="1"/>
        <pt x="180" y="300" on="1"/>
        <pt x="180" y="485" on="1"/>
        <pt x="60" y="485" on="1"/>
        <pt x="60" y="380" on="1"/>
        <pt x="0" y="380" on="1"/>
        <pt x="0" y="540" on="1"/>
        <pt x="420" y="540" on="1"/>
        <pt x="420" y="380" on="1"/>
        <pt x="360" y="380" on="1"/>
        <pt x="360" y="485" on="1"/>
        <pt x="240" y="485" on="1"/>
        <pt x="240" y="300" on="1"/>
        <pt x="360" y="300" on="1"/>
        <pt x="360" y="245" on="1"/>
        <pt x="240" y="245" on="1"/>
        <pt x="240" y="55" on="1"/>
        <pt x="300" y="55" on="1"/>
        <pt x="300" y="0" on="1"/>
        <pt x="120" y="0" on="1"/>
      </contour>
    </TTGlyph>
    <TTGlyph name="Tcaron" xMin="0" yMin="0" xMax="420" yMax="720">
      <component glyphName="T" x="0" y="0" flags="0x204"/>
      <component glyphName="uni030C.cap" x="420" y="0" flags="0x4"/>
    </TTGlyph>
    <TTGlyph name="Tcommaaccent" xMin="0" yMin="-180" xMax="420" yMax="540">
      <component glyphName="T" x="0" y="0" flags="0x204"/>
      <component glyphName="uni0326" x="420" y="0" flags="0x4"/>
    </TTGlyph>
    <TTGlyph name="Thorn" xMin="0" yMin="0" xMax="405" yMax="540">
      <contour>
        <pt x="0" y="55" on="1"/>
        <pt x="60" y="55" on="1"/>
        <pt x="60" y="485" on="1"/>
        <pt x="0" y="485" on="1"/>
        <pt x="0" y="540" on="1"/>
        <pt x="180" y="540" on="1"/>
        <pt x="180" y="485" on="1"/>
        <pt x="120" y="485" on="1"/>
        <pt x="120" y="420" on="1"/>
        <pt x="220" y="420" on="1"/>
        <pt x="317" y="420" on="0"/>
        <pt x="405" y="348" on="0"/>
        <pt x="405" y="278" on="1"/>
        <pt x="405" y="200" on="0"/>
        <pt x="302" y="125" on="0"/>
        <pt x="207" y="125" on="1"/>
        <pt x="120" y="125" on="1"/>
        <pt x="120" y="55" on="1"/>
        <pt x="180" y="55" on="1"/>
        <pt x="180" y="0" on="1"/>
        <pt x="0" y="0" on="1"/>
      </contour>
      <contour>
        <pt x="210" y="180" on="1"/>
        <pt x="273" y="180" on="0"/>
        <pt x="340" y="222" on="0"/>
        <pt x="340" y="272" on="1"/>
        <pt x="340" y="321" on="0"/>
        <pt x="280" y="365" on="0"/>
        <pt x="215" y="365" on="1"/>
        <pt x="120" y="365" on="1"/>
        <pt x="120" y="180" on="1"/>
      </contour>
    </TTGlyph>
    <TTGlyph name="U" xMin="0" yMin="0" xMax="540" yMax="540">
      <contour>
        <pt x="120" y="205" on="1"/>
        <pt x="120" y="132" on="0"/>
        <pt x="200" y="52" on="0"/>
        <pt x="268" y="52" on="1"/>
        <pt x="339" y="52" on="0"/>
        <pt x="420" y="135" on="0"/>
        <pt x="420" y="207" on="1"/>
        <pt x="420" y="485" on="1"/>
        <pt x="360" y="485" on="1"/>
        <pt x="360" y="540" on="1"/>
        <pt x="540" y="540" on="1"/>
        <pt x="540" y="485" on="1"/>
        <pt x="480" y="485" on="1"/>
        <pt x="480" y="209" on="1"/>
        <pt x="480" y="115" on="0"/>
        <pt x="367" y="0" on="0"/>
        <pt x="268" y="0" on="1"/>
        <pt x="173" y="0" on="0"/>
        <pt x="60" y="108" on="0"/>
        <pt x="60" y="203" on="1"/>
        <pt x="60" y="485" on="1"/>
        <pt x="0" y="485" on="1"/>
        <pt x="0" y="540" on="1"/>
        <pt x="180" y="540" on="1"/>
        <pt x="180" y="485" on="1"/>
        <pt x="120" y="485" on="1"/>
      </contour>
    </TTGlyph>
    <TTGlyph name="Uacute" xMin="0" yMin="0" xMax="540" yMax="720">
      <component glyphName="U" x="0" y="0" flags="0x204"/>
      <component glyphName="uni0301.cap" x="480" y="0" flags="0x4"/>
    </TTGlyph>
    <TTGlyph name="Ubreve" xMin="0" yMin="0" xMax="540" yMax="720">
      <component glyphName="U" x="0" y="0" flags="0x204"/>
      <component glyphName="uni0306.cap" x="480" y="0" flags="0x4"/>
    </TTGlyph>
    <TTGlyph name="Ucircumflex" xMin="0" yMin="0" xMax="540" yMax="720">
      <component glyphName="U" x="0" y="0" flags="0x204"/>
      <component glyphName="uni0302.cap" x="480" y="0" flags="0x4"/>
    </TTGlyph>
    <TTGlyph name="Udieresis" xMin="0" yMin="0" xMax="540" yMax="689">
      <component glyphName="U" x="0" y="0" flags="0x204"/>
      <component glyphName="uni0308.cap" x="480" y="0" flags="0x4"/>
    </TTGlyph>
    <TTGlyph name="Ugrave" xMin="0" yMin="0" xMax="540" yMax="720">
      <component glyphName="U" x="0" y="0" flags="0x204"/>
      <component glyphName="uni0300.cap" x="480" y="0" flags="0x4"/>
    </TTGlyph>
    <TTGlyph name="Uhungarumlaut" xMin="0" yMin="0" xMax="540" yMax="720">
      <component glyphName="U" x="0" y="0" flags="0x204"/>
      <component glyphName="uni030B.cap" x="480" y="0" flags="0x4"/>
    </TTGlyph>
    <TTGlyph name="Umacron" xMin="0" yMin="0" xMax="540" yMax="650">
      <component glyphName="U" x="0" y="0" flags="0x204"/>
      <component glyphName="uni0304.cap" x="480" y="0" flags="0x4"/>
    </TTGlyph>
    <TTGlyph name="Uogonek" xMin="0" yMin="-180" xMax="540" yMax="540">
      <contour>
        <pt x="120" y="205" on="1"/>
        <pt x="120" y="132" on="0"/>
        <pt x="200" y="52" on="0"/>
        <pt x="268" y="52" on="1"/>
        <pt x="339" y="52" on="0"/>
        <pt x="420" y="135" on="0"/>
        <pt x="420" y="207" on="1"/>
        <pt x="420" y="485" on="1"/>
        <pt x="360" y="485" on="1"/>
        <pt x="360" y="540" on="1"/>
        <pt x="540" y="540" on="1"/>
        <pt x="540" y="485" on="1"/>
        <pt x="480" y="485" on="1"/>
        <pt x="480" y="209" on="1"/>
        <pt x="480" y="135" on="0"/>
        <pt x="409" y="32" on="0"/>
        <pt x="355" y="15" on="1"/>
        <pt x="280" y="-38" on="0"/>
        <pt x="280" y="-86" on="1"/>
        <pt x="280" y="-106" on="0"/>
        <pt x="301" y="-125" on="0"/>
        <pt x="317" y="-125" on="1"/>
        <pt x="338" y="-125" on="0"/>
        <pt x="360" y="-114" on="1"/>
        <pt x="360" y="-165" on="1"/>
        <pt x="334" y="-180" on="0"/>
        <pt x="303" y="-180" on="1"/>
        <pt x="269" y="-180" on="0"/>
        <pt x="220" y="-140" on="0"/>
        <pt x="220" y="-104" on="1"/>
        <pt x="220" y="-45" on="0"/>
        <pt x="285" y="-1" on="1"/>
        <pt x="284" y="1" on="1"/>
        <pt x="276" y="0" on="0"/>
        <pt x="268" y="0" on="1"/>
        <pt x="173" y="0" on="0"/>
        <pt x="60" y="108" on="0"/>
        <pt x="60" y="203" on="1"/>
        <pt x="60" y="485" on="1"/>
        <pt x="0" y="485" on="1"/>
        <pt x="0" y="540" on="1"/>
        <pt x="180" y="540" on="1"/>
        <pt x="180" y="485" on="1"/>
        <pt x="120" y="485" on="1"/>
      </contour>
    </TTGlyph>
    <TTGlyph name="Uring" xMin="0" yMin="0" xMax="540" yMax="720">
      <component glyphName="U" x="0" y="0" flags="0x204"/>
      <component glyphName="uni030A.cap" x="480" y="0" flags="0x4"/>
    </TTGlyph>
    <TTGlyph name="Utilde" xMin="0" yMin="0" xMax="540" yMax="697">
      <component glyphName="U" x="0" y="0" flags="0x204"/>
      <component glyphName="uni0303.cap" x="480" y="0" flags="0x4"/>
    </TTGlyph>
    <TTGlyph name="V" xMin="-60" yMin="0" xMax="480" yMax="540">
      <contour>
        <pt x="210" y="70" on="1"/>
        <pt x="214" y="70" on="1"/>
        <pt x="365" y="485" on="1"/>
        <pt x="300" y="485" on="1"/>
        <pt x="300" y="540" on="1"/>
        <pt x="480" y="540" on="1"/>
        <pt x="480" y="485" on="1"/>
        <pt x="423" y="485" on="1"/>
        <pt x="241" y="0" on="1"/>
        <pt x="174" y="0" on="1"/>
        <pt x="-4" y="485" on="1"/>
        <pt x="-60" y="485" on="1"/>
        <pt x="-60" y="540" on="1"/>
        <pt x="120" y="540" on="1"/>
        <pt x="120" y="485" on="1"/>
        <pt x="58" y="485" on="1"/>
      </contour>
    </TTGlyph>
    <TTGlyph name="W" xMin="-60" yMin="0" xMax="780" yMax="540">
      <contour>
        <pt x="356" y="317" on="1"/>
        <pt x="238" y="0" on="1"/>
        <pt x="171" y="0" on="1"/>
        <pt x="-4" y="485" on="1"/>
        <pt x="-60" y="485" on="1"/>
        <pt x="-60" y="540" on="1"/>
        <pt x="120" y="540" on="1"/>
        <pt x="120" y="485" on="1"/>
        <pt x="58" y="485" on="1"/>
        <pt x="207" y="70" on="1"/>
        <pt x="211" y="70" on="1"/>
        <pt x="331" y="391" on="1"/>
        <pt x="296" y="485" on="1"/>
        <pt x="238" y="485" on="1"/>
        <pt x="240" y="540" on="1"/>
        <pt x="420" y="540" on="1"/>
        <pt x="420" y="485" on="1"/>
        <pt x="358" y="485" on="1"/>
        <pt x="514" y="70" on="1"/>
        <pt x="518" y="70" on="1"/>
        <pt x="665" y="485" on="1"/>
        <pt x="600" y="485" on="1"/>
        <pt x="600" y="540" on="1"/>
        <pt x="780" y="540" on="1"/>
        <pt x="780" y="485" on="1"/>
        <pt x="723" y="485" on="1"/>
        <pt x="545" y="0" on="1"/>
        <pt x="478" y="0" on="1"/>
        <pt x="360" y="317" on="1"/>
      </contour>
    </TTGlyph>
    <TTGlyph name="Wacute" xMin="-60" yMin="0" xMax="780" yMax="720">
      <component glyphName="W" x="0" y="0" flags="0x204"/>
      <component glyphName="uni0301.cap" x="550" y="0" flags="0x4"/>
    </TTGlyph>
    <TTGlyph name="Wcircumflex" xMin="-60" yMin="0" xMax="780" yMax="720">
      <component glyphName="W" x="0" y="0" flags="0x204"/>
      <component glyphName="uni0302.cap" x="550" y="0" flags="0x4"/>
    </TTGlyph>
    <TTGlyph name="Wdieresis" xMin="-60" yMin="0" xMax="780" yMax="689">
      <component glyphName="W" x="0" y="0" flags="0x204"/>
      <component glyphName="uni0308.cap" x="550" y="0" flags="0x4"/>
    </TTGlyph>
    <TTGlyph name="Wgrave" xMin="-60" yMin="0" xMax="780" yMax="720">
      <component glyphName="W" x="0" y="0" flags="0x204"/>
      <component glyphName="uni0300.cap" x="550" y="0" flags="0x4"/>
    </TTGlyph>
    <TTGlyph name="X" xMin="0" yMin="0" xMax="480" yMax="540">
      <contour>
        <pt x="57" y="485" on="1"/>
        <pt x="0" y="485" on="1"/>
        <pt x="0" y="540" on="1"/>
        <pt x="180" y="540" on="1"/>
        <pt x="180" y="485" on="1"/>
        <pt x="127" y="485" on="1"/>
        <pt x="243" y="315" on="1"/>
        <pt x="360" y="485" on="1"/>
        <pt x="300" y="485" on="1"/>
        <pt x="300" y="540" on="1"/>
        <pt x="480" y="540" on="1"/>
        <pt x="480" y="485" on="1"/>
        <pt x="423" y="485" on="1"/>
        <pt x="274" y="270" on="1"/>
        <pt x="423" y="55" on="1"/>
        <pt x="480" y="55" on="1"/>
        <pt x="480" y="0" on="1"/>
        <pt x="300" y="0" on="1"/>
        <pt x="300" y="55" on="1"/>
        <pt x="353" y="55" on="1"/>
        <pt x="236" y="224" on="1"/>
        <pt x="120" y="55" on="1"/>
        <pt x="180" y="55" on="1"/>
        <pt x="180" y="0" on="1"/>
        <pt x="0" y="0" on="1"/>
        <pt x="0" y="55" on="1"/>
        <pt x="57" y="55" on="1"/>
        <pt x="205" y="269" on="1"/>
      </contour>
    </TTGlyph>
    <TTGlyph name="Y" xMin="-60" yMin="0" xMax="480" yMax="540">
      <contour>
        <pt x="214" y="279" on="1"/>
        <pt x="357" y="485" on="1"/>
        <pt x="300" y="485" on="1"/>
        <pt x="300" y="540" on="1"/>
        <pt x="480" y="540" on="1"/>
        <pt x="480" y="485" on="1"/>
        <pt x="420" y="485" on="1"/>
        <pt x="240" y="225" on="1"/>
        <pt x="240" y="55" on="1"/>
        <pt x="300" y="55" on="1"/>
        <pt x="300" y="0" on="1"/>
        <pt x="120" y="0" on="1"/>
        <pt x="120" y="55" on="1"/>
        <pt x="180" y="55" on="1"/>
        <pt x="180" y="223" on="1"/>
        <pt x="0" y="485" on="1"/>
        <pt x="-60" y="485" on="1"/>
        <pt x="-60" y="540" on="1"/>
        <pt x="120" y="540" on="1"/>
        <pt x="120" y="485" on="1"/>
        <pt x="74" y="485" on="1"/>
        <pt x="212" y="279" on="1"/>
      </contour>
    </TTGlyph>
    <TTGlyph name="Yacute" xMin="-60" yMin="0" xMax="480" yMax="720">
      <component glyphName="Y" x="0" y="0" flags="0x204"/>
      <component glyphName="uni0301.cap" x="420" y="0" flags="0x4"/>
    </TTGlyph>
    <TTGlyph name="Ycircumflex" xMin="-60" yMin="0" xMax="480" yMax="720">
      <component glyphName="Y" x="0" y="0" flags="0x204"/>
      <component glyphName="uni0302.cap" x="420" y="0" flags="0x4"/>
    </TTGlyph>
    <TTGlyph name="Ydieresis" xMin="-60" yMin="0" xMax="480" yMax="689">
      <component glyphName="Y" x="0" y="0" flags="0x204"/>
      <component glyphName="uni0308.cap" x="420" y="0" flags="0x4"/>
    </TTGlyph>
    <TTGlyph name="Ygrave" xMin="-60" yMin="0" xMax="480" yMax="720">
      <component glyphName="Y" x="0" y="0" flags="0x204"/>
      <component glyphName="uni0300.cap" x="420" y="0" flags="0x4"/>
    </TTGlyph>
    <TTGlyph name="Z" xMin="0" yMin="0" xMax="400" yMax="540">
      <contour>
        <pt x="0" y="49" on="1"/>
        <pt x="328" y="485" on="1"/>
        <pt x="60" y="485" on="1"/>
        <pt x="60" y="380" on="1"/>
        <pt x="0" y="380" on="1"/>
        <pt x="0" y="540" on="1"/>
        <pt x="400" y="540" on="1"/>
        <pt x="400" y="491" on="1"/>
        <pt x="72" y="55" on="1"/>
        <pt x="340" y="55" on="1"/>
        <pt x="340" y="160" on="1"/>
        <pt x="400" y="160" on="1"/>
        <pt x="400" y="0" on="1"/>
        <pt x="0" y="0" on="1"/>
      </contour>
    </TTGlyph>
    <TTGlyph name="Zacute" xMin="0" yMin="0" xMax="400" yMax="720">
      <component glyphName="Z" x="0" y="0" flags="0x204"/>
      <component glyphName="uni0301.cap" x="410" y="0" flags="0x4"/>
    </TTGlyph>
    <TTGlyph name="Zcaron" xMin="0" yMin="0" xMax="400" yMax="720">
      <component glyphName="Z" x="0" y="0" flags="0x204"/>
      <component glyphName="uni030C.cap" x="410" y="0" flags="0x4"/>
    </TTGlyph>
    <TTGlyph name="Zdotaccent" xMin="0" yMin="0" xMax="400" yMax="694">
      <component glyphName="Z" x="0" y="0" flags="0x204"/>
      <component glyphName="uni0307.cap" x="410" y="0" flags="0x4"/>
    </TTGlyph>
    <TTGlyph name="a" xMin="-5" yMin="0" xMax="370" yMax="420">
      <contour>
        <pt x="20" y="385" on="1"/>
        <pt x="95" y="420" on="0"/>
        <pt x="173" y="420" on="1"/>
        <pt x="241" y="420" on="0"/>
        <pt x="310" y="358" on="0"/>
        <pt x="310" y="289" on="1"/>
        <pt x="310" y="55" on="1"/>
        <pt x="370" y="55" on="1"/>
        <pt x="370" y="0" on="1"/>
        <pt x="254" y="0" on="1"/>
        <pt x="250" y="61" on="1"/>
        <pt x="247" y="61" on="1"/>
        <pt x="193" y="0" on="0"/>
        <pt x="119" y="0" on="1"/>
        <pt x="59" y="0" on="0"/>
        <pt x="-5" y="61" on="0"/>
        <pt x="-5" y="115" on="1"/>
        <pt x="-5" y="249" on="0"/>
        <pt x="208" y="249" on="1"/>
        <pt x="250" y="249" on="1"/>
        <pt x="250" y="291" on="1"/>
        <pt x="250" y="327" on="0"/>
        <pt x="209" y="365" on="0"/>
        <pt x="164" y="365" on="1"/>
        <pt x="98" y="365" on="0"/>
        <pt x="20" y="330" on="1"/>
      </contour>
      <contour>
        <pt x="198" y="194" on="1"/>
        <pt x="60" y="194" on="0"/>
        <pt x="60" y="119" on="1"/>
        <pt x="60" y="87" on="0"/>
        <pt x="97" y="55" on="0"/>
        <pt x="132" y="55" on="1"/>
        <pt x="196" y="55" on="0"/>
        <pt x="250" y="116" on="1"/>
        <pt x="250" y="194" on="1"/>
      </contour>
    </TTGlyph>
    <TTGlyph name="aacute" xMin="-5" yMin="0" xMax="370" yMax="600">
      <component glyphName="a" x="0" y="0" flags="0x204"/>
      <component glyphName="uni0301" x="370" y="0" flags="0x4"/>
    </TTGlyph>
    <TTGlyph name="abreve" xMin="-5" yMin="0" xMax="370" yMax="600">
      <component glyphName="a" x="0" y="0" flags="0x204"/>
      <component glyphName="uni0306" x="370" y="0" flags="0x4"/>
    </TTGlyph>
    <TTGlyph name="acircumflex" xMin="-5" yMin="0" xMax="370" yMax="600">
      <component glyphName="a" x="0" y="0" flags="0x204"/>
      <component glyphName="uni0302" x="370" y="0" flags="0x4"/>
    </TTGlyph>
    <TTGlyph name="acute" xMin="30" yMin="480" xMax="170" yMax="600">
      <component glyphName="uni0301" x="270" y="0" flags="0x4"/>
    </TTGlyph>
    <TTGlyph name="adieresis" xMin="-5" yMin="0" xMax="370" yMax="569">
      <component glyphName="a" x="0" y="0" flags="0x204"/>
      <component glyphName="uni0308" x="370" y="0" flags="0x4"/>
    </TTGlyph>
    <TTGlyph name="ae" xMin="-5" yMin="0" xMax="600" yMax="420">
      <contour>
        <pt x="457" y="55" on="1"/>
        <pt x="525" y="55" on="0"/>
        <pt x="590" y="96" on="1"/>
        <pt x="590" y="37" on="1"/>
        <pt x="524" y="0" on="0"/>
        <pt x="452" y="0" on="1"/>
        <pt x="336" y="0" on="0"/>
        <pt x="285" y="87" on="1"/>
        <pt x="283" y="87" on="1"/>
        <pt x="211" y="0" on="0"/>
        <pt x="119" y="0" on="1"/>
        <pt x="59" y="0" on="0"/>
        <pt x="-5" y="61" on="0"/>
        <pt x="-5" y="115" on="1"/>
        <pt x="-5" y="249" on="0"/>
        <pt x="208" y="249" on="1"/>
        <pt x="255" y="249" on="1"/>
        <pt x="255" y="291" on="1"/>
        <pt x="255" y="327" on="0"/>
        <pt x="212" y="365" on="0"/>
        <pt x="164" y="365" on="1"/>
        <pt x="98" y="365" on="0"/>
        <pt x="20" y="330" on="1"/>
        <pt x="20" y="385" on="1"/>
        <pt x="95" y="420" on="0"/>
        <pt x="173" y="420" on="1"/>
        <pt x="274" y="420" on="0"/>
        <pt x="298" y="354" on="1"/>
        <pt x="300" y="354" on="1"/>
        <pt x="352" y="420" on="0"/>
        <pt x="446" y="420" on="1"/>
        <pt x="519" y="420" on="0"/>
        <pt x="600" y="321" on="0"/>
        <pt x="600" y="233" on="1"/>
        <pt x="600" y="194" on="1"/>
        <pt x="316" y="194" on="1"/>
        <pt x="320" y="132" on="0"/>
        <pt x="388" y="55" on="0"/>
      </contour>
      <contour>
        <pt x="198" y="194" on="1"/>
        <pt x="60" y="194" on="0"/>
        <pt x="60" y="119" on="1"/>
        <pt x="60" y="87" on="0"/>
        <pt x="97" y="55" on="0"/>
        <pt x="132" y="55" on="1"/>
        <pt x="205" y="55" on="0"/>
        <pt x="266" y="130" on="1"/>
        <pt x="255" y="164" on="0"/>
        <pt x="255" y="194" on="1"/>
      </contour>
      <contour>
        <pt x="530" y="249" on="1"/>
        <pt x="526" y="365" on="0"/>
        <pt x="430" y="365" on="1"/>
        <pt x="381" y="365" on="0"/>
        <pt x="324" y="307" on="0"/>
        <pt x="318" y="249" on="1"/>
      </contour>
    </TTGlyph>
    <TTGlyph name="agrave" xMin="-5" yMin="0" xMax="370" yMax="600">
      <component glyphName="a" x="0" y="0" flags="0x204"/>
      <component glyphName="uni0300" x="370" y="0" flags="0x4"/>
    </TTGlyph>
    <TTGlyph name="amacron" xMin="-5" yMin="0" xMax="370" yMax="530">
      <component glyphName="a" x="0" y="0" flags="0x204"/>
      <component glyphName="uni0304" x="370" y="0" flags="0x4"/>
    </TTGlyph>
    <TTGlyph name="ampersand" xMin="20" yMin="0" xMax="540" yMax="540">
      <contour>
        <pt x="376" y="144" on="1"/>
        <pt x="412" y="198" on="0"/>
        <pt x="414" y="255" on="1"/>
        <pt x="360" y="255" on="1"/>
        <pt x="360" y="310" on="1"/>
        <pt x="520" y="310" on="1"/>
        <pt x="520" y="255" on="1"/>
        <pt x="469" y="255" on="1"/>
        <pt x="464" y="177" on="0"/>
        <pt x="415" y="110" on="1"/>
        <pt x="453" y="75" on="0"/>
        <pt x="492" y="55" on="0"/>
        <pt x="513" y="55" on="1"/>
        <pt x="526" y="55" on="0"/>
        <pt x="540" y="57" on="1"/>
        <pt x="540" y="6" on="1"/>
        <pt x="523" y="0" on="0"/>
        <pt x="503" y="0" on="1"/>
        <pt x="468" y="0" on="0"/>
        <pt x="418" y="32" on="0"/>
        <pt x="378" y="68" on="1"/>
        <pt x="310" y="0" on="0"/>
        <pt x="205" y="0" on="1"/>
        <pt x="123" y="0" on="0"/>
        <pt x="20" y="79" on="0"/>
        <pt x="20" y="145" on="1"/>
        <pt x="20" y="232" on="0"/>
        <pt x="134" y="292" on="1"/>
        <pt x="91" y="335" on="0"/>
        <pt x="60" y="388" on="0"/>
        <pt x="60" y="419" on="1"/>
        <pt x="60" y="472" on="0"/>
        <pt x="140" y="540" on="0"/>
        <pt x="206" y="540" on="1"/>
        <pt x="266" y="540" on="0"/>
        <pt x="340" y="482" on="0"/>
        <pt x="340" y="429" on="1"/>
        <pt x="340" y="386" on="0"/>
        <pt x="282" y="320" on="0"/>
        <pt x="222" y="286" on="1"/>
        <pt x="306" y="205" on="0"/>
      </contour>
      <contour>
        <pt x="169" y="259" on="1"/>
        <pt x="85" y="217" on="0"/>
        <pt x="85" y="154" on="1"/>
        <pt x="85" y="108" on="0"/>
        <pt x="155" y="55" on="0"/>
        <pt x="210" y="55" on="1"/>
        <pt x="285" y="55" on="0"/>
        <pt x="340" y="102" on="1"/>
        <pt x="259" y="171" on="0"/>
      </contour>
      <contour>
        <pt x="280" y="422" on="1"/>
        <pt x="280" y="452" on="0"/>
        <pt x="236" y="485" on="0"/>
        <pt x="201" y="485" on="1"/>
        <pt x="166" y="485" on="0"/>
        <pt x="120" y="453" on="0"/>
        <pt x="120" y="422" on="1"/>
        <pt x="120" y="400" on="0"/>
        <pt x="147" y="358" on="0"/>
        <pt x="190" y="318" on="1"/>
        <pt x="280" y="366" on="0"/>
      </contour>
    </TTGlyph>
    <TTGlyph name="aogonek" xMin="-5" yMin="-180" xMax="370" yMax="420">
      <component glyphName="a" x="0" y="0" flags="0x204"/>
      <component glyphName="uni0328" x="430" y="0" flags="0x4"/>
    </TTGlyph>
    <TTGlyph name="aring" xMin="-5" yMin="0" xMax="370" yMax="625">
      <component glyphName="a" x="0" y="0" flags="0x204"/>
      <component glyphName="uni030A" x="370" y="0" flags="0x4"/>
    </TTGlyph>
    <TTGlyph name="asciicircum" xMin="-20" yMin="240" xMax="320" yMax="540">
      <contour>
        <pt x="151" y="464" on="1"/>
        <pt x="149" y="464" on="1"/>
        <pt x="44" y="240" on="1"/>
        <pt x="-20" y="240" on="1"/>
        <pt x="120" y="540" on="1"/>
        <pt x="180" y="540" on="1"/>
        <pt x="320" y="240" on="1"/>
        <pt x="256" y="240" on="1"/>
      </contour>
    </TTGlyph>
    <TTGlyph name="asciitilde" xMin="0" yMin="150" xMax="360" yMax="270">
      <contour>
        <pt x="0" y="221" on="1"/>
        <pt x="26" y="247" on="0"/>
        <pt x="77" y="270" on="0"/>
        <pt x="102" y="270" on="1"/>
        <pt x="131" y="270" on="0"/>
        <pt x="173" y="249" on="0"/>
        <pt x="190" y="236" on="1"/>
        <pt x="207" y="223" on="0"/>
        <pt x="240" y="204" on="0"/>
        <pt x="260" y="204" on="1"/>
        <pt x="288" y="204" on="0"/>
        <pt x="341" y="241" on="0"/>
        <pt x="360" y="267" on="1"/>
        <pt x="360" y="198" on="1"/>
        <pt x="334" y="172" on="0"/>
        <pt x="285" y="150" on="0"/>
        <pt x="259" y="150" on="1"/>
        <pt x="230" y="150" on="0"/>
        <pt x="189" y="170" on="0"/>
        <pt x="172" y="183" on="1"/>
        <pt x="155" y="196" on="0"/>
        <pt x="122" y="215" on="0"/>
        <pt x="100" y="215" on="1"/>
        <pt x="73" y="215" on="0"/>
        <pt x="19" y="178" on="0"/>
        <pt x="0" y="152" on="1"/>
      </contour>
    </TTGlyph>
    <TTGlyph name="asterisk" xMin="-8" yMin="249" xMax="307" yMax="550">
      <contour>
        <pt x="184" y="550" on="1"/>
        <pt x="170" y="422" on="1"/>
        <pt x="287" y="475" on="1"/>
        <pt x="307" y="409" on="1"/>
        <pt x="180" y="387" on="1"/>
        <pt x="269" y="289" on="1"/>
        <pt x="213" y="249" on="1"/>
        <pt x="150" y="364" on="1"/>
        <pt x="85" y="249" on="1"/>
        <pt x="31" y="289" on="1"/>
        <pt x="118" y="387" on="1"/>
        <pt x="-8" y="411" on="1"/>
        <pt x="13" y="475" on="1"/>
        <pt x="132" y="422" on="1"/>
        <pt x="116" y="550" on="1"/>
      </contour>
    </TTGlyph>
    <TTGlyph name="at" xMin="40" yMin="-120" xMax="620" yMax="480">
      <contour>
        <pt x="500" y="-95" on="1"/>
        <pt x="415" y="-120" on="0"/>
        <pt x="333" y="-120" on="1"/>
        <pt x="196" y="-120" on="0"/>
        <pt x="40" y="27" on="0"/>
        <pt x="40" y="157" on="1"/>
        <pt x="40" y="291" on="0"/>
        <pt x="205" y="480" on="0"/>
        <pt x="342" y="480" on="1"/>
        <pt x="465" y="480" on="0"/>
        <pt x="620" y="327" on="0"/>
        <pt x="620" y="211" on="1"/>
        <pt x="620" y="123" on="0"/>
        <pt x="534" y="0" on="0"/>
        <pt x="467" y="0" on="1"/>
        <pt x="392" y="0" on="0"/>
        <pt x="385" y="91" on="1"/>
        <pt x="382" y="91" on="1"/>
        <pt x="342" y="0" on="0"/>
        <pt x="275" y="0" on="1"/>
        <pt x="230" y="0" on="0"/>
        <pt x="180" y="73" on="0"/>
        <pt x="180" y="138" on="1"/>
        <pt x="180" y="229" on="0"/>
        <pt x="271" y="343" on="0"/>
        <pt x="348" y="343" on="1"/>
        <pt x="392" y="343" on="0"/>
        <pt x="450" y="325" on="1"/>
        <pt x="441" y="211" on="1"/>
        <pt x="436" y="152" on="0"/>
        <pt x="436" y="123" on="1"/>
        <pt x="436" y="55" on="0"/>
        <pt x="474" y="55" on="1"/>
        <pt x="509" y="55" on="0"/>
        <pt x="560" y="136" on="0"/>
        <pt x="560" y="206" on="1"/>
        <pt x="560" y="306" on="0"/>
        <pt x="441" y="425" on="0"/>
        <pt x="342" y="425" on="1"/>
        <pt x="233" y="425" on="0"/>
        <pt x="100" y="277" on="0"/>
        <pt x="100" y="162" on="1"/>
        <pt x="100" y="57" on="0"/>
        <pt x="222" y="-65" on="0"/>
        <pt x="340" y="-65" on="1"/>
        <pt x="418" y="-65" on="0"/>
        <pt x="500" y="-40" on="1"/>
      </contour>
      <contour>
        <pt x="392" y="284" on="1"/>
        <pt x="363" y="290" on="0"/>
        <pt x="344" y="290" on="1"/>
        <pt x="295" y="290" on="0"/>
        <pt x="240" y="209" on="0"/>
        <pt x="240" y="141" on="1"/>
        <pt x="240" y="99" on="0"/>
        <pt x="263" y="55" on="0"/>
        <pt x="286" y="55" on="1"/>
        <pt x="321" y="55" on="0"/>
        <pt x="379" y="160" on="0"/>
        <pt x="386" y="228" on="1"/>
      </contour>
    </TTGlyph>
    <TTGlyph name="atilde" xMin="-5" yMin="0" xMax="370" yMax="577">
      <component glyphName="a" x="0" y="0" flags="0x204"/>
      <component glyphName="uni0303" x="370" y="0" flags="0x4"/>
    </TTGlyph>
    <TTGlyph name="b" xMin="0" yMin="0" xMax="400" yMax="600">
      <contour>
        <pt x="120" y="61" on="1"/>
        <pt x="156" y="53" on="0"/>
        <pt x="192" y="53" on="1"/>
        <pt x="265" y="53" on="0"/>
        <pt x="335" y="133" on="0"/>
        <pt x="335" y="211" on="1"/>
        <pt x="335" y="282" on="0"/>
        <pt x="274" y="365" on="0"/>
        <pt x="220" y="365" on="1"/>
        <pt x="166" y="365" on="0"/>
        <pt x="120" y="324" on="1"/>
      </contour>
      <contour>
        <pt x="120" y="376" on="1"/>
        <pt x="121" y="376" on="1"/>
        <pt x="175" y="420" on="0"/>
        <pt x="240" y="420" on="1"/>
        <pt x="313" y="420" on="0"/>
        <pt x="400" y="306" on="0"/>
        <pt x="400" y="220" on="1"/>
        <pt x="400" y="123" on="0"/>
        <pt x="295" y="0" on="0"/>
        <pt x="196" y="0" on="1"/>
        <pt x="135" y="0" on="0"/>
        <pt x="60" y="19" on="1"/>
        <pt x="60" y="545" on="1"/>
        <pt x="0" y="545" on="1"/>
        <pt x="0" y="600" on="1"/>
        <pt x="120" y="600" on="1"/>
      </contour>
    </TTGlyph>
    <TTGlyph name="backslash" xMin="-40" yMin="-90" xMax="240" yMax="600">
      <contour>
        <pt x="240" y="-90" on="1"/>
        <pt x="180" y="-90" on="1"/>
        <pt x="-40" y="600" on="1"/>
        <pt x="20" y="600" on="1"/>
      </contour>
    </TTGlyph>
    <TTGlyph name="bar" xMin="60" yMin="-180" xMax="120" yMax="600">
      <contour>
        <pt x="60" y="600" on="1"/>
        <pt x="120" y="600" on="1"/>
        <pt x="120" y="-180" on="1"/>
        <pt x="60" y="-180" on="1"/>
      </contour>
    </TTGlyph>
    <TTGlyph name="braceleft" xMin="0" yMin="-180" xMax="240" yMax="600">
      <contour>
        <pt x="63" y="208" on="1"/>
        <pt x="101" y="199" on="0"/>
        <pt x="140" y="146" on="0"/>
        <pt x="140" y="98" on="1"/>
        <pt x="140" y="-72" on="1"/>
        <pt x="140" y="-102" on="0"/>
        <pt x="170" y="-125" on="0"/>
        <pt x="193" y="-125" on="1"/>
        <pt x="240" y="-125" on="1"/>
        <pt x="240" y="-180" on="1"/>
        <pt x="190" y="-180" on="1"/>
        <pt x="136" y="-180" on="0"/>
        <pt x="80" y="-126" on="0"/>
        <pt x="80" y="-69" on="1"/>
        <pt x="80" y="101" on="1"/>
        <pt x="80" y="145" on="0"/>
        <pt x="37" y="184" on="0"/>
        <pt x="0" y="184" on="1"/>
        <pt x="0" y="236" on="1"/>
        <pt x="37" y="236" on="0"/>
        <pt x="80" y="275" on="0"/>
        <pt x="80" y="320" on="1"/>
        <pt x="80" y="489" on="1"/>
        <pt x="80" y="546" on="0"/>
        <pt x="138" y="600" on="0"/>
        <pt x="192" y="600" on="1"/>
        <pt x="240" y="600" on="1"/>
        <pt x="240" y="545" on="1"/>
        <pt x="192" y="545" on="1"/>
        <pt x="168" y="545" on="0"/>
        <pt x="140" y="523" on="0"/>
        <pt x="140" y="492" on="1"/>
        <pt x="140" y="323" on="1"/>
        <pt x="140" y="274" on="0"/>
        <pt x="101" y="222" on="0"/>
        <pt x="63" y="212" on="1"/>
      </contour>
    </TTGlyph>
    <TTGlyph name="braceleft.case" xMin="0" yMin="-120" xMax="240" yMax="660">
      <component glyphName="braceleft" x="0" y="60" flags="0x204"/>
    </TTGlyph>
    <TTGlyph name="braceright" xMin="0" yMin="-180" xMax="240" yMax="600">
      <contour>
        <pt x="177" y="212" on="1"/>
        <pt x="139" y="221" on="0"/>
        <pt x="100" y="274" on="0"/>
        <pt x="100" y="322" on="1"/>
        <pt x="100" y="492" on="1"/>
        <pt x="100" y="522" on="0"/>
        <pt x="70" y="545" on="0"/>
        <pt x="47" y="545" on="1"/>
        <pt x="0" y="545" on="1"/>
        <pt x="0" y="600" on="1"/>
        <pt x="50" y="600" on="1"/>
        <pt x="104" y="600" on="0"/>
        <pt x="160" y="546" on="0"/>
        <pt x="160" y="489" on="1"/>
        <pt x="160" y="319" on="1"/>
        <pt x="160" y="275" on="0"/>
        <pt x="203" y="236" on="0"/>
        <pt x="240" y="236" on="1"/>
        <pt x="240" y="184" on="1"/>
        <pt x="203" y="184" on="0"/>
        <pt x="160" y="145" on="0"/>
        <pt x="160" y="100" on="1"/>
        <pt x="160" y="-69" on="1"/>
        <pt x="160" y="-126" on="0"/>
        <pt x="102" y="-180" on="0"/>
        <pt x="48" y="-180" on="1"/>
        <pt x="0" y="-180" on="1"/>
        <pt x="0" y="-125" on="1"/>
        <pt x="48" y="-125" on="1"/>
        <pt x="72" y="-125" on="0"/>
        <pt x="100" y="-103" on="0"/>
        <pt x="100" y="-72" on="1"/>
        <pt x="100" y="97" on="1"/>
        <pt x="100" y="146" on="0"/>
        <pt x="139" y="198" on="0"/>
        <pt x="177" y="208" on="1"/>
      </contour>
    </TTGlyph>
    <TTGlyph name="braceright.case" xMin="0" yMin="-120" xMax="240" yMax="660">
      <component glyphName="braceright" x="0" y="60" flags="0x204"/>
    </TTGlyph>
    <TTGlyph name="bracketleft" xMin="60" yMin="-180" xMax="240" yMax="600">
      <contour>
        <pt x="60" y="600" on="1"/>
        <pt x="240" y="600" on="1"/>
        <pt x="240" y="545" on="1"/>
        <pt x="120" y="545" on="1"/>
        <pt x="120" y="-125" on="1"/>
        <pt x="240" y="-125" on="1"/>
        <pt x="240" y="-180" on="1"/>
        <pt x="60" y="-180" on="1"/>
      </contour>
    </TTGlyph>
    <TTGlyph name="bracketleft.case" xMin="60" yMin="-120" xMax="240" yMax="660">
      <component glyphName="bracketleft" x="0" y="60" flags="0x204"/>
    </TTGlyph>
    <TTGlyph name="bracketright" xMin="0" yMin="-180" xMax="180" yMax="600">
      <contour>
        <pt x="180" y="-180" on="1"/>
        <pt x="0" y="-180" on="1"/>
        <pt x="0" y="-125" on="1"/>
        <pt x="120" y="-125" on="1"/>
        <pt x="120" y="545" on="1"/>
        <pt x="0" y="545" on="1"/>
        <pt x="0" y="600" on="1"/>
        <pt x="180" y="600" on="1"/>
      </contour>
    </TTGlyph>
    <TTGlyph name="bracketright.case" xMin="0" yMin="-120" xMax="180" yMax="660">
      <component glyphName="bracketright" x="0" y="60" flags="0x204"/>
    </TTGlyph>
    <TTGlyph name="breve" xMin="4" yMin="480" xMax="236" yMax="600">
      <component glyphName="uni0306" x="330" y="0" flags="0x4"/>
    </TTGlyph>
    <TTGlyph name="brokenbar" xMin="60" yMin="0" xMax="120" yMax="540">
      <contour>
        <pt x="120" y="220" on="1"/>
        <pt x="120" y="0" on="1"/>
        <pt x="60" y="0" on="1"/>
        <pt x="60" y="220" on="1"/>
      </contour>
      <contour>
        <pt x="60" y="320" on="1"/>
        <pt x="60" y="540" on="1"/>
        <pt x="120" y="540" on="1"/>
        <pt x="120" y="320" on="1"/>
      </contour>
    </TTGlyph>
    <TTGlyph name="bullet" xMin="37" yMin="190" xMax="204" yMax="360">
      <contour>
        <pt x="37" y="272" on="1"/>
        <pt x="37" y="313" on="0"/>
        <pt x="82" y="360" on="0"/>
        <pt x="122" y="360" on="1"/>
        <pt x="159" y="360" on="0"/>
        <pt x="204" y="314" on="0"/>
        <pt x="204" y="277" on="1"/>
        <pt x="204" y="236" on="0"/>
        <pt x="159" y="190" on="0"/>
        <pt x="119" y="190" on="1"/>
        <pt x="81" y="190" on="0"/>
        <pt x="37" y="236" on="0"/>
      </contour>
    </TTGlyph>
    <TTGlyph name="c" xMin="20" yMin="0" xMax="360" yMax="420">
      <contour>
        <pt x="360" y="32" on="1"/>
        <pt x="297" y="0" on="0"/>
        <pt x="224" y="0" on="1"/>
        <pt x="133" y="0" on="0"/>
        <pt x="20" y="108" on="0"/>
        <pt x="20" y="205" on="1"/>
        <pt x="20" y="307" on="0"/>
        <pt x="139" y="420" on="0"/>
        <pt x="232" y="420" on="1"/>
        <pt x="299" y="420" on="0"/>
        <pt x="360" y="394" on="1"/>
        <pt x="360" y="300" on="1"/>
        <pt x="300" y="300" on="1"/>
        <pt x="300" y="356" on="1"/>
        <pt x="271" y="366" on="0"/>
        <pt x="228" y="366" on="1"/>
        <pt x="159" y="366" on="0"/>
        <pt x="85" y="289" on="0"/>
        <pt x="85" y="217" on="1"/>
        <pt x="85" y="137" on="0"/>
        <pt x="159" y="57" on="0"/>
        <pt x="231" y="57" on="1"/>
        <pt x="296" y="57" on="0"/>
        <pt x="360" y="92" on="1"/>
      </contour>
    </TTGlyph>
    <TTGlyph name="cacute" xMin="20" yMin="0" xMax="360" yMax="600">
      <component glyphName="c" x="0" y="0" flags="0x204"/>
      <component glyphName="uni0301" x="420" y="0" flags="0x4"/>
    </TTGlyph>
    <TTGlyph name="caron" xMin="0" yMin="480" xMax="240" yMax="600">
      <component glyphName="uni030C" x="330" y="0" flags="0x4"/>
    </TTGlyph>
    <TTGlyph name="ccaron" xMin="20" yMin="0" xMax="360" yMax="600">
      <component glyphName="c" x="0" y="0" flags="0x204"/>
      <component glyphName="uni030C" x="420" y="0" flags="0x4"/>
    </TTGlyph>
    <TTGlyph name="ccedilla" xMin="20" yMin="-180" xMax="360" yMax="420">
      <component glyphName="c" x="0" y="0" flags="0x204"/>
      <component glyphName="uni0327" x="420" y="0" flags="0x4"/>
    </TTGlyph>
    <TTGlyph name="ccircumflex" xMin="20" yMin="0" xMax="360" yMax="600">
      <component glyphName="c" x="0" y="0" flags="0x204"/>
      <component glyphName="uni0302" x="420" y="0" flags="0x4"/>
    </TTGlyph>
    <TTGlyph name="cdotaccent" xMin="20" yMin="0" xMax="360" yMax="574">
      <component glyphName="c" x="0" y="0" flags="0x204"/>
      <component glyphName="uni0307" x="420" y="0" flags="0x4"/>
    </TTGlyph>
    <TTGlyph name="cedilla" xMin="22" yMin="-180" xMax="160" yMax="10">
      <component glyphName="uni0327" x="300" y="0" flags="0x4"/>
    </TTGlyph>
    <TTGlyph name="cent" xMin="20" yMin="-90" xMax="360" yMax="510">
      <contour>
        <pt x="185" y="-90" on="1"/>
        <pt x="185" y="1" on="1"/>
        <pt x="20" y="22" on="0"/>
        <pt x="20" y="208" on="1"/>
        <pt x="20" y="390" on="0"/>
        <pt x="185" y="419" on="1"/>
        <pt x="185" y="510" on="1"/>
        <pt x="240" y="510" on="1"/>
        <pt x="240" y="420" on="1"/>
        <pt x="302" y="418" on="0"/>
        <pt x="360" y="394" on="1"/>
        <pt x="360" y="300" on="1"/>
        <pt x="300" y="300" on="1"/>
        <pt x="300" y="356" on="1"/>
        <pt x="274" y="364" on="0"/>
        <pt x="240" y="366" on="1"/>
        <pt x="240" y="55" on="1"/>
        <pt x="299" y="57" on="0"/>
        <pt x="360" y="92" on="1"/>
        <pt x="360" y="32" on="1"/>
        <pt x="302" y="3" on="0"/>
        <pt x="240" y="0" on="1"/>
        <pt x="240" y="-90" on="1"/>
      </contour>
      <contour>
        <pt x="185" y="364" on="1"/>
        <pt x="85" y="347" on="0"/>
        <pt x="85" y="215" on="1"/>
        <pt x="85" y="74" on="0"/>
        <pt x="185" y="57" on="1"/>
      </contour>
    </TTGlyph>
    <TTGlyph name="circumflex" xMin="0" yMin="480" xMax="240" yMax="600">
      <component glyphName="uni0302" x="330" y="0" flags="0x4"/>
    </TTGlyph>
    <TTGlyph name="colon" xMin="70" yMin="0" xMax="171" yMax="420">
      <contour>
        <pt x="70" y="49" on="1"/>
        <pt x="70" y="73" on="0"/>
        <pt x="97" y="101" on="0"/>
        <pt x="121" y="101" on="1"/>
        <pt x="144" y="101" on="0"/>
        <pt x="171" y="74" on="0"/>
        <pt x="171" y="51" on="1"/>
        <pt x="171" y="27" on="0"/>
        <pt x="143" y="0" on="0"/>
        <pt x="119" y="0" on="1"/>
        <pt x="96" y="0" on="0"/>
        <pt x="70" y="27" on="0"/>
      </contour>
      <contour>
        <pt x="70" y="368" on="1"/>
        <pt x="70" y="392" on="0"/>
        <pt x="97" y="420" on="0"/>
        <pt x="121" y="420" on="1"/>
        <pt x="144" y="420" on="0"/>
        <pt x="171" y="393" on="0"/>
        <pt x="171" y="370" on="1"/>
        <pt x="171" y="346" on="0"/>
        <pt x="143" y="319" on="0"/>
        <pt x="119" y="319" on="1"/>
        <pt x="96" y="319" on="0"/>
        <pt x="70" y="346" on="0"/>
      </contour>
    </TTGlyph>
    <TTGlyph name="comma" xMin="20" yMin="-90" xMax="141" yMax="100">
      <contour>
        <pt x="20" y="-90" on="1"/>
        <pt x="60" y="100" on="1"/>
        <pt x="141" y="100" on="1"/>
        <pt x="76" y="-90" on="1"/>
      </contour>
    </TTGlyph>
    <TTGlyph name="copyright" xMin="25" yMin="-60" xMax="700" yMax="600">
      <contour>
        <pt x="25" y="270" on="1"/>
        <pt x="25" y="414" on="0"/>
        <pt x="214" y="600" on="0"/>
        <pt x="362" y="600" on="1"/>
        <pt x="511" y="600" on="0"/>
        <pt x="700" y="414" on="0"/>
        <pt x="700" y="270" on="1"/>
        <pt x="700" y="128" on="0"/>
        <pt x="511" y="-60" on="0"/>
        <pt x="362" y="-60" on="1"/>
        <pt x="214" y="-60" on="0"/>
        <pt x="25" y="128" on="0"/>
      </contour>
      <contour>
        <pt x="80" y="270" on="1"/>
        <pt x="80" y="148" on="0"/>
        <pt x="232" y="-10" on="0"/>
        <pt x="363" y="-10" on="1"/>
        <pt x="493" y="-10" on="0"/>
        <pt x="645" y="148" on="0"/>
        <pt x="645" y="270" on="1"/>
        <pt x="645" y="395" on="0"/>
        <pt x="493" y="549" on="0"/>
        <pt x="363" y="549" on="1"/>
        <pt x="232" y="549" on="0"/>
        <pt x="80" y="395" on="0"/>
      </contour>
      <contour>
        <pt x="500" y="107" on="1"/>
        <pt x="441" y="70" on="0"/>
        <pt x="365" y="70" on="1"/>
        <pt x="269" y="70" on="0"/>
        <pt x="160" y="178" on="0"/>
        <pt x="160" y="267" on="1"/>
        <pt x="160" y="363" on="0"/>
        <pt x="277" y="470" on="0"/>
        <pt x="373" y="470" on="1"/>
        <pt x="437" y="470" on="0"/>
        <pt x="500" y="444" on="1"/>
        <pt x="500" y="330" on="1"/>
        <pt x="445" y="330" on="1"/>
        <pt x="445" y="409" on="1"/>
        <pt x="409" y="420" on="0"/>
        <pt x="370" y="420" on="1"/>
        <pt x="299" y="420" on="0"/>
        <pt x="220" y="345" on="0"/>
        <pt x="220" y="273" on="1"/>
        <pt x="220" y="201" on="0"/>
        <pt x="300" y="120" on="0"/>
        <pt x="370" y="120" on="1"/>
        <pt x="438" y="120" on="0"/>
        <pt x="500" y="160" on="1"/>
      </contour>
    </TTGlyph>
    <TTGlyph name="currency" xMin="0" yMin="18" xMax="420" yMax="437">
      <contour>
        <pt x="378" y="437" on="1"/>
        <pt x="420" y="395" on="1"/>
        <pt x="344" y="319" on="1"/>
        <pt x="370" y="280" on="0"/>
        <pt x="370" y="227" on="1"/>
        <pt x="370" y="174" on="0"/>
        <pt x="344" y="135" on="1"/>
        <pt x="420" y="60" on="1"/>
        <pt x="378" y="18" on="1"/>
        <pt x="302" y="93" on="1"/>
        <pt x="263" y="67" on="0"/>
        <pt x="210" y="67" on="1"/>
        <pt x="156" y="67" on="0"/>
        <pt x="118" y="93" on="1"/>
        <pt x="42" y="18" on="1"/>
        <pt x="0" y="60" on="1"/>
        <pt x="76" y="135" on="1"/>
        <pt x="50" y="174" on="0"/>
        <pt x="50" y="280" on="0"/>
        <pt x="76" y="319" on="1"/>
        <pt x="0" y="395" on="1"/>
        <pt x="42" y="437" on="1"/>
        <pt x="118" y="361" on="1"/>
        <pt x="157" y="387" on="0"/>
        <pt x="210" y="387" on="1"/>
        <pt x="263" y="387" on="0"/>
        <pt x="302" y="361" on="1"/>
      </contour>
      <contour>
        <pt x="110" y="227" on="1"/>
        <pt x="110" y="180" on="0"/>
        <pt x="163" y="121" on="0"/>
        <pt x="210" y="121" on="1"/>
        <pt x="256" y="121" on="0"/>
        <pt x="310" y="180" on="0"/>
        <pt x="310" y="227" on="1"/>
        <pt x="310" y="276" on="0"/>
        <pt x="256" y="332" on="0"/>
        <pt x="210" y="332" on="1"/>
        <pt x="163" y="332" on="0"/>
        <pt x="110" y="276" on="0"/>
      </contour>
    </TTGlyph>
    <TTGlyph name="d" xMin="20" yMin="0" xMax="420" yMax="600">
      <contour>
        <pt x="240" y="545" on="1"/>
        <pt x="240" y="600" on="1"/>
        <pt x="360" y="600" on="1"/>
        <pt x="360" y="55" on="1"/>
        <pt x="420" y="55" on="1"/>
        <pt x="420" y="0" on="1"/>
        <pt x="304" y="0" on="1"/>
        <pt x="300" y="51" on="1"/>
        <pt x="298" y="51" on="1"/>
        <pt x="250" y="0" on="0"/>
        <pt x="188" y="0" on="1"/>
        <pt x="115" y="0" on="0"/>
        <pt x="20" y="114" on="0"/>
        <pt x="20" y="202" on="1"/>
        <pt x="20" y="301" on="0"/>
        <pt x="125" y="420" on="0"/>
        <pt x="208" y="420" on="1"/>
        <pt x="254" y="420" on="0"/>
        <pt x="298" y="401" on="1"/>
        <pt x="300" y="401" on="1"/>
        <pt x="300" y="545" on="1"/>
      </contour>
      <contour>
        <pt x="300" y="347" on="1"/>
        <pt x="259" y="365" on="0"/>
        <pt x="212" y="365" on="1"/>
        <pt x="149" y="365" on="0"/>
        <pt x="85" y="288" on="0"/>
        <pt x="85" y="211" on="1"/>
        <pt x="85" y="135" on="0"/>
        <pt x="146" y="55" on="0"/>
        <pt x="202" y="55" on="1"/>
        <pt x="261" y="55" on="0"/>
        <pt x="300" y="102" on="1"/>
      </contour>
    </TTGlyph>
    <TTGlyph name="dagger" xMin="20" yMin="-120" xMax="400" yMax="600">
      <contour>
        <pt x="240" y="420" on="1"/>
        <pt x="400" y="420" on="1"/>
        <pt x="400" y="365" on="1"/>
        <pt x="240" y="365" on="1"/>
        <pt x="240" y="-120" on="1"/>
        <pt x="180" y="-120" on="1"/>
        <pt x="180" y="365" on="1"/>
        <pt x="20" y="365" on="1"/>
        <pt x="20" y="420" on="1"/>
        <pt x="180" y="420" on="1"/>
        <pt x="180" y="600" on="1"/>
        <pt x="240" y="600" on="1"/>
      </contour>
    </TTGlyph>
    <TTGlyph name="daggerdbl" xMin="20" yMin="-120" xMax="400" yMax="600">
      <contour>
        <pt x="180" y="60" on="1"/>
        <pt x="20" y="60" on="1"/>
        <pt x="20" y="115" on="1"/>
        <pt x="180" y="115" on="1"/>
        <pt x="180" y="365" on="1"/>
        <pt x="20" y="365" on="1"/>
        <pt x="20" y="420" on="1"/>
        <pt x="180" y="420" on="1"/>
        <pt x="180" y="600" on="1"/>
        <pt x="240" y="600" on="1"/>
        <pt x="240" y="420" on="1"/>
        <pt x="400" y="420" on="1"/>
        <pt x="400" y="365" on="1"/>
        <pt x="240" y="365" on="1"/>
        <pt x="240" y="115" on="1"/>
        <pt x="400" y="115" on="1"/>
        <pt x="400" y="60" on="1"/>
        <pt x="240" y="60" on="1"/>
        <pt x="240" y="-120" on="1"/>
        <pt x="180" y="-120" on="1"/>
      </contour>
    </TTGlyph>
    <TTGlyph name="dcaron" xMin="20" yMin="0" xMax="505" yMax="600">
      <component glyphName="d" x="0" y="0" flags="0x4"/>
      <component glyphName="uni0315" x="480" y="0" flags="0x4"/>
    </TTGlyph>
    <TTGlyph name="dcroat" xMin="20" yMin="0" xMax="420" yMax="600">
      <contour>
        <pt x="360" y="600" on="1"/>
        <pt x="360" y="530" on="1"/>
        <pt x="420" y="530" on="1"/>
        <pt x="420" y="480" on="1"/>
        <pt x="360" y="480" on="1"/>
        <pt x="360" y="55" on="1"/>
        <pt x="420" y="55" on="1"/>
        <pt x="420" y="0" on="1"/>
        <pt x="304" y="0" on="1"/>
        <pt x="300" y="51" on="1"/>
        <pt x="298" y="51" on="1"/>
        <pt x="250" y="0" on="0"/>
        <pt x="188" y="0" on="1"/>
        <pt x="115" y="0" on="0"/>
        <pt x="20" y="113" on="0"/>
        <pt x="20" y="200" on="1"/>
        <pt x="20" y="297" on="0"/>
        <pt x="125" y="415" on="0"/>
        <pt x="208" y="415" on="1"/>
        <pt x="254" y="415" on="0"/>
        <pt x="298" y="396" on="1"/>
        <pt x="300" y="396" on="1"/>
        <pt x="300" y="480" on="1"/>
        <pt x="180" y="480" on="1"/>
        <pt x="180" y="530" on="1"/>
        <pt x="300" y="530" on="1"/>
        <pt x="300" y="600" on="1"/>
      </contour>
      <contour>
        <pt x="300" y="342" on="1"/>
        <pt x="259" y="360" on="0"/>
        <pt x="212" y="360" on="1"/>
        <pt x="149" y="360" on="0"/>
        <pt x="85" y="284" on="0"/>
        <pt x="85" y="208" on="1"/>
        <pt x="85" y="134" on="0"/>
        <pt x="146" y="55" on="0"/>
        <pt x="202" y="55" on="1"/>
        <pt x="261" y="55" on="0"/>
        <pt x="300" y="102" on="1"/>
      </contour>
    </TTGlyph>
    <TTGlyph name="degree" xMin="0" yMin="300" xMax="240" yMax="540">
      <contour>
        <pt x="0" y="420" on="1"/>
        <pt x="0" y="473" on="0"/>
        <pt x="67" y="540" on="0"/>
        <pt x="120" y="540" on="1"/>
        <pt x="173" y="540" on="0"/>
        <pt x="240" y="473" on="0"/>
        <pt x="240" y="420" on="1"/>
        <pt x="240" y="368" on="0"/>
        <pt x="173" y="300" on="0"/>
        <pt x="120" y="300" on="1"/>
        <pt x="67" y="300" on="0"/>
        <pt x="0" y="368" on="0"/>
      </contour>
      <contour>
        <pt x="55" y="420" on="1"/>
        <pt x="55" y="389" on="0"/>
        <pt x="90" y="350" on="0"/>
        <pt x="120" y="350" on="1"/>
        <pt x="150" y="350" on="0"/>
        <pt x="185" y="389" on="0"/>
        <pt x="185" y="420" on="1"/>
        <pt x="185" y="452" on="0"/>
        <pt x="150" y="490" on="0"/>
        <pt x="120" y="490" on="1"/>
        <pt x="90" y="490" on="0"/>
        <pt x="55" y="452" on="0"/>
      </contour>
    </TTGlyph>
    <TTGlyph name="dieresis" xMin="-10" yMin="480" xMax="250" yMax="569">
      <component glyphName="uni0308" x="330" y="0" flags="0x4"/>
    </TTGlyph>
    <TTGlyph name="divide" xMin="0" yMin="20" xMax="420" yMax="435">
      <contour>
        <pt x="162" y="66" on="1"/>
        <pt x="162" y="90" on="0"/>
        <pt x="188" y="117" on="0"/>
        <pt x="211" y="117" on="1"/>
        <pt x="233" y="117" on="0"/>
        <pt x="259" y="91" on="0"/>
        <pt x="259" y="69" on="1"/>
        <pt x="259" y="46" on="0"/>
        <pt x="232" y="20" on="0"/>
        <pt x="209" y="20" on="1"/>
        <pt x="187" y="20" on="0"/>
        <pt x="162" y="46" on="0"/>
      </contour>
      <contour>
        <pt x="0" y="200" on="1"/>
        <pt x="0" y="255" on="1"/>
        <pt x="420" y="255" on="1"/>
        <pt x="420" y="200" on="1"/>
      </contour>
      <contour>
        <pt x="162" y="384" on="1"/>
        <pt x="162" y="408" on="0"/>
        <pt x="188" y="435" on="0"/>
        <pt x="211" y="435" on="1"/>
        <pt x="233" y="435" on="0"/>
        <pt x="259" y="409" on="0"/>
        <pt x="259" y="387" on="1"/>
        <pt x="259" y="364" on="0"/>
        <pt x="232" y="338" on="0"/>
        <pt x="209" y="338" on="1"/>
        <pt x="187" y="338" on="0"/>
        <pt x="162" y="364" on="0"/>
      </contour>
    </TTGlyph>
    <TTGlyph name="dollar" xMin="-5" yMin="-90" xMax="365" yMax="630">
      <contour>
        <pt x="145" y="-90" on="1"/>
        <pt x="145" y="0" on="1"/>
        <pt x="71" y="2" on="0"/>
        <pt x="0" y="31" on="1"/>
        <pt x="0" y="140" on="1"/>
        <pt x="60" y="140" on="1"/>
        <pt x="60" y="69" on="1"/>
        <pt x="99" y="56" on="0"/>
        <pt x="145" y="55" on="1"/>
        <pt x="145" y="246" on="1"/>
        <pt x="71" y="268" on="0"/>
        <pt x="-5" y="338" on="0"/>
        <pt x="-5" y="397" on="1"/>
        <pt x="-5" y="455" on="0"/>
        <pt x="69" y="531" on="0"/>
        <pt x="145" y="540" on="1"/>
        <pt x="145" y="630" on="1"/>
        <pt x="200" y="630" on="1"/>
        <pt x="200" y="540" on="1"/>
        <pt x="275" y="537" on="0"/>
        <pt x="340" y="508" on="1"/>
        <pt x="340" y="400" on="1"/>
        <pt x="280" y="400" on="1"/>
        <pt x="280" y="471" on="1"/>
        <pt x="244" y="483" on="0"/>
        <pt x="200" y="485" on="1"/>
        <pt x="200" y="298" on="1"/>
        <pt x="287" y="273" on="0"/>
        <pt x="365" y="202" on="0"/>
        <pt x="365" y="147" on="1"/>
        <pt x="365" y="79" on="0"/>
        <pt x="279" y="7" on="0"/>
        <pt x="200" y="0" on="1"/>
        <pt x="200" y="-90" on="1"/>
      </contour>
      <contour>
        <pt x="300" y="140" on="1"/>
        <pt x="300" y="206" on="0"/>
        <pt x="200" y="232" on="1"/>
        <pt x="200" y="55" on="1"/>
        <pt x="300" y="65" on="0"/>
      </contour>
      <contour>
        <pt x="60" y="402" on="1"/>
        <pt x="60" y="338" on="0"/>
        <pt x="145" y="313" on="1"/>
        <pt x="145" y="485" on="1"/>
        <pt x="60" y="475" on="0"/>
      </contour>
    </TTGlyph>
    <TTGlyph name="dotaccent" xMin="15" yMin="480" xMax="105" yMax="574">
      <component glyphName="uni0307" x="270" y="0" flags="0x4"/>
    </TTGlyph>
    <TTGlyph name="dotlessi" xMin="0" yMin="0" xMax="180" yMax="420">
      <contour>
        <pt x="0" y="55" on="1"/>
        <pt x="60" y="55" on="1"/>
        <pt x="60" y="365" on="1"/>
        <pt x="0" y="365" on="1"/>
        <pt x="0" y="420" on="1"/>
        <pt x="120" y="420" on="1"/>
        <pt x="120" y="55" on="1"/>
        <pt x="180" y="55" on="1"/>
        <pt x="180" y="0" on="1"/>
        <pt x="0" y="0" on="1"/>
      </contour>
    </TTGlyph>
    <TTGlyph name="e" xMin="20" yMin="0" xMax="360" yMax="420">
      <contour>
        <pt x="222" y="55" on="1"/>
        <pt x="287" y="55" on="0"/>
        <pt x="350" y="96" on="1"/>
        <pt x="350" y="37" on="1"/>
        <pt x="285" y="0" on="0"/>
        <pt x="214" y="0" on="1"/>
        <pt x="124" y="0" on="0"/>
        <pt x="20" y="113" on="0"/>
        <pt x="20" y="204" on="1"/>
        <pt x="20" y="306" on="0"/>
        <pt x="123" y="420" on="0"/>
        <pt x="207" y="420" on="1"/>
        <pt x="280" y="420" on="0"/>
        <pt x="360" y="321" on="0"/>
        <pt x="360" y="233" on="1"/>
        <pt x="360" y="202" on="1"/>
        <pt x="85" y="202" on="1"/>
        <pt x="88" y="133" on="0"/>
        <pt x="153" y="55" on="0"/>
      </contour>
      <contour>
        <pt x="300" y="257" on="1"/>
        <pt x="295" y="365" on="0"/>
        <pt x="200" y="365" on="1"/>
        <pt x="150" y="365" on="0"/>
        <pt x="95" y="308" on="0"/>
        <pt x="88" y="257" on="1"/>
      </contour>
    </TTGlyph>
    <TTGlyph name="eacute" xMin="20" yMin="0" xMax="360" yMax="600">
      <component glyphName="e" x="0" y="0" flags="0x204"/>
      <component glyphName="uni0301" x="420" y="0" flags="0x4"/>
    </TTGlyph>
    <TTGlyph name="ebreve" xMin="20" yMin="0" xMax="360" yMax="600">
      <component glyphName="e" x="0" y="0" flags="0x204"/>
      <component glyphName="uni0306" x="420" y="0" flags="0x4"/>
    </TTGlyph>
    <TTGlyph name="ecaron" xMin="20" yMin="0" xMax="360" yMax="600">
      <component glyphName="e" x="0" y="0" flags="0x204"/>
      <component glyphName="uni030C" x="420" y="0" flags="0x4"/>
    </TTGlyph>
    <TTGlyph name="ecircumflex" xMin="20" yMin="0" xMax="360" yMax="600">
      <component glyphName="e" x="0" y="0" flags="0x204"/>
      <component glyphName="uni0302" x="420" y="0" flags="0x4"/>
    </TTGlyph>
    <TTGlyph name="edieresis" xMin="20" yMin="0" xMax="360" yMax="569">
      <component glyphName="e" x="0" y="0" flags="0x204"/>
      <component glyphName="uni0308" x="420" y="0" flags="0x4"/>
    </TTGlyph>
    <TTGlyph name="edotaccent" xMin="20" yMin="0" xMax="360" yMax="574">
      <component glyphName="e" x="0" y="0" flags="0x204"/>
      <component glyphName="uni0307" x="420" y="0" flags="0x4"/>
    </TTGlyph>
    <TTGlyph name="egrave" xMin="20" yMin="0" xMax="360" yMax="600">
      <component glyphName="e" x="0" y="0" flags="0x204"/>
      <component glyphName="uni0300" x="420" y="0" flags="0x4"/>
    </TTGlyph>
    <TTGlyph name="eight" xMin="20" yMin="0" xMax="400" yMax="600">
      <contour>
        <pt x="274" y="312" on="1"/>
        <pt x="338" y="281" on="0"/>
        <pt x="400" y="206" on="0"/>
        <pt x="400" y="157" on="1"/>
        <pt x="400" y="89" on="0"/>
        <pt x="290" y="0" on="0"/>
        <pt x="204" y="0" on="1"/>
        <pt x="120" y="0" on="0"/>
        <pt x="20" y="85" on="0"/>
        <pt x="20" y="150" on="1"/>
        <pt x="20" y="251" on="0"/>
        <pt x="141" y="310" on="1"/>
        <pt x="141" y="312" on="1"/>
        <pt x="85" y="341" on="0"/>
        <pt x="30" y="411" on="0"/>
        <pt x="30" y="455" on="1"/>
        <pt x="30" y="518" on="0"/>
        <pt x="135" y="600" on="0"/>
        <pt x="217" y="600" on="1"/>
        <pt x="294" y="600" on="0"/>
        <pt x="390" y="524" on="0"/>
        <pt x="390" y="463" on="1"/>
        <pt x="390" y="373" on="0"/>
        <pt x="274" y="314" on="1"/>
      </contour>
      <contour>
        <pt x="85" y="154" on="1"/>
        <pt x="85" y="108" on="0"/>
        <pt x="148" y="55" on="0"/>
        <pt x="207" y="55" on="1"/>
        <pt x="267" y="55" on="0"/>
        <pt x="335" y="109" on="0"/>
        <pt x="335" y="148" on="1"/>
        <pt x="335" y="191" on="0"/>
        <pt x="269" y="250" on="0"/>
        <pt x="187" y="288" on="1"/>
        <pt x="85" y="239" on="0"/>
      </contour>
      <contour>
        <pt x="328" y="458" on="1"/>
        <pt x="328" y="498" on="0"/>
        <pt x="263" y="545" on="0"/>
        <pt x="210" y="545" on="1"/>
        <pt x="158" y="545" on="0"/>
        <pt x="92" y="500" on="0"/>
        <pt x="92" y="465" on="1"/>
        <pt x="92" y="424" on="0"/>
        <pt x="164" y="365" on="0"/>
        <pt x="230" y="334" on="1"/>
        <pt x="328" y="381" on="0"/>
      </contour>
    </TTGlyph>
    <TTGlyph name="ellipsis" xMin="40" yMin="0" xMax="502" yMax="101">
      <contour>
        <pt x="40" y="49" on="1"/>
        <pt x="40" y="73" on="0"/>
        <pt x="67" y="101" on="0"/>
        <pt x="91" y="101" on="1"/>
        <pt x="114" y="101" on="0"/>
        <pt x="141" y="74" on="0"/>
        <pt x="141" y="51" on="1"/>
        <pt x="141" y="27" on="0"/>
        <pt x="113" y="0" on="0"/>
        <pt x="89" y="0" on="1"/>
        <pt x="66" y="0" on="0"/>
        <pt x="40" y="27" on="0"/>
      </contour>
      <contour>
        <pt x="220" y="49" on="1"/>
        <pt x="220" y="73" on="0"/>
        <pt x="248" y="101" on="0"/>
        <pt x="272" y="101" on="1"/>
        <pt x="294" y="101" on="0"/>
        <pt x="322" y="74" on="0"/>
        <pt x="322" y="51" on="1"/>
        <pt x="322" y="27" on="0"/>
        <pt x="294" y="0" on="0"/>
        <pt x="270" y="0" on="1"/>
        <pt x="247" y="0" on="0"/>
        <pt x="220" y="27" on="0"/>
      </contour>
      <contour>
        <pt x="401" y="49" on="1"/>
        <pt x="401" y="73" on="0"/>
        <pt x="428" y="101" on="0"/>
        <pt x="452" y="101" on="1"/>
        <pt x="475" y="101" on="0"/>
        <pt x="502" y="74" on="0"/>
        <pt x="502" y="51" on="1"/>
        <pt x="502" y="27" on="0"/>
        <pt x="474" y="0" on="0"/>
        <pt x="450" y="0" on="1"/>
        <pt x="428" y="0" on="0"/>
        <pt x="401" y="27" on="0"/>
      </contour>
    </TTGlyph>
    <TTGlyph name="emacron" xMin="20" yMin="0" xMax="360" yMax="530">
      <component glyphName="e" x="0" y="0" flags="0x204"/>
      <component glyphName="uni0304" x="420" y="0" flags="0x4"/>
    </TTGlyph>
    <TTGlyph name="emdash" xMin="0" yMin="185" xMax="720" yMax="240">
      <contour>
        <pt x="0" y="240" on="1"/>
        <pt x="720" y="240" on="1"/>
        <pt x="720" y="185" on="1"/>
        <pt x="0" y="185" on="1"/>
      </contour>
    </TTGlyph>
    <TTGlyph name="emdash.case" xMin="0" yMin="255" xMax="720" yMax="310">
      <component glyphName="emdash" x="0" y="70" flags="0x204"/>
    </TTGlyph>
    <TTGlyph name="endash" xMin="0" yMin="185" xMax="360" yMax="240">
      <contour>
        <pt x="0" y="240" on="1"/>
        <pt x="360" y="240" on="1"/>
        <pt x="360" y="185" on="1"/>
        <pt x="0" y="185" on="1"/>
      </contour>
    </TTGlyph>
    <TTGlyph name="endash.case" xMin="0" yMin="255" xMax="360" yMax="310">
      <component glyphName="endash" x="0" y="70" flags="0x204"/>
    </TTGlyph>
    <TTGlyph name="eng" xMin="0" yMin="-180" xMax="370" yMax="420">
      <contour>
        <pt x="310" y="-32" on="1"/>
        <pt x="310" y="285" on="1"/>
        <pt x="310" y="330" on="0"/>
        <pt x="270" y="365" on="0"/>
        <pt x="237" y="365" on="1"/>
        <pt x="170" y="365" on="0"/>
        <pt x="120" y="301" on="1"/>
        <pt x="120" y="55" on="1"/>
        <pt x="180" y="55" on="1"/>
        <pt x="180" y="0" on="1"/>
        <pt x="0" y="0" on="1"/>
        <pt x="0" y="55" on="1"/>
        <pt x="60" y="55" on="1"/>
        <pt x="60" y="365" on="1"/>
        <pt x="0" y="365" on="1"/>
        <pt x="0" y="420" on="1"/>
        <pt x="117" y="420" on="1"/>
        <pt x="120" y="361" on="1"/>
        <pt x="121" y="361" on="1"/>
        <pt x="178" y="420" on="0"/>
        <pt x="253" y="420" on="1"/>
        <pt x="313" y="420" on="0"/>
        <pt x="370" y="352" on="0"/>
        <pt x="370" y="292" on="1"/>
        <pt x="370" y="-28" on="1"/>
        <pt x="370" y="-111" on="0"/>
        <pt x="315" y="-180" on="0"/>
        <pt x="261" y="-180" on="1"/>
        <pt x="245" y="-180" on="0"/>
        <pt x="230" y="-177" on="1"/>
        <pt x="230" y="-124" on="1"/>
        <pt x="238" y="-125" on="0"/>
        <pt x="250" y="-125" on="1"/>
        <pt x="286" y="-125" on="0"/>
        <pt x="310" y="-80" on="0"/>
      </contour>
    </TTGlyph>
    <TTGlyph name="eogonek" xMin="20" yMin="-180" xMax="360" yMax="420">
      <contour>
        <pt x="350" y="37" on="1"/>
        <pt x="270" y="-27" on="0"/>
        <pt x="270" y="-86" on="1"/>
        <pt x="270" y="-106" on="0"/>
        <pt x="291" y="-125" on="0"/>
        <pt x="307" y="-125" on="1"/>
        <pt x="328" y="-125" on="0"/>
        <pt x="350" y="-114" on="1"/>
        <pt x="350" y="-165" on="1"/>
        <pt x="324" y="-180" on="0"/>
        <pt x="293" y="-180" on="1"/>
        <pt x="259" y="-180" on="0"/>
        <pt x="210" y="-140" on="0"/>
        <pt x="210" y="-104" on="1"/>
        <pt x="210" y="-47" on="0"/>
        <pt x="271" y="6" on="1"/>
        <pt x="270" y="8" on="1"/>
        <pt x="244" y="0" on="0"/>
        <pt x="213" y="0" on="1"/>
        <pt x="124" y="0" on="0"/>
        <pt x="20" y="113" on="0"/>
        <pt x="20" y="204" on="1"/>
        <pt x="20" y="306" on="0"/>
        <pt x="123" y="420" on="0"/>
        <pt x="207" y="420" on="1"/>
        <pt x="280" y="420" on="0"/>
        <pt x="360" y="321" on="0"/>
        <pt x="360" y="233" on="1"/>
        <pt x="360" y="202" on="1"/>
        <pt x="85" y="202" on="1"/>
        <pt x="88" y="133" on="0"/>
        <pt x="153" y="55" on="0"/>
        <pt x="222" y="55" on="1"/>
        <pt x="287" y="55" on="0"/>
        <pt x="350" y="96" on="1"/>
      </contour>
      <contour>
        <pt x="300" y="257" on="1"/>
        <pt x="295" y="365" on="0"/>
        <pt x="200" y="365" on="1"/>
        <pt x="150" y="365" on="0"/>
        <pt x="95" y="308" on="0"/>
        <pt x="88" y="257" on="1"/>
      </contour>
    </TTGlyph>
    <TTGlyph name="equal" xMin="0" yMin="125" xMax="420" yMax="330">
      <contour>
        <pt x="0" y="275" on="1"/>
        <pt x="0" y="330" on="1"/>
        <pt x="420" y="330" on="1"/>
        <pt x="420" y="275" on="1"/>
      </contour>
      <contour>
        <pt x="0" y="125" on="1"/>
        <pt x="0" y="180" on="1"/>
        <pt x="420" y="180" on="1"/>
        <pt x="420" y="125" on="1"/>
      </contour>
    </TTGlyph>
    <TTGlyph name="eth" xMin="20" yMin="0" xMax="400" yMax="600">
      <contour>
        <pt x="137" y="458" on="1"/>
        <pt x="207" y="511" on="1"/>
        <pt x="148" y="543" on="0"/>
        <pt x="60" y="545" on="1"/>
        <pt x="60" y="600" on="1"/>
        <pt x="179" y="597" on="0"/>
        <pt x="255" y="546" on="1"/>
        <pt x="326" y="600" on="1"/>
        <pt x="357" y="562" on="1"/>
        <pt x="294" y="515" on="1"/>
        <pt x="400" y="417" on="0"/>
        <pt x="400" y="245" on="1"/>
        <pt x="400" y="131" on="0"/>
        <pt x="301" y="0" on="0"/>
        <pt x="209" y="0" on="1"/>
        <pt x="124" y="0" on="0"/>
        <pt x="20" y="109" on="0"/>
        <pt x="20" y="190" on="1"/>
        <pt x="20" y="277" on="0"/>
        <pt x="130" y="378" on="0"/>
        <pt x="220" y="378" on="1"/>
        <pt x="271" y="378" on="0"/>
        <pt x="318" y="356" on="1"/>
        <pt x="320" y="357" on="1"/>
        <pt x="301" y="436" on="0"/>
        <pt x="249" y="480" on="1"/>
        <pt x="168" y="419" on="1"/>
      </contour>
      <contour>
        <pt x="216" y="325" on="1"/>
        <pt x="150" y="325" on="0"/>
        <pt x="85" y="260" on="0"/>
        <pt x="85" y="194" on="1"/>
        <pt x="85" y="130" on="0"/>
        <pt x="155" y="55" on="0"/>
        <pt x="213" y="55" on="1"/>
        <pt x="274" y="55" on="0"/>
        <pt x="335" y="136" on="0"/>
        <pt x="335" y="237" on="1"/>
        <pt x="335" y="270" on="0"/>
        <pt x="331" y="299" on="1"/>
        <pt x="276" y="325" on="0"/>
      </contour>
    </TTGlyph>
    <TTGlyph name="exclam" xMin="40" yMin="0" xMax="141" yMax="540">
      <contour>
        <pt x="50" y="540" on="1"/>
        <pt x="130" y="540" on="1"/>
        <pt x="115" y="170" on="1"/>
        <pt x="65" y="170" on="1"/>
      </contour>
      <contour>
        <pt x="40" y="49" on="1"/>
        <pt x="40" y="73" on="0"/>
        <pt x="67" y="101" on="0"/>
        <pt x="91" y="101" on="1"/>
        <pt x="114" y="101" on="0"/>
        <pt x="141" y="74" on="0"/>
        <pt x="141" y="51" on="1"/>
        <pt x="141" y="27" on="0"/>
        <pt x="113" y="0" on="0"/>
        <pt x="89" y="0" on="1"/>
        <pt x="66" y="0" on="0"/>
        <pt x="40" y="27" on="0"/>
      </contour>
    </TTGlyph>
    <TTGlyph name="exclamdown" xMin="39" yMin="-120" xMax="140" yMax="420">
      <contour>
        <pt x="130" y="-120" on="1"/>
        <pt x="50" y="-120" on="1"/>
        <pt x="65" y="250" on="1"/>
        <pt x="115" y="250" on="1"/>
      </contour>
      <contour>
        <pt x="140" y="371" on="1"/>
        <pt x="140" y="347" on="0"/>
        <pt x="113" y="319" on="0"/>
        <pt x="89" y="319" on="1"/>
        <pt x="66" y="319" on="0"/>
        <pt x="39" y="346" on="0"/>
        <pt x="39" y="369" on="1"/>
        <pt x="39" y="393" on="0"/>
        <pt x="67" y="420" on="0"/>
        <pt x="91" y="420" on="1"/>
        <pt x="114" y="420" on="0"/>
        <pt x="140" y="393" on="0"/>
      </contour>
    </TTGlyph>
    <TTGlyph name="exclamdown.case" xMin="39" yMin="0" xMax="140" yMax="540">
      <component glyphName="exclamdown" x="0" y="120" flags="0x204"/>
    </TTGlyph>
    <TTGlyph name="f" xMin="0" yMin="0" xMax="300" yMax="600">
      <contour>
        <pt x="300" y="480" on="1"/>
        <pt x="245" y="480" on="1"/>
        <pt x="245" y="539" on="1"/>
        <pt x="225" y="545" on="0"/>
        <pt x="202" y="545" on="1"/>
        <pt x="159" y="545" on="0"/>
        <pt x="120" y="497" on="0"/>
        <pt x="120" y="452" on="1"/>
        <pt x="120" y="420" on="1"/>
        <pt x="220" y="420" on="1"/>
        <pt x="220" y="365" on="1"/>
        <pt x="120" y="365" on="1"/>
        <pt x="120" y="55" on="1"/>
        <pt x="180" y="55" on="1"/>
        <pt x="180" y="0" on="1"/>
        <pt x="0" y="0" on="1"/>
        <pt x="0" y="55" on="1"/>
        <pt x="60" y="55" on="1"/>
        <pt x="60" y="365" on="1"/>
        <pt x="0" y="365" on="1"/>
        <pt x="0" y="420" on="1"/>
        <pt x="60" y="420" on="1"/>
        <pt x="60" y="442" on="1"/>
        <pt x="60" y="522" on="0"/>
        <pt x="135" y="600" on="0"/>
        <pt x="201" y="600" on="1"/>
        <pt x="252" y="600" on="0"/>
        <pt x="300" y="579" on="1"/>
      </contour>
    </TTGlyph>
    <TTGlyph name="f.alt" xMin="0" yMin="0" xMax="260" yMax="600">
      <contour>
        <pt x="260" y="480" on="1"/>
        <pt x="205" y="480" on="1"/>
        <pt x="205" y="544" on="1"/>
        <pt x="199" y="545" on="0"/>
        <pt x="189" y="545" on="1"/>
        <pt x="153" y="545" on="0"/>
        <pt x="120" y="503" on="0"/>
        <pt x="120" y="452" on="1"/>
        <pt x="120" y="420" on="1"/>
        <pt x="220" y="420" on="1"/>
        <pt x="220" y="365" on="1"/>
        <pt x="120" y="365" on="1"/>
        <pt x="120" y="55" on="1"/>
        <pt x="180" y="55" on="1"/>
        <pt x="180" y="0" on="1"/>
        <pt x="0" y="0" on="1"/>
        <pt x="0" y="55" on="1"/>
        <pt x="60" y="55" on="1"/>
        <pt x="60" y="365" on="1"/>
        <pt x="0" y="365" on="1"/>
        <pt x="0" y="420" on="1"/>
        <pt x="60" y="420" on="1"/>
        <pt x="60" y="442" on="1"/>
        <pt x="60" y="522" on="0"/>
        <pt x="126" y="600" on="0"/>
        <pt x="186" y="600" on="1"/>
        <pt x="222" y="600" on="0"/>
        <pt x="260" y="588" on="1"/>
      </contour>
    </TTGlyph>
    <TTGlyph name="f_b" xMin="0" yMin="0" xMax="640" yMax="600">
      <contour>
        <pt x="350" y="600" on="1"/>
        <pt x="360" y="600" on="1"/>
        <pt x="360" y="376" on="1"/>
        <pt x="361" y="376" on="1"/>
        <pt x="415" y="420" on="0"/>
        <pt x="480" y="420" on="1"/>
        <pt x="553" y="420" on="0"/>
        <pt x="640" y="306" on="0"/>
        <pt x="640" y="220" on="1"/>
        <pt x="640" y="123" on="0"/>
        <pt x="535" y="0" on="0"/>
        <pt x="436" y="0" on="1"/>
        <pt x="375" y="0" on="0"/>
        <pt x="300" y="19" on="1"/>
        <pt x="300" y="536" on="1"/>
        <pt x="263" y="545" on="0"/>
        <pt x="218" y="545" on="1"/>
        <pt x="167" y="545" on="0"/>
        <pt x="120" y="497" on="0"/>
        <pt x="120" y="452" on="1"/>
        <pt x="120" y="420" on="1"/>
        <pt x="220" y="420" on="1"/>
        <pt x="220" y="365" on="1"/>
        <pt x="120" y="365" on="1"/>
        <pt x="120" y="55" on="1"/>
        <pt x="180" y="55" on="1"/>
        <pt x="180" y="0" on="1"/>
        <pt x="0" y="0" on="1"/>
        <pt x="0" y="55" on="1"/>
        <pt x="60" y="55" on="1"/>
        <pt x="60" y="365" on="1"/>
        <pt x="0" y="365" on="1"/>
        <pt x="0" y="420" on="1"/>
        <pt x="60" y="420" on="1"/>
        <pt x="60" y="442" on="1"/>
        <pt x="60" y="522" on="0"/>
        <pt x="144" y="600" on="0"/>
        <pt x="217" y="600" on="1"/>
        <pt x="259" y="600" on="0"/>
        <pt x="300" y="591" on="1"/>
      </contour>
      <contour>
        <pt x="360" y="61" on="1"/>
        <pt x="396" y="53" on="0"/>
        <pt x="432" y="53" on="1"/>
        <pt x="505" y="53" on="0"/>
        <pt x="575" y="133" on="0"/>
        <pt x="575" y="211" on="1"/>
        <pt x="575" y="282" on="0"/>
        <pt x="514" y="365" on="0"/>
        <pt x="460" y="365" on="1"/>
        <pt x="406" y="365" on="0"/>
        <pt x="360" y="324" on="1"/>
      </contour>
    </TTGlyph>
    <TTGlyph name="f_f" xMin="0" yMin="0" xMax="540" yMax="600">
      <contour>
        <pt x="540" y="480" on="1"/>
        <pt x="485" y="480" on="1"/>
        <pt x="485" y="539" on="1"/>
        <pt x="465" y="545" on="0"/>
        <pt x="442" y="545" on="1"/>
        <pt x="399" y="545" on="0"/>
        <pt x="360" y="497" on="0"/>
        <pt x="360" y="452" on="1"/>
        <pt x="360" y="420" on="1"/>
        <pt x="460" y="420" on="1"/>
        <pt x="460" y="365" on="1"/>
        <pt x="360" y="365" on="1"/>
        <pt x="360" y="55" on="1"/>
        <pt x="420" y="55" on="1"/>
        <pt x="420" y="0" on="1"/>
        <pt x="240" y="0" on="1"/>
        <pt x="240" y="55" on="1"/>
        <pt x="300" y="55" on="1"/>
        <pt x="300" y="365" on="1"/>
        <pt x="120" y="365" on="1"/>
        <pt x="120" y="55" on="1"/>
        <pt x="180" y="55" on="1"/>
        <pt x="180" y="0" on="1"/>
        <pt x="0" y="0" on="1"/>
        <pt x="0" y="55" on="1"/>
        <pt x="60" y="55" on="1"/>
        <pt x="60" y="365" on="1"/>
        <pt x="0" y="365" on="1"/>
        <pt x="0" y="420" on="1"/>
        <pt x="60" y="420" on="1"/>
        <pt x="60" y="442" on="1"/>
        <pt x="60" y="522" on="0"/>
        <pt x="133" y="600" on="0"/>
        <pt x="199" y="600" on="1"/>
        <pt x="240" y="600" on="0"/>
        <pt x="280" y="586" on="1"/>
        <pt x="280" y="480" on="1"/>
        <pt x="225" y="480" on="1"/>
        <pt x="225" y="543" on="1"/>
        <pt x="216" y="545" on="0"/>
        <pt x="205" y="545" on="1"/>
        <pt x="162" y="545" on="0"/>
        <pt x="120" y="503" on="0"/>
        <pt x="120" y="452" on="1"/>
        <pt x="120" y="420" on="1"/>
        <pt x="300" y="420" on="1"/>
        <pt x="300" y="442" on="1"/>
        <pt x="300" y="522" on="0"/>
        <pt x="375" y="600" on="0"/>
        <pt x="441" y="600" on="1"/>
        <pt x="492" y="600" on="0"/>
        <pt x="540" y="579" on="1"/>
      </contour>
    </TTGlyph>
    <TTGlyph name="f_f_b" xMin="0" yMin="0" xMax="880" yMax="600">
      <contour>
        <pt x="460" y="420" on="1"/>
        <pt x="460" y="365" on="1"/>
        <pt x="360" y="365" on="1"/>
        <pt x="360" y="55" on="1"/>
        <pt x="420" y="55" on="1"/>
        <pt x="420" y="0" on="1"/>
        <pt x="240" y="0" on="1"/>
        <pt x="240" y="55" on="1"/>
        <pt x="300" y="55" on="1"/>
        <pt x="300" y="365" on="1"/>
        <pt x="120" y="365" on="1"/>
        <pt x="120" y="55" on="1"/>
        <pt x="180" y="55" on="1"/>
        <pt x="180" y="0" on="1"/>
        <pt x="0" y="0" on="1"/>
        <pt x="0" y="55" on="1"/>
        <pt x="60" y="55" on="1"/>
        <pt x="60" y="365" on="1"/>
        <pt x="0" y="365" on="1"/>
        <pt x="0" y="420" on="1"/>
        <pt x="60" y="420" on="1"/>
        <pt x="60" y="442" on="1"/>
        <pt x="60" y="522" on="0"/>
        <pt x="133" y="600" on="0"/>
        <pt x="199" y="600" on="1"/>
        <pt x="240" y="600" on="0"/>
        <pt x="280" y="586" on="1"/>
        <pt x="280" y="480" on="1"/>
        <pt x="225" y="480" on="1"/>
        <pt x="225" y="543" on="1"/>
        <pt x="216" y="545" on="0"/>
        <pt x="205" y="545" on="1"/>
        <pt x="162" y="545" on="0"/>
        <pt x="120" y="503" on="0"/>
        <pt x="120" y="452" on="1"/>
        <pt x="120" y="420" on="1"/>
        <pt x="300" y="420" on="1"/>
        <pt x="300" y="442" on="1"/>
        <pt x="300" y="522" on="0"/>
        <pt x="384" y="600" on="0"/>
        <pt x="457" y="600" on="1"/>
        <pt x="499" y="600" on="0"/>
        <pt x="540" y="591" on="1"/>
        <pt x="590" y="600" on="1"/>
        <pt x="600" y="600" on="1"/>
        <pt x="600" y="376" on="1"/>
        <pt x="601" y="376" on="1"/>
        <pt x="655" y="420" on="0"/>
        <pt x="720" y="420" on="1"/>
        <pt x="793" y="420" on="0"/>
        <pt x="880" y="306" on="0"/>
        <pt x="880" y="220" on="1"/>
        <pt x="880" y="123" on="0"/>
        <pt x="775" y="0" on="0"/>
        <pt x="676" y="0" on="1"/>
        <pt x="615" y="0" on="0"/>
        <pt x="540" y="19" on="1"/>
        <pt x="540" y="536" on="1"/>
        <pt x="503" y="545" on="0"/>
        <pt x="458" y="545" on="1"/>
        <pt x="407" y="545" on="0"/>
        <pt x="360" y="497" on="0"/>
        <pt x="360" y="452" on="1"/>
        <pt x="360" y="420" on="1"/>
      </contour>
      <contour>
        <pt x="600" y="61" on="1"/>
        <pt x="636" y="53" on="0"/>
        <pt x="672" y="53" on="1"/>
        <pt x="745" y="53" on="0"/>
        <pt x="815" y="133" on="0"/>
        <pt x="815" y="211" on="1"/>
        <pt x="815" y="282" on="0"/>
        <pt x="754" y="365" on="0"/>
        <pt x="700" y="365" on="1"/>
        <pt x="646" y="365" on="0"/>
        <pt x="600" y="324" on="1"/>
      </contour>
    </TTGlyph>
    <TTGlyph name="f_f_h" xMin="0" yMin="0" xMax="910" yMax="600">
      <contour>
        <pt x="600" y="600" on="1"/>
        <pt x="600" y="363" on="1"/>
        <pt x="601" y="363" on="1"/>
        <pt x="658" y="420" on="0"/>
        <pt x="733" y="420" on="1"/>
        <pt x="793" y="420" on="0"/>
        <pt x="850" y="352" on="0"/>
        <pt x="850" y="292" on="1"/>
        <pt x="850" y="55" on="1"/>
        <pt x="910" y="55" on="1"/>
        <pt x="910" y="0" on="1"/>
        <pt x="730" y="0" on="1"/>
        <pt x="730" y="55" on="1"/>
        <pt x="790" y="55" on="1"/>
        <pt x="790" y="285" on="1"/>
        <pt x="790" y="330" on="0"/>
        <pt x="750" y="365" on="0"/>
        <pt x="717" y="365" on="1"/>
        <pt x="650" y="365" on="0"/>
        <pt x="600" y="303" on="1"/>
        <pt x="600" y="55" on="1"/>
        <pt x="660" y="55" on="1"/>
        <pt x="660" y="0" on="1"/>
        <pt x="480" y="0" on="1"/>
        <pt x="480" y="55" on="1"/>
        <pt x="540" y="55" on="1"/>
        <pt x="540" y="536" on="1"/>
        <pt x="503" y="545" on="0"/>
        <pt x="458" y="545" on="1"/>
        <pt x="407" y="545" on="0"/>
        <pt x="360" y="497" on="0"/>
        <pt x="360" y="452" on="1"/>
        <pt x="360" y="420" on="1"/>
        <pt x="460" y="420" on="1"/>
        <pt x="460" y="365" on="1"/>
        <pt x="360" y="365" on="1"/>
        <pt x="360" y="55" on="1"/>
        <pt x="420" y="55" on="1"/>
        <pt x="420" y="0" on="1"/>
        <pt x="240" y="0" on="1"/>
        <pt x="240" y="55" on="1"/>
        <pt x="300" y="55" on="1"/>
        <pt x="300" y="365" on="1"/>
        <pt x="120" y="365" on="1"/>
        <pt x="120" y="55" on="1"/>
        <pt x="180" y="55" on="1"/>
        <pt x="180" y="0" on="1"/>
        <pt x="0" y="0" on="1"/>
        <pt x="0" y="55" on="1"/>
        <pt x="60" y="55" on="1"/>
        <pt x="60" y="365" on="1"/>
        <pt x="0" y="365" on="1"/>
        <pt x="0" y="420" on="1"/>
        <pt x="60" y="420" on="1"/>
        <pt x="60" y="442" on="1"/>
        <pt x="60" y="522" on="0"/>
        <pt x="133" y="600" on="0"/>
        <pt x="199" y="600" on="1"/>
        <pt x="240" y="600" on="0"/>
        <pt x="280" y="586" on="1"/>
        <pt x="280" y="480" on="1"/>
        <pt x="225" y="480" on="1"/>
        <pt x="225" y="543" on="1"/>
        <pt x="216" y="545" on="0"/>
        <pt x="205" y="545" on="1"/>
        <pt x="162" y="545" on="0"/>
        <pt x="120" y="503" on="0"/>
        <pt x="120" y="452" on="1"/>
        <pt x="120" y="420" on="1"/>
        <pt x="300" y="420" on="1"/>
        <pt x="300" y="442" on="1"/>
        <pt x="300" y="522" on="0"/>
        <pt x="384" y="600" on="0"/>
        <pt x="457" y="600" on="1"/>
        <pt x="499" y="600" on="0"/>
        <pt x="540" y="591" on="1"/>
        <pt x="590" y="600" on="1"/>
      </contour>
    </TTGlyph>
    <TTGlyph name="f_f_i" xMin="0" yMin="0" xMax="660" yMax="600">
      <contour>
        <pt x="480" y="55" on="1"/>
        <pt x="540" y="55" on="1"/>
        <pt x="540" y="365" on="1"/>
        <pt x="360" y="365" on="1"/>
        <pt x="360" y="55" on="1"/>
        <pt x="420" y="55" on="1"/>
        <pt x="420" y="0" on="1"/>
        <pt x="240" y="0" on="1"/>
        <pt x="240" y="55" on="1"/>
        <pt x="300" y="55" on="1"/>
        <pt x="300" y="365" on="1"/>
        <pt x="120" y="365" on="1"/>
        <pt x="120" y="55" on="1"/>
        <pt x="180" y="55" on="1"/>
        <pt x="180" y="0" on="1"/>
        <pt x="0" y="0" on="1"/>
        <pt x="0" y="55" on="1"/>
        <pt x="60" y="55" on="1"/>
        <pt x="60" y="365" on="1"/>
        <pt x="0" y="365" on="1"/>
        <pt x="0" y="420" on="1"/>
        <pt x="60" y="420" on="1"/>
        <pt x="60" y="442" on="1"/>
        <pt x="60" y="522" on="0"/>
        <pt x="133" y="600" on="0"/>
        <pt x="199" y="600" on="1"/>
        <pt x="240" y="600" on="0"/>
        <pt x="280" y="586" on="1"/>
        <pt x="280" y="480" on="1"/>
        <pt x="225" y="480" on="1"/>
        <pt x="225" y="543" on="1"/>
        <pt x="216" y="545" on="0"/>
        <pt x="205" y="545" on="1"/>
        <pt x="162" y="545" on="0"/>
        <pt x="120" y="503" on="0"/>
        <pt x="120" y="452" on="1"/>
        <pt x="120" y="420" on="1"/>
        <pt x="300" y="420" on="1"/>
        <pt x="300" y="442" on="1"/>
        <pt x="300" y="522" on="0"/>
        <pt x="384" y="600" on="0"/>
        <pt x="470" y="600" on="1"/>
        <pt x="539" y="600" on="0"/>
        <pt x="600" y="581" on="1"/>
        <pt x="600" y="480" on="1"/>
        <pt x="540" y="480" on="1"/>
        <pt x="540" y="539" on="1"/>
        <pt x="510" y="545" on="0"/>
        <pt x="468" y="545" on="1"/>
        <pt x="407" y="545" on="0"/>
        <pt x="360" y="497" on="0"/>
        <pt x="360" y="452" on="1"/>
        <pt x="360" y="420" on="1"/>
        <pt x="600" y="420" on="1"/>
        <pt x="600" y="55" on="1"/>
        <pt x="660" y="55" on="1"/>
        <pt x="660" y="0" on="1"/>
        <pt x="480" y="0" on="1"/>
      </contour>
    </TTGlyph>
    <TTGlyph name="f_f_ij" xMin="0" yMin="-180" xMax="850" yMax="600">
      <component glyphName="f_f_i" x="0" y="0" flags="0x4"/>
      <component glyphName="j" x="720" y="0" flags="0x4"/>
    </TTGlyph>
    <TTGlyph name="f_f_iogonek" xMin="0" yMin="-180" xMax="660" yMax="600">
      <component glyphName="f_f_i" x="0" y="0" flags="0x204"/>
      <component glyphName="uni0328" x="720" y="0" flags="0x4"/>
    </TTGlyph>
    <TTGlyph name="f_f_j" xMin="0" yMin="-180" xMax="600" yMax="600">
      <contour>
        <pt x="600" y="-28" on="1"/>
        <pt x="600" y="-111" on="0"/>
        <pt x="545" y="-180" on="0"/>
        <pt x="491" y="-180" on="1"/>
        <pt x="475" y="-180" on="0"/>
        <pt x="460" y="-177" on="1"/>
        <pt x="460" y="-124" on="1"/>
        <pt x="468" y="-125" on="0"/>
        <pt x="480" y="-125" on="1"/>
        <pt x="516" y="-125" on="0"/>
        <pt x="540" y="-80" on="0"/>
        <pt x="540" y="-32" on="1"/>
        <pt x="540" y="365" on="1"/>
        <pt x="360" y="365" on="1"/>
        <pt x="360" y="55" on="1"/>
        <pt x="420" y="55" on="1"/>
        <pt x="420" y="0" on="1"/>
        <pt x="240" y="0" on="1"/>
        <pt x="240" y="55" on="1"/>
        <pt x="300" y="55" on="1"/>
        <pt x="300" y="365" on="1"/>
        <pt x="120" y="365" on="1"/>
        <pt x="120" y="55" on="1"/>
        <pt x="180" y="55" on="1"/>
        <pt x="180" y="0" on="1"/>
        <pt x="0" y="0" on="1"/>
        <pt x="0" y="55" on="1"/>
        <pt x="60" y="55" on="1"/>
        <pt x="60" y="365" on="1"/>
        <pt x="0" y="365" on="1"/>
        <pt x="0" y="420" on="1"/>
        <pt x="60" y="420" on="1"/>
        <pt x="60" y="442" on="1"/>
        <pt x="60" y="522" on="0"/>
        <pt x="133" y="600" on="0"/>
        <pt x="199" y="600" on="1"/>
        <pt x="240" y="600" on="0"/>
        <pt x="280" y="586" on="1"/>
        <pt x="280" y="480" on="1"/>
        <pt x="225" y="480" on="1"/>
        <pt x="225" y="543" on="1"/>
        <pt x="216" y="545" on="0"/>
        <pt x="205" y="545" on="1"/>
        <pt x="162" y="545" on="0"/>
        <pt x="120" y="503" on="0"/>
        <pt x="120" y="452" on="1"/>
        <pt x="120" y="420" on="1"/>
        <pt x="300" y="420" on="1"/>
        <pt x="300" y="442" on="1"/>
        <pt x="300" y="522" on="0"/>
        <pt x="384" y="600" on="0"/>
        <pt x="470" y="600" on="1"/>
        <pt x="539" y="600" on="0"/>
        <pt x="600" y="581" on="1"/>
        <pt x="600" y="480" on="1"/>
        <pt x="540" y="480" on="1"/>
        <pt x="540" y="539" on="1"/>
        <pt x="510" y="545" on="0"/>
        <pt x="468" y="545" on="1"/>
        <pt x="407" y="545" on="0"/>
        <pt x="360" y="497" on="0"/>
        <pt x="360" y="452" on="1"/>
        <pt x="360" y="420" on="1"/>
        <pt x="600" y="420" on="1"/>
      </contour>
    </TTGlyph>
    <TTGlyph name="f_f_k" xMin="0" yMin="0" xMax="900" yMax="600">
      <contour>
        <pt x="808" y="0" on="1"/>
        <pt x="610" y="225" on="1"/>
        <pt x="758" y="363" on="1"/>
        <pt x="758" y="365" on="1"/>
        <pt x="700" y="365" on="1"/>
        <pt x="700" y="420" on="1"/>
        <pt x="880" y="420" on="1"/>
        <pt x="880" y="365" on="1"/>
        <pt x="828" y="365" on="1"/>
        <pt x="684" y="231" on="1"/>
        <pt x="840" y="55" on="1"/>
        <pt x="900" y="55" on="1"/>
        <pt x="900" y="0" on="1"/>
      </contour>
      <contour>
        <pt x="600" y="600" on="1"/>
        <pt x="600" y="55" on="1"/>
        <pt x="660" y="55" on="1"/>
        <pt x="660" y="0" on="1"/>
        <pt x="480" y="0" on="1"/>
        <pt x="480" y="55" on="1"/>
        <pt x="540" y="55" on="1"/>
        <pt x="540" y="536" on="1"/>
        <pt x="503" y="545" on="0"/>
        <pt x="458" y="545" on="1"/>
        <pt x="407" y="545" on="0"/>
        <pt x="360" y="497" on="0"/>
        <pt x="360" y="452" on="1"/>
        <pt x="360" y="420" on="1"/>
        <pt x="460" y="420" on="1"/>
        <pt x="460" y="365" on="1"/>
        <pt x="360" y="365" on="1"/>
        <pt x="360" y="55" on="1"/>
        <pt x="420" y="55" on="1"/>
        <pt x="420" y="0" on="1"/>
        <pt x="240" y="0" on="1"/>
        <pt x="240" y="55" on="1"/>
        <pt x="300" y="55" on="1"/>
        <pt x="300" y="365" on="1"/>
        <pt x="120" y="365" on="1"/>
        <pt x="120" y="55" on="1"/>
        <pt x="180" y="55" on="1"/>
        <pt x="180" y="0" on="1"/>
        <pt x="0" y="0" on="1"/>
        <pt x="0" y="55" on="1"/>
        <pt x="60" y="55" on="1"/>
        <pt x="60" y="365" on="1"/>
        <pt x="0" y="365" on="1"/>
        <pt x="0" y="420" on="1"/>
        <pt x="60" y="420" on="1"/>
        <pt x="60" y="442" on="1"/>
        <pt x="60" y="522" on="0"/>
        <pt x="133" y="600" on="0"/>
        <pt x="199" y="600" on="1"/>
        <pt x="240" y="600" on="0"/>
        <pt x="280" y="586" on="1"/>
        <pt x="280" y="480" on="1"/>
        <pt x="225" y="480" on="1"/>
        <pt x="225" y="543" on="1"/>
        <pt x="216" y="545" on="0"/>
        <pt x="205" y="545" on="1"/>
        <pt x="162" y="545" on="0"/>
        <pt x="120" y="503" on="0"/>
        <pt x="120" y="452" on="1"/>
        <pt x="120" y="420" on="1"/>
        <pt x="300" y="420" on="1"/>
        <pt x="300" y="442" on="1"/>
        <pt x="300" y="522" on="0"/>
        <pt x="384" y="600" on="0"/>
        <pt x="457" y="600" on="1"/>
        <pt x="499" y="600" on="0"/>
        <pt x="540" y="591" on="1"/>
        <pt x="590" y="600" on="1"/>
      </contour>
    </TTGlyph>
    <TTGlyph name="f_f_l" xMin="0" yMin="0" xMax="660" yMax="600">
      <contour>
        <pt x="600" y="600" on="1"/>
        <pt x="600" y="55" on="1"/>
        <pt x="660" y="55" on="1"/>
        <pt x="660" y="0" on="1"/>
        <pt x="480" y="0" on="1"/>
        <pt x="480" y="55" on="1"/>
        <pt x="540" y="55" on="1"/>
        <pt x="540" y="536" on="1"/>
        <pt x="503" y="545" on="0"/>
        <pt x="458" y="545" on="1"/>
        <pt x="407" y="545" on="0"/>
        <pt x="360" y="497" on="0"/>
        <pt x="360" y="452" on="1"/>
        <pt x="360" y="420" on="1"/>
        <pt x="460" y="420" on="1"/>
        <pt x="460" y="365" on="1"/>
        <pt x="360" y="365" on="1"/>
        <pt x="360" y="55" on="1"/>
        <pt x="420" y="55" on="1"/>
        <pt x="420" y="0" on="1"/>
        <pt x="240" y="0" on="1"/>
        <pt x="240" y="55" on="1"/>
        <pt x="300" y="55" on="1"/>
        <pt x="300" y="365" on="1"/>
        <pt x="120" y="365" on="1"/>
        <pt x="120" y="55" on="1"/>
        <pt x="180" y="55" on="1"/>
        <pt x="180" y="0" on="1"/>
        <pt x="0" y="0" on="1"/>
        <pt x="0" y="55" on="1"/>
        <pt x="60" y="55" on="1"/>
        <pt x="60" y="365" on="1"/>
        <pt x="0" y="365" on="1"/>
        <pt x="0" y="420" on="1"/>
        <pt x="60" y="420" on="1"/>
        <pt x="60" y="442" on="1"/>
        <pt x="60" y="522" on="0"/>
        <pt x="133" y="600" on="0"/>
        <pt x="199" y="600" on="1"/>
        <pt x="240" y="600" on="0"/>
        <pt x="280" y="586" on="1"/>
        <pt x="280" y="480" on="1"/>
        <pt x="225" y="480" on="1"/>
        <pt x="225" y="543" on="1"/>
        <pt x="216" y="545" on="0"/>
        <pt x="205" y="545" on="1"/>
        <pt x="162" y="545" on="0"/>
        <pt x="120" y="503" on="0"/>
        <pt x="120" y="452" on="1"/>
        <pt x="120" y="420" on="1"/>
        <pt x="300" y="420" on="1"/>
        <pt x="300" y="442" on="1"/>
        <pt x="300" y="522" on="0"/>
        <pt x="384" y="600" on="0"/>
        <pt x="457" y="600" on="1"/>
        <pt x="499" y="600" on="0"/>
        <pt x="540" y="591" on="1"/>
        <pt x="590" y="600" on="1"/>
      </contour>
    </TTGlyph>
    <TTGlyph name="f_h" xMin="0" yMin="0" xMax="670" yMax="600">
      <contour>
        <pt x="218" y="545" on="1"/>
        <pt x="167" y="545" on="0"/>
        <pt x="120" y="497" on="0"/>
        <pt x="120" y="452" on="1"/>
        <pt x="120" y="420" on="1"/>
        <pt x="220" y="420" on="1"/>
        <pt x="220" y="365" on="1"/>
        <pt x="120" y="365" on="1"/>
        <pt x="120" y="55" on="1"/>
        <pt x="180" y="55" on="1"/>
        <pt x="180" y="0" on="1"/>
        <pt x="0" y="0" on="1"/>
        <pt x="0" y="55" on="1"/>
        <pt x="60" y="55" on="1"/>
        <pt x="60" y="365" on="1"/>
        <pt x="0" y="365" on="1"/>
        <pt x="0" y="420" on="1"/>
        <pt x="60" y="420" on="1"/>
        <pt x="60" y="442" on="1"/>
        <pt x="60" y="522" on="0"/>
        <pt x="144" y="600" on="0"/>
        <pt x="217" y="600" on="1"/>
        <pt x="259" y="600" on="0"/>
        <pt x="300" y="591" on="1"/>
        <pt x="350" y="600" on="1"/>
        <pt x="360" y="600" on="1"/>
        <pt x="360" y="363" on="1"/>
        <pt x="361" y="363" on="1"/>
        <pt x="418" y="420" on="0"/>
        <pt x="493" y="420" on="1"/>
        <pt x="553" y="420" on="0"/>
        <pt x="610" y="352" on="0"/>
        <pt x="610" y="292" on="1"/>
        <pt x="610" y="55" on="1"/>
        <pt x="670" y="55" on="1"/>
        <pt x="670" y="0" on="1"/>
        <pt x="490" y="0" on="1"/>
        <pt x="490" y="55" on="1"/>
        <pt x="550" y="55" on="1"/>
        <pt x="550" y="285" on="1"/>
        <pt x="550" y="330" on="0"/>
        <pt x="510" y="365" on="0"/>
        <pt x="477" y="365" on="1"/>
        <pt x="410" y="365" on="0"/>
        <pt x="360" y="303" on="1"/>
        <pt x="360" y="55" on="1"/>
        <pt x="420" y="55" on="1"/>
        <pt x="420" y="0" on="1"/>
        <pt x="240" y="0" on="1"/>
        <pt x="240" y="55" on="1"/>
        <pt x="300" y="55" on="1"/>
        <pt x="300" y="536" on="1"/>
        <pt x="263" y="545" on="0"/>
      </contour>
    </TTGlyph>
    <TTGlyph name="f_i" xMin="0" yMin="0" xMax="420" yMax="600">
      <contour>
        <pt x="240" y="55" on="1"/>
        <pt x="300" y="55" on="1"/>
        <pt x="300" y="365" on="1"/>
        <pt x="120" y="365" on="1"/>
        <pt x="120" y="55" on="1"/>
        <pt x="180" y="55" on="1"/>
        <pt x="180" y="0" on="1"/>
        <pt x="0" y="0" on="1"/>
        <pt x="0" y="55" on="1"/>
        <pt x="60" y="55" on="1"/>
        <pt x="60" y="365" on="1"/>
        <pt x="0" y="365" on="1"/>
        <pt x="0" y="420" on="1"/>
        <pt x="60" y="420" on="1"/>
        <pt x="60" y="442" on="1"/>
        <pt x="60" y="522" on="0"/>
        <pt x="144" y="600" on="0"/>
        <pt x="230" y="600" on="1"/>
        <pt x="299" y="600" on="0"/>
        <pt x="360" y="581" on="1"/>
        <pt x="360" y="480" on="1"/>
        <pt x="300" y="480" on="1"/>
        <pt x="300" y="539" on="1"/>
        <pt x="270" y="545" on="0"/>
        <pt x="228" y="545" on="1"/>
        <pt x="167" y="545" on="0"/>
        <pt x="120" y="497" on="0"/>
        <pt x="120" y="452" on="1"/>
        <pt x="120" y="420" on="1"/>
        <pt x="360" y="420" on="1"/>
        <pt x="360" y="55" on="1"/>
        <pt x="420" y="55" on="1"/>
        <pt x="420" y="0" on="1"/>
        <pt x="240" y="0" on="1"/>
      </contour>
    </TTGlyph>
    <TTGlyph name="f_ij" xMin="0" yMin="-180" xMax="610" yMax="600">
      <component glyphName="f_i" x="0" y="0" flags="0x4"/>
      <component glyphName="j" x="480" y="0" flags="0x4"/>
    </TTGlyph>
    <TTGlyph name="f_iogonek" xMin="0" yMin="-180" xMax="420" yMax="600">
      <component glyphName="f_i" x="0" y="0" flags="0x204"/>
      <component glyphName="uni0328" x="480" y="0" flags="0x4"/>
    </TTGlyph>
    <TTGlyph name="f_j" xMin="0" yMin="-180" xMax="360" yMax="600">
      <contour>
        <pt x="360" y="-28" on="1"/>
        <pt x="360" y="-111" on="0"/>
        <pt x="305" y="-180" on="0"/>
        <pt x="251" y="-180" on="1"/>
        <pt x="235" y="-180" on="0"/>
        <pt x="220" y="-177" on="1"/>
        <pt x="220" y="-124" on="1"/>
        <pt x="228" y="-125" on="0"/>
        <pt x="240" y="-125" on="1"/>
        <pt x="276" y="-125" on="0"/>
        <pt x="300" y="-80" on="0"/>
        <pt x="300" y="-32" on="1"/>
        <pt x="300" y="365" on="1"/>
        <pt x="120" y="365" on="1"/>
        <pt x="120" y="55" on="1"/>
        <pt x="180" y="55" on="1"/>
        <pt x="180" y="0" on="1"/>
        <pt x="0" y="0" on="1"/>
        <pt x="0" y="55" on="1"/>
        <pt x="60" y="55" on="1"/>
        <pt x="60" y="365" on="1"/>
        <pt x="0" y="365" on="1"/>
        <pt x="0" y="420" on="1"/>
        <pt x="60" y="420" on="1"/>
        <pt x="60" y="442" on="1"/>
        <pt x="60" y="522" on="0"/>
        <pt x="144" y="600" on="0"/>
        <pt x="230" y="600" on="1"/>
        <pt x="299" y="600" on="0"/>
        <pt x="360" y="581" on="1"/>
        <pt x="360" y="480" on="1"/>
        <pt x="300" y="480" on="1"/>
        <pt x="300" y="539" on="1"/>
        <pt x="270" y="545" on="0"/>
        <pt x="228" y="545" on="1"/>
        <pt x="167" y="545" on="0"/>
        <pt x="120" y="497" on="0"/>
        <pt x="120" y="452" on="1"/>
        <pt x="120" y="420" on="1"/>
        <pt x="360" y="420" on="1"/>
      </contour>
    </TTGlyph>
    <TTGlyph name="f_k" xMin="0" yMin="0" xMax="660" yMax="600">
      <contour>
        <pt x="360" y="600" on="1"/>
        <pt x="360" y="55" on="1"/>
        <pt x="420" y="55" on="1"/>
        <pt x="420" y="0" on="1"/>
        <pt x="240" y="0" on="1"/>
        <pt x="240" y="55" on="1"/>
        <pt x="300" y="55" on="1"/>
        <pt x="300" y="536" on="1"/>
        <pt x="263" y="545" on="0"/>
        <pt x="218" y="545" on="1"/>
        <pt x="167" y="545" on="0"/>
        <pt x="120" y="497" on="0"/>
        <pt x="120" y="452" on="1"/>
        <pt x="120" y="420" on="1"/>
        <pt x="220" y="420" on="1"/>
        <pt x="220" y="365" on="1"/>
        <pt x="120" y="365" on="1"/>
        <pt x="120" y="55" on="1"/>
        <pt x="180" y="55" on="1"/>
        <pt x="180" y="0" on="1"/>
        <pt x="0" y="0" on="1"/>
        <pt x="0" y="55" on="1"/>
        <pt x="60" y="55" on="1"/>
        <pt x="60" y="365" on="1"/>
        <pt x="0" y="365" on="1"/>
        <pt x="0" y="420" on="1"/>
        <pt x="60" y="420" on="1"/>
        <pt x="60" y="442" on="1"/>
        <pt x="60" y="522" on="0"/>
        <pt x="144" y="600" on="0"/>
        <pt x="217" y="600" on="1"/>
        <pt x="259" y="600" on="0"/>
        <pt x="300" y="591" on="1"/>
        <pt x="350" y="600" on="1"/>
      </contour>
      <contour>
        <pt x="568" y="0" on="1"/>
        <pt x="370" y="225" on="1"/>
        <pt x="518" y="363" on="1"/>
        <pt x="518" y="365" on="1"/>
        <pt x="460" y="365" on="1"/>
        <pt x="460" y="420" on="1"/>
        <pt x="640" y="420" on="1"/>
        <pt x="640" y="365" on="1"/>
        <pt x="588" y="365" on="1"/>
        <pt x="444" y="231" on="1"/>
        <pt x="600" y="55" on="1"/>
        <pt x="660" y="55" on="1"/>
        <pt x="660" y="0" on="1"/>
      </contour>
    </TTGlyph>
    <TTGlyph name="f_l" xMin="0" yMin="0" xMax="420" yMax="600">
      <contour>
        <pt x="218" y="545" on="1"/>
        <pt x="167" y="545" on="0"/>
        <pt x="120" y="497" on="0"/>
        <pt x="120" y="452" on="1"/>
        <pt x="120" y="420" on="1"/>
        <pt x="220" y="420" on="1"/>
        <pt x="220" y="365" on="1"/>
        <pt x="120" y="365" on="1"/>
        <pt x="120" y="55" on="1"/>
        <pt x="180" y="55" on="1"/>
        <pt x="180" y="0" on="1"/>
        <pt x="0" y="0" on="1"/>
        <pt x="0" y="55" on="1"/>
        <pt x="60" y="55" on="1"/>
        <pt x="60" y="365" on="1"/>
        <pt x="0" y="365" on="1"/>
        <pt x="0" y="420" on="1"/>
        <pt x="60" y="420" on="1"/>
        <pt x="60" y="442" on="1"/>
        <pt x="60" y="522" on="0"/>
        <pt x="144" y="600" on="0"/>
        <pt x="217" y="600" on="1"/>
        <pt x="259" y="600" on="0"/>
        <pt x="300" y="591" on="1"/>
        <pt x="350" y="600" on="1"/>
        <pt x="360" y="600" on="1"/>
        <pt x="360" y="55" on="1"/>
        <pt x="420" y="55" on="1"/>
        <pt x="420" y="0" on="1"/>
        <pt x="240" y="0" on="1"/>
        <pt x="240" y="55" on="1"/>
        <pt x="300" y="55" on="1"/>
        <pt x="300" y="536" on="1"/>
        <pt x="263" y="545" on="0"/>
      </contour>
    </TTGlyph>
    <TTGlyph name="five" xMin="20" yMin="-120" xMax="340" yMax="480">
      <contour>
        <pt x="20" y="-46" on="1"/>
        <pt x="76" y="-65" on="0"/>
        <pt x="124" y="-65" on="1"/>
        <pt x="193" y="-65" on="0"/>
        <pt x="268" y="11" on="0"/>
        <pt x="268" y="82" on="1"/>
        <pt x="268" y="151" on="0"/>
        <pt x="193" y="220" on="0"/>
        <pt x="116" y="220" on="1"/>
        <pt x="81" y="220" on="0"/>
        <pt x="40" y="214" on="1"/>
        <pt x="40" y="480" on="1"/>
        <pt x="320" y="480" on="1"/>
        <pt x="320" y="425" on="1"/>
        <pt x="104" y="425" on="1"/>
        <pt x="104" y="272" on="1"/>
        <pt x="121" y="274" on="0"/>
        <pt x="140" y="274" on="1"/>
        <pt x="236" y="274" on="0"/>
        <pt x="340" y="178" on="0"/>
        <pt x="340" y="86" on="1"/>
        <pt x="340" y="-8" on="0"/>
        <pt x="219" y="-120" on="0"/>
        <pt x="122" y="-120" on="1"/>
        <pt x="70" y="-120" on="0"/>
        <pt x="20" y="-105" on="1"/>
      </contour>
    </TTGlyph>
    <TTGlyph name="four" xMin="0" yMin="-60" xMax="380" yMax="480">
      <contour>
        <pt x="240" y="65" on="1"/>
        <pt x="0" y="65" on="1"/>
        <pt x="0" y="113" on="1"/>
        <pt x="251" y="480" on="1"/>
        <pt x="300" y="480" on="1"/>
        <pt x="300" y="120" on="1"/>
        <pt x="380" y="120" on="1"/>
        <pt x="380" y="65" on="1"/>
        <pt x="300" y="65" on="1"/>
        <pt x="300" y="-60" on="1"/>
        <pt x="240" y="-60" on="1"/>
      </contour>
      <contour>
        <pt x="67" y="120" on="1"/>
        <pt x="240" y="120" on="1"/>
        <pt x="240" y="373" on="1"/>
        <pt x="238" y="373" on="1"/>
        <pt x="67" y="122" on="1"/>
      </contour>
    </TTGlyph>
    <TTGlyph name="fraction" xMin="-210" yMin="0" xMax="210" yMax="540">
      <contour>
        <pt x="210" y="540" on="1"/>
        <pt x="-151" y="0" on="1"/>
        <pt x="-210" y="0" on="1"/>
        <pt x="152" y="540" on="1"/>
      </contour>
    </TTGlyph>
    <TTGlyph name="g" xMin="20" yMin="-180" xMax="360" yMax="420">
      <contour>
        <pt x="300" y="17" on="1"/>
        <pt x="300" y="46" on="1"/>
        <pt x="298" y="46" on="1"/>
        <pt x="250" y="0" on="0"/>
        <pt x="188" y="0" on="1"/>
        <pt x="115" y="0" on="0"/>
        <pt x="20" y="114" on="0"/>
        <pt x="20" y="201" on="1"/>
        <pt x="20" y="300" on="0"/>
        <pt x="124" y="420" on="0"/>
        <pt x="220" y="420" on="1"/>
        <pt x="282" y="420" on="0"/>
        <pt x="360" y="397" on="1"/>
        <pt x="360" y="17" on="1"/>
        <pt x="360" y="-88" on="0"/>
        <pt x="274" y="-180" on="0"/>
        <pt x="179" y="-180" on="1"/>
        <pt x="119" y="-180" on="0"/>
        <pt x="60" y="-163" on="1"/>
        <pt x="60" y="-105" on="1"/>
        <pt x="115" y="-125" on="0"/>
        <pt x="179" y="-125" on="1"/>
        <pt x="245" y="-125" on="0"/>
        <pt x="300" y="-68" on="0"/>
      </contour>
      <contour>
        <pt x="300" y="355" on="1"/>
        <pt x="259" y="365" on="0"/>
        <pt x="215" y="365" on="1"/>
        <pt x="149" y="365" on="0"/>
        <pt x="85" y="288" on="0"/>
        <pt x="85" y="210" on="1"/>
        <pt x="85" y="133" on="0"/>
        <pt x="147" y="55" on="0"/>
        <pt x="203" y="55" on="1"/>
        <pt x="259" y="55" on="0"/>
        <pt x="300" y="98" on="1"/>
      </contour>
    </TTGlyph>
    <TTGlyph name="gbreve" xMin="20" yMin="-180" xMax="360" yMax="600">
      <component glyphName="g" x="0" y="0" flags="0x204"/>
      <component glyphName="uni0306" x="420" y="0" flags="0x4"/>
    </TTGlyph>
    <TTGlyph name="gcircumflex" xMin="20" yMin="-180" xMax="360" yMax="600">
      <component glyphName="g" x="0" y="0" flags="0x204"/>
      <component glyphName="uni0302" x="420" y="0" flags="0x4"/>
    </TTGlyph>
    <TTGlyph name="gcommaaccent" xMin="20" yMin="-180" xMax="360" yMax="610">
      <component glyphName="g" x="0" y="0" flags="0x204"/>
      <component glyphName="uni0312" x="420" y="0" flags="0x4"/>
    </TTGlyph>
    <TTGlyph name="gdotaccent" xMin="20" yMin="-180" xMax="360" yMax="574">
      <component glyphName="g" x="0" y="0" flags="0x204"/>
      <component glyphName="uni0307" x="420" y="0" flags="0x4"/>
    </TTGlyph>
    <TTGlyph name="germandbls" xMin="1" yMin="0" xMax="420" yMax="600">
      <contour>
        <pt x="120" y="0" on="1"/>
        <pt x="1" y="0" on="1"/>
        <pt x="1" y="55" on="1"/>
        <pt x="60" y="55" on="1"/>
        <pt x="60" y="365" on="1"/>
        <pt x="1" y="365" on="1"/>
        <pt x="1" y="420" on="1"/>
        <pt x="60" y="420" on="1"/>
        <pt x="60" y="424" on="1"/>
        <pt x="60" y="472" on="0"/>
        <pt x="84" y="539" on="0"/>
        <pt x="125" y="581" on="0"/>
        <pt x="183" y="600" on="0"/>
        <pt x="218" y="600" on="1"/>
        <pt x="289" y="600" on="0"/>
        <pt x="360" y="535" on="0"/>
        <pt x="360" y="478" on="1"/>
        <pt x="360" y="454" on="0"/>
        <pt x="347" y="417" on="0"/>
        <pt x="325" y="391" on="0"/>
        <pt x="299" y="372" on="0"/>
        <pt x="286" y="363" on="1"/>
        <pt x="266" y="350" on="0"/>
        <pt x="240" y="323" on="0"/>
        <pt x="240" y="303" on="1"/>
        <pt x="240" y="277" on="0"/>
        <pt x="279" y="250" on="0"/>
        <pt x="318" y="231" on="1"/>
        <pt x="336" y="222" on="0"/>
        <pt x="372" y="203" on="0"/>
        <pt x="402" y="176" on="0"/>
        <pt x="420" y="142" on="0"/>
        <pt x="420" y="118" on="1"/>
        <pt x="420" y="64" on="0"/>
        <pt x="336" y="0" on="0"/>
        <pt x="264" y="0" on="1"/>
        <pt x="222" y="0" on="0"/>
        <pt x="180" y="13" on="1"/>
        <pt x="180" y="70" on="1"/>
        <pt x="223" y="55" on="0"/>
        <pt x="269" y="55" on="1"/>
        <pt x="317" y="55" on="0"/>
        <pt x="355" y="85" on="0"/>
        <pt x="355" y="109" on="1"/>
        <pt x="355" y="139" on="0"/>
        <pt x="314" y="168" on="0"/>
        <pt x="276" y="185" on="1"/>
        <pt x="259" y="193" on="0"/>
        <pt x="224" y="211" on="0"/>
        <pt x="197" y="236" on="0"/>
        <pt x="180" y="270" on="0"/>
        <pt x="180" y="294" on="1"/>
        <pt x="180" y="313" on="0"/>
        <pt x="191" y="342" on="0"/>
        <pt x="208" y="363" on="0"/>
        <pt x="230" y="380" on="0"/>
        <pt x="242" y="388" on="1"/>
        <pt x="254" y="396" on="0"/>
        <pt x="275" y="412" on="0"/>
        <pt x="291" y="431" on="0"/>
        <pt x="300" y="457" on="0"/>
        <pt x="300" y="475" on="1"/>
        <pt x="300" y="548" on="0"/>
        <pt x="217" y="548" on="1"/>
        <pt x="169" y="548" on="0"/>
        <pt x="120" y="495" on="0"/>
        <pt x="120" y="436" on="1"/>
      </contour>
    </TTGlyph>
    <TTGlyph name="grave" xMin="10" yMin="480" xMax="150" yMax="600">
      <component glyphName="uni0300" x="330" y="0" flags="0x4"/>
    </TTGlyph>
    <TTGlyph name="greater" xMin="0" yMin="30" xMax="400" yMax="425">
      <contour>
        <pt x="340" y="229" on="1"/>
        <pt x="0" y="365" on="1"/>
        <pt x="0" y="425" on="1"/>
        <pt x="400" y="254" on="1"/>
        <pt x="400" y="200" on="1"/>
        <pt x="0" y="30" on="1"/>
        <pt x="0" y="90" on="1"/>
        <pt x="340" y="225" on="1"/>
      </contour>
    </TTGlyph>
    <TTGlyph name="guillemotleft" xMin="0" yMin="60" xMax="360" yMax="360">
      <component glyphName="guilsinglleft" x="0" y="0" flags="0x4"/>
      <component glyphName="guilsinglleft" x="180" y="0" flags="0x4"/>
    </TTGlyph>
    <TTGlyph name="guillemotleft.case" xMin="0" yMin="120" xMax="360" yMax="420">
      <component glyphName="guilsinglleft" x="0" y="60" flags="0x4"/>
      <component glyphName="guilsinglleft" x="180" y="60" flags="0x4"/>
    </TTGlyph>
    <TTGlyph name="guillemotright" xMin="0" yMin="60" xMax="360" yMax="360">
      <component glyphName="guilsinglright" x="0" y="0" flags="0x4"/>
      <component glyphName="guilsinglright" x="180" y="0" flags="0x4"/>
    </TTGlyph>
    <TTGlyph name="guillemotright.case" xMin="0" yMin="120" xMax="360" yMax="420">
      <component glyphName="guilsinglright" x="0" y="60" flags="0x4"/>
      <component glyphName="guilsinglright" x="180" y="60" flags="0x4"/>
    </TTGlyph>
    <TTGlyph name="guilsinglleft" xMin="0" yMin="60" xMax="180" yMax="360">
      <contour>
        <pt x="0" y="210" on="1"/>
        <pt x="110" y="360" on="1"/>
        <pt x="180" y="360" on="1"/>
        <pt x="70" y="210" on="1"/>
        <pt x="180" y="60" on="1"/>
        <pt x="110" y="60" on="1"/>
      </contour>
    </TTGlyph>
    <TTGlyph name="guilsinglleft.case" xMin="0" yMin="120" xMax="180" yMax="420">
      <component glyphName="guilsinglleft" x="0" y="60" flags="0x204"/>
    </TTGlyph>
    <TTGlyph name="guilsinglright" xMin="0" yMin="60" xMax="180" yMax="360">
      <contour>
        <pt x="70" y="60" on="1"/>
        <pt x="0" y="60" on="1"/>
        <pt x="110" y="210" on="1"/>
        <pt x="0" y="360" on="1"/>
        <pt x="70" y="360" on="1"/>
        <pt x="180" y="210" on="1"/>
      </contour>
    </TTGlyph>
    <TTGlyph name="guilsinglright.case" xMin="0" yMin="120" xMax="180" yMax="420">
      <component glyphName="guilsinglright" x="0" y="60" flags="0x204"/>
    </TTGlyph>
    <TTGlyph name="h" xMin="0" yMin="0" xMax="430" yMax="600">
      <contour>
        <pt x="0" y="55" on="1"/>
        <pt x="60" y="55" on="1"/>
        <pt x="60" y="540" on="1"/>
        <pt x="0" y="540" on="1"/>
        <pt x="0" y="600" on="1"/>
        <pt x="120" y="600" on="1"/>
        <pt x="120" y="363" on="1"/>
        <pt x="121" y="363" on="1"/>
        <pt x="178" y="420" on="0"/>
        <pt x="253" y="420" on="1"/>
        <pt x="313" y="420" on="0"/>
        <pt x="370" y="352" on="0"/>
        <pt x="370" y="292" on="1"/>
        <pt x="370" y="55" on="1"/>
        <pt x="430" y="55" on="1"/>
        <pt x="430" y="0" on="1"/>
        <pt x="250" y="0" on="1"/>
        <pt x="250" y="55" on="1"/>
        <pt x="310" y="55" on="1"/>
        <pt x="310" y="285" on="1"/>
        <pt x="310" y="330" on="0"/>
        <pt x="270" y="365" on="0"/>
        <pt x="237" y="365" on="1"/>
        <pt x="170" y="365" on="0"/>
        <pt x="120" y="303" on="1"/>
        <pt x="120" y="55" on="1"/>
        <pt x="180" y="55" on="1"/>
        <pt x="180" y="0" on="1"/>
        <pt x="0" y="0" on="1"/>
      </contour>
    </TTGlyph>
    <TTGlyph name="hbar" xMin="0" yMin="0" xMax="430" yMax="600">
      <contour>
        <pt x="60" y="480" on="1"/>
        <pt x="0" y="480" on="1"/>
        <pt x="0" y="530" on="1"/>
        <pt x="60" y="530" on="1"/>
        <pt x="60" y="600" on="1"/>
        <pt x="120" y="600" on="1"/>
        <pt x="120" y="530" on="1"/>
        <pt x="240" y="530" on="1"/>
        <pt x="240" y="480" on="1"/>
        <pt x="120" y="480" on="1"/>
        <pt x="120" y="358" on="1"/>
        <pt x="121" y="358" on="1"/>
        <pt x="178" y="415" on="0"/>
        <pt x="253" y="415" on="1"/>
        <pt x="313" y="415" on="0"/>
        <pt x="370" y="347" on="0"/>
        <pt x="370" y="287" on="1"/>
        <pt x="370" y="55" on="1"/>
        <pt x="430" y="55" on="1"/>
        <pt x="430" y="0" on="1"/>
        <pt x="250" y="0" on="1"/>
        <pt x="250" y="55" on="1"/>
        <pt x="310" y="55" on="1"/>
        <pt x="310" y="280" on="1"/>
        <pt x="310" y="325" on="0"/>
        <pt x="270" y="360" on="0"/>
        <pt x="237" y="360" on="1"/>
        <pt x="170" y="360" on="0"/>
        <pt x="120" y="298" on="1"/>
        <pt x="120" y="55" on="1"/>
        <pt x="180" y="55" on="1"/>
        <pt x="180" y="0" on="1"/>
        <pt x="0" y="0" on="1"/>
        <pt x="0" y="55" on="1"/>
        <pt x="60" y="55" on="1"/>
      </contour>
    </TTGlyph>
    <TTGlyph name="hcircumflex" xMin="0" yMin="0" xMax="430" yMax="740">
      <component glyphName="h" x="0" y="0" flags="0x204"/>
      <component glyphName="uni0302.cap" x="421" y="20" flags="0x4"/>
    </TTGlyph>
    <TTGlyph name="hungarumlaut" xMin="30" yMin="480" xMax="290" yMax="600">
      <component glyphName="uni030B" x="330" y="0" flags="0x4"/>
    </TTGlyph>
    <TTGlyph name="hyphen" xMin="0" yMin="185" xMax="180" yMax="240">
      <contour>
        <pt x="0" y="240" on="1"/>
        <pt x="180" y="240" on="1"/>
        <pt x="180" y="185" on="1"/>
        <pt x="0" y="185" on="1"/>
      </contour>
    </TTGlyph>
    <TTGlyph name="hyphen.case" xMin="0" yMin="255" xMax="180" yMax="310">
      <component glyphName="hyphen" x="0" y="70" flags="0x204"/>
    </TTGlyph>
    <TTGlyph name="i" xMin="0" yMin="0" xMax="180" yMax="574">
      <contour>
        <pt x="0" y="55" on="1"/>
        <pt x="60" y="55" on="1"/>
        <pt x="60" y="365" on="1"/>
        <pt x="0" y="365" on="1"/>
        <pt x="0" y="420" on="1"/>
        <pt x="120" y="420" on="1"/>
        <pt x="120" y="55" on="1"/>
        <pt x="180" y="55" on="1"/>
        <pt x="180" y="0" on="1"/>
        <pt x="0" y="0" on="1"/>
      </contour>
      <contour>
        <pt x="40" y="525" on="1"/>
        <pt x="40" y="548" on="0"/>
        <pt x="65" y="574" on="0"/>
        <pt x="85" y="574" on="1"/>
        <pt x="105" y="574" on="0"/>
        <pt x="130" y="548" on="0"/>
        <pt x="130" y="528" on="1"/>
        <pt x="130" y="506" on="0"/>
        <pt x="105" y="480" on="0"/>
        <pt x="85" y="480" on="1"/>
        <pt x="65" y="480" on="0"/>
        <pt x="40" y="506" on="0"/>
      </contour>
    </TTGlyph>
    <TTGlyph name="i.TRK" xMin="0" yMin="0" xMax="180" yMax="574">
      <component glyphName="i" x="0" y="0" flags="0x204"/>
    </TTGlyph>
    <TTGlyph name="iacute" xMin="0" yMin="0" xMax="200" yMax="600">
      <component glyphName="dotlessi" x="0" y="0" flags="0x204"/>
      <component glyphName="uni0301" x="300" y="0" flags="0x4"/>
    </TTGlyph>
    <TTGlyph name="ibreve" xMin="-26" yMin="0" xMax="206" yMax="600">
      <component glyphName="dotlessi" x="0" y="0" flags="0x204"/>
      <component glyphName="uni0306" x="300" y="0" flags="0x4"/>
    </TTGlyph>
    <TTGlyph name="icircumflex" xMin="-30" yMin="0" xMax="210" yMax="600">
      <component glyphName="dotlessi" x="0" y="0" flags="0x204"/>
      <component glyphName="uni0302" x="300" y="0" flags="0x4"/>
    </TTGlyph>
    <TTGlyph name="idieresis" xMin="-40" yMin="0" xMax="220" yMax="569">
      <component glyphName="dotlessi" x="0" y="0" flags="0x204"/>
      <component glyphName="uni0308" x="300" y="0" flags="0x4"/>
    </TTGlyph>
    <TTGlyph name="igrave" xMin="-20" yMin="0" xMax="180" yMax="600">
      <component glyphName="dotlessi" x="0" y="0" flags="0x204"/>
      <component glyphName="uni0300" x="300" y="0" flags="0x4"/>
    </TTGlyph>
    <TTGlyph name="ij" xMin="0" yMin="-180" xMax="370" yMax="574">
      <component glyphName="i" x="0" y="0" flags="0x4"/>
      <component glyphName="j" x="240" y="0" flags="0x4"/>
    </TTGlyph>
    <TTGlyph name="imacron" xMin="-20" yMin="0" xMax="200" yMax="530">
      <component glyphName="dotlessi" x="0" y="0" flags="0x204"/>
      <component glyphName="uni0304" x="300" y="0" flags="0x4"/>
    </TTGlyph>
    <TTGlyph name="iogonek" xMin="0" yMin="-180" xMax="180" yMax="574">
      <component glyphName="i" x="0" y="0" flags="0x204"/>
      <component glyphName="uni0328" x="240" y="0" flags="0x4"/>
    </TTGlyph>
    <TTGlyph name="itilde" xMin="-30" yMin="0" xMax="209" yMax="577">
      <component glyphName="dotlessi" x="0" y="0" flags="0x204"/>
      <component glyphName="uni0303" x="300" y="0" flags="0x4"/>
    </TTGlyph>
    <TTGlyph name="j" xMin="-20" yMin="-180" xMax="130" yMax="574">
      <contour>
        <pt x="120" y="-28" on="1"/>
        <pt x="120" y="-111" on="0"/>
        <pt x="65" y="-180" on="0"/>
        <pt x="11" y="-180" on="1"/>
        <pt x="-5" y="-180" on="0"/>
        <pt x="-20" y="-177" on="1"/>
        <pt x="-20" y="-124" on="1"/>
        <pt x="-12" y="-125" on="0"/>
        <pt x="0" y="-125" on="1"/>
        <pt x="36" y="-125" on="0"/>
        <pt x="60" y="-80" on="0"/>
        <pt x="60" y="-32" on="1"/>
        <pt x="60" y="365" on="1"/>
        <pt x="0" y="365" on="1"/>
        <pt x="0" y="420" on="1"/>
        <pt x="120" y="420" on="1"/>
      </contour>
      <contour>
        <pt x="40" y="525" on="1"/>
        <pt x="40" y="548" on="0"/>
        <pt x="65" y="574" on="0"/>
        <pt x="85" y="574" on="1"/>
        <pt x="105" y="574" on="0"/>
        <pt x="130" y="548" on="0"/>
        <pt x="130" y="528" on="1"/>
        <pt x="130" y="506" on="0"/>
        <pt x="105" y="480" on="0"/>
        <pt x="85" y="480" on="1"/>
        <pt x="65" y="480" on="0"/>
        <pt x="40" y="506" on="0"/>
      </contour>
    </TTGlyph>
    <TTGlyph name="jcircumflex" xMin="-30" yMin="-180" xMax="210" yMax="600">
      <component glyphName="uni0237" x="0" y="0" flags="0x204"/>
      <component glyphName="uni0302" x="300" y="0" flags="0x4"/>
    </TTGlyph>
    <TTGlyph name="k" xMin="0" yMin="0" xMax="420" yMax="600">
      <contour>
        <pt x="328" y="0" on="1"/>
        <pt x="130" y="225" on="1"/>
        <pt x="278" y="363" on="1"/>
        <pt x="278" y="365" on="1"/>
        <pt x="220" y="365" on="1"/>
        <pt x="220" y="420" on="1"/>
        <pt x="400" y="420" on="1"/>
        <pt x="400" y="365" on="1"/>
        <pt x="348" y="365" on="1"/>
        <pt x="204" y="231" on="1"/>
        <pt x="360" y="55" on="1"/>
        <pt x="420" y="55" on="1"/>
        <pt x="420" y="0" on="1"/>
      </contour>
      <contour>
        <pt x="0" y="55" on="1"/>
        <pt x="60" y="55" on="1"/>
        <pt x="60" y="545" on="1"/>
        <pt x="0" y="545" on="1"/>
        <pt x="0" y="600" on="1"/>
        <pt x="120" y="600" on="1"/>
        <pt x="120" y="55" on="1"/>
        <pt x="180" y="55" on="1"/>
        <pt x="180" y="0" on="1"/>
        <pt x="0" y="0" on="1"/>
      </contour>
    </TTGlyph>
    <TTGlyph name="kcommaaccent" xMin="0" yMin="-180" xMax="420" yMax="600">
      <component glyphName="k" x="0" y="0" flags="0x204"/>
      <component glyphName="uni0326" x="420" y="0" flags="0x4"/>
    </TTGlyph>
    <TTGlyph name="l" xMin="0" yMin="0" xMax="180" yMax="600">
      <contour>
        <pt x="0" y="55" on="1"/>
        <pt x="60" y="55" on="1"/>
        <pt x="60" y="545" on="1"/>
        <pt x="0" y="545" on="1"/>
        <pt x="0" y="600" on="1"/>
        <pt x="120" y="600" on="1"/>
        <pt x="120" y="55" on="1"/>
        <pt x="180" y="55" on="1"/>
        <pt x="180" y="0" on="1"/>
        <pt x="0" y="0" on="1"/>
      </contour>
    </TTGlyph>
    <TTGlyph name="lacute" xMin="0" yMin="0" xMax="200" yMax="750">
      <component glyphName="l" x="0" y="0" flags="0x204"/>
      <component glyphName="uni0301.cap" x="300" y="30" flags="0x4"/>
    </TTGlyph>
    <TTGlyph name="lcaron" xMin="0" yMin="0" xMax="265" yMax="600">
      <component glyphName="l" x="0" y="0" flags="0x4"/>
      <component glyphName="uni0315" x="240" y="0" flags="0x4"/>
    </TTGlyph>
    <TTGlyph name="lcommaaccent" xMin="0" yMin="-180" xMax="180" yMax="600">
      <component glyphName="l" x="0" y="0" flags="0x204"/>
      <component glyphName="uni0326" x="300" y="0" flags="0x4"/>
    </TTGlyph>
    <TTGlyph name="ldot" xMin="0" yMin="0" xMax="285" yMax="600">
      <contour>
        <pt x="0" y="55" on="1"/>
        <pt x="60" y="55" on="1"/>
        <pt x="60" y="545" on="1"/>
        <pt x="0" y="545" on="1"/>
        <pt x="0" y="600" on="1"/>
        <pt x="120" y="600" on="1"/>
        <pt x="120" y="55" on="1"/>
        <pt x="180" y="55" on="1"/>
        <pt x="180" y="0" on="1"/>
        <pt x="0" y="0" on="1"/>
      </contour>
      <contour>
        <pt x="195" y="300" on="1"/>
        <pt x="195" y="323" on="0"/>
        <pt x="220" y="349" on="0"/>
        <pt x="240" y="349" on="1"/>
        <pt x="260" y="349" on="0"/>
        <pt x="285" y="323" on="0"/>
        <pt x="285" y="303" on="1"/>
        <pt x="285" y="281" on="0"/>
        <pt x="260" y="255" on="0"/>
        <pt x="240" y="255" on="1"/>
        <pt x="220" y="255" on="0"/>
        <pt x="195" y="281" on="0"/>
      </contour>
    </TTGlyph>
    <TTGlyph name="less" xMin="20" yMin="30" xMax="420" yMax="425">
      <contour>
        <pt x="80" y="225" on="1"/>
        <pt x="420" y="90" on="1"/>
        <pt x="420" y="30" on="1"/>
        <pt x="20" y="200" on="1"/>
        <pt x="20" y="254" on="1"/>
        <pt x="420" y="425" on="1"/>
        <pt x="420" y="365" on="1"/>
        <pt x="80" y="229" on="1"/>
      </contour>
    </TTGlyph>
    <TTGlyph name="logicalnot" xMin="0" yMin="20" xMax="420" yMax="255">
      <contour>
        <pt x="0" y="200" on="1"/>
        <pt x="0" y="255" on="1"/>
        <pt x="420" y="255" on="1"/>
        <pt x="420" y="20" on="1"/>
        <pt x="360" y="20" on="1"/>
        <pt x="360" y="200" on="1"/>
      </contour>
    </TTGlyph>
    <TTGlyph name="lslash" xMin="-10" yMin="0" xMax="190" yMax="600">
      <contour>
        <pt x="0" y="55" on="1"/>
        <pt x="60" y="55" on="1"/>
        <pt x="60" y="322" on="1"/>
        <pt x="-10" y="296" on="1"/>
        <pt x="-10" y="347" on="1"/>
        <pt x="60" y="373" on="1"/>
        <pt x="60" y="545" on="1"/>
        <pt x="0" y="545" on="1"/>
        <pt x="0" y="600" on="1"/>
        <pt x="120" y="600" on="1"/>
        <pt x="120" y="393" on="1"/>
        <pt x="190" y="420" on="1"/>
        <pt x="190" y="369" on="1"/>
        <pt x="120" y="342" on="1"/>
        <pt x="120" y="55" on="1"/>
        <pt x="180" y="55" on="1"/>
        <pt x="180" y="0" on="1"/>
        <pt x="0" y="0" on="1"/>
      </contour>
    </TTGlyph>
    <TTGlyph name="m" xMin="0" yMin="0" xMax="670" yMax="420">
      <contour>
        <pt x="0" y="55" on="1"/>
        <pt x="60" y="55" on="1"/>
        <pt x="60" y="365" on="1"/>
        <pt x="0" y="365" on="1"/>
        <pt x="0" y="420" on="1"/>
        <pt x="116" y="420" on="1"/>
        <pt x="120" y="363" on="1"/>
        <pt x="122" y="363" on="1"/>
        <pt x="175" y="420" on="0"/>
        <pt x="249" y="420" on="1"/>
        <pt x="328" y="420" on="0"/>
        <pt x="356" y="354" on="1"/>
        <pt x="359" y="354" on="1"/>
        <pt x="415" y="420" on="0"/>
        <pt x="494" y="420" on="1"/>
        <pt x="551" y="420" on="0"/>
        <pt x="610" y="356" on="0"/>
        <pt x="610" y="298" on="1"/>
        <pt x="610" y="55" on="1"/>
        <pt x="670" y="55" on="1"/>
        <pt x="670" y="0" on="1"/>
        <pt x="490" y="0" on="1"/>
        <pt x="490" y="55" on="1"/>
        <pt x="550" y="55" on="1"/>
        <pt x="550" y="282" on="1"/>
        <pt x="550" y="326" on="0"/>
        <pt x="512" y="365" on="0"/>
        <pt x="477" y="365" on="1"/>
        <pt x="414" y="365" on="0"/>
        <pt x="365" y="301" on="1"/>
        <pt x="365" y="55" on="1"/>
        <pt x="425" y="55" on="1"/>
        <pt x="425" y="0" on="1"/>
        <pt x="245" y="0" on="1"/>
        <pt x="245" y="55" on="1"/>
        <pt x="305" y="55" on="1"/>
        <pt x="305" y="282" on="1"/>
        <pt x="305" y="326" on="0"/>
        <pt x="267" y="365" on="0"/>
        <pt x="232" y="365" on="1"/>
        <pt x="169" y="365" on="0"/>
        <pt x="120" y="301" on="1"/>
        <pt x="120" y="55" on="1"/>
        <pt x="180" y="55" on="1"/>
        <pt x="180" y="0" on="1"/>
        <pt x="0" y="0" on="1"/>
      </contour>
    </TTGlyph>
    <TTGlyph name="macron" xMin="10" yMin="480" xMax="230" yMax="530">
      <component glyphName="uni0304" x="330" y="0" flags="0x4"/>
    </TTGlyph>
    <TTGlyph name="minus" xMin="0" yMin="200" xMax="420" yMax="255">
      <contour>
        <pt x="0" y="200" on="1"/>
        <pt x="0" y="255" on="1"/>
        <pt x="420" y="255" on="1"/>
        <pt x="420" y="200" on="1"/>
      </contour>
    </TTGlyph>
    <TTGlyph name="multiply" xMin="0" yMin="18" xMax="420" yMax="437">
      <contour>
        <pt x="378" y="437" on="1"/>
        <pt x="420" y="395" on="1"/>
        <pt x="252" y="227" on="1"/>
        <pt x="420" y="60" on="1"/>
        <pt x="378" y="18" on="1"/>
        <pt x="210" y="185" on="1"/>
        <pt x="42" y="18" on="1"/>
        <pt x="0" y="60" on="1"/>
        <pt x="168" y="227" on="1"/>
        <pt x="0" y="395" on="1"/>
        <pt x="42" y="437" on="1"/>
        <pt x="210" y="269" on="1"/>
      </contour>
    </TTGlyph>
    <TTGlyph name="n" xMin="0" yMin="0" xMax="430" yMax="420">
      <contour>
        <pt x="0" y="55" on="1"/>
        <pt x="60" y="55" on="1"/>
        <pt x="60" y="365" on="1"/>
        <pt x="0" y="365" on="1"/>
        <pt x="0" y="420" on="1"/>
        <pt x="117" y="420" on="1"/>
        <pt x="120" y="361" on="1"/>
        <pt x="121" y="361" on="1"/>
        <pt x="178" y="420" on="0"/>
        <pt x="253" y="420" on="1"/>
        <pt x="313" y="420" on="0"/>
        <pt x="370" y="352" on="0"/>
        <pt x="370" y="292" on="1"/>
        <pt x="370" y="55" on="1"/>
        <pt x="430" y="55" on="1"/>
        <pt x="430" y="0" on="1"/>
        <pt x="250" y="0" on="1"/>
        <pt x="250" y="55" on="1"/>
        <pt x="310" y="55" on="1"/>
        <pt x="310" y="285" on="1"/>
        <pt x="310" y="330" on="0"/>
        <pt x="270" y="365" on="0"/>
        <pt x="237" y="365" on="1"/>
        <pt x="170" y="365" on="0"/>
        <pt x="120" y="301" on="1"/>
        <pt x="120" y="55" on="1"/>
        <pt x="180" y="55" on="1"/>
        <pt x="180" y="0" on="1"/>
        <pt x="0" y="0" on="1"/>
      </contour>
    </TTGlyph>
    <TTGlyph name="nacute" xMin="0" yMin="0" xMax="430" yMax="600">
      <component glyphName="n" x="0" y="0" flags="0x204"/>
      <component glyphName="uni0301" x="420" y="0" flags="0x4"/>
    </TTGlyph>
    <TTGlyph name="ncaron" xMin="0" yMin="0" xMax="430" yMax="600">
      <component glyphName="n" x="0" y="0" flags="0x204"/>
      <component glyphName="uni030C" x="420" y="0" flags="0x4"/>
    </TTGlyph>
    <TTGlyph name="ncommaaccent" xMin="0" yMin="-180" xMax="430" yMax="420">
      <component glyphName="n" x="0" y="0" flags="0x204"/>
      <component glyphName="uni0326" x="420" y="0" flags="0x4"/>
    </TTGlyph>
    <TTGlyph name="nine" xMin="20" yMin="-120" xMax="400" yMax="480">
      <contour>
        <pt x="60" y="-60" on="1"/>
        <pt x="94" y="-65" on="0"/>
        <pt x="124" y="-65" on="1"/>
        <pt x="226" y="-65" on="0"/>
        <pt x="330" y="57" on="0"/>
        <pt x="335" y="180" on="1"/>
        <pt x="332" y="181" on="1"/>
        <pt x="274" y="120" on="0"/>
        <pt x="190" y="120" on="1"/>
        <pt x="116" y="120" on="0"/>
        <pt x="20" y="217" on="0"/>
        <pt x="20" y="292" on="1"/>
        <pt x="20" y="371" on="0"/>
        <pt x="119" y="480" on="0"/>
        <pt x="203" y="480" on="1"/>
        <pt x="296" y="480" on="0"/>
        <pt x="400" y="343" on="0"/>
        <pt x="400" y="213" on="1"/>
        <pt x="400" y="55" on="0"/>
        <pt x="253" y="-120" on="0"/>
        <pt x="124" y="-120" on="1"/>
        <pt x="94" y="-120" on="0"/>
        <pt x="60" y="-114" on="1"/>
      </contour>
      <contour>
        <pt x="334" y="237" on="1"/>
        <pt x="330" y="325" on="0"/>
        <pt x="263" y="425" on="0"/>
        <pt x="202" y="425" on="1"/>
        <pt x="148" y="425" on="0"/>
        <pt x="85" y="356" on="0"/>
        <pt x="85" y="302" on="1"/>
        <pt x="85" y="246" on="0"/>
        <pt x="145" y="175" on="0"/>
        <pt x="201" y="175" on="1"/>
        <pt x="277" y="175" on="0"/>
      </contour>
    </TTGlyph>
    <TTGlyph name="ntilde" xMin="0" yMin="0" xMax="430" yMax="577">
      <component glyphName="n" x="0" y="0" flags="0x204"/>
      <component glyphName="uni0303" x="420" y="0" flags="0x4"/>
    </TTGlyph>
    <TTGlyph name="numbersign" xMin="0" yMin="0" xMax="431" yMax="480">
      <contour>
        <pt x="431" y="350" on="1"/>
        <pt x="426" y="300" on="1"/>
        <pt x="335" y="300" on="1"/>
        <pt x="323" y="180" on="1"/>
        <pt x="413" y="180" on="1"/>
        <pt x="408" y="130" on="1"/>
        <pt x="318" y="130" on="1"/>
        <pt x="305" y="0" on="1"/>
        <pt x="251" y="0" on="1"/>
        <pt x="264" y="130" on="1"/>
        <pt x="144" y="130" on="1"/>
        <pt x="131" y="0" on="1"/>
        <pt x="77" y="0" on="1"/>
        <pt x="90" y="130" on="1"/>
        <pt x="0" y="130" on="1"/>
        <pt x="5" y="180" on="1"/>
        <pt x="95" y="180" on="1"/>
        <pt x="108" y="300" on="1"/>
        <pt x="18" y="300" on="1"/>
        <pt x="23" y="350" on="1"/>
        <pt x="113" y="350" on="1"/>
        <pt x="127" y="480" on="1"/>
        <pt x="180" y="480" on="1"/>
        <pt x="166" y="350" on="1"/>
        <pt x="286" y="350" on="1"/>
        <pt x="300" y="480" on="1"/>
        <pt x="354" y="480" on="1"/>
        <pt x="340" y="350" on="1"/>
      </contour>
      <contour>
        <pt x="149" y="180" on="1"/>
        <pt x="269" y="180" on="1"/>
        <pt x="281" y="300" on="1"/>
        <pt x="161" y="300" on="1"/>
      </contour>
    </TTGlyph>
    <TTGlyph name="o" xMin="20" yMin="0" xMax="400" yMax="420">
      <contour>
        <pt x="20" y="208" on="1"/>
        <pt x="20" y="306" on="0"/>
        <pt x="130" y="420" on="0"/>
        <pt x="215" y="420" on="1"/>
        <pt x="299" y="420" on="0"/>
        <pt x="400" y="313" on="0"/>
        <pt x="400" y="217" on="1"/>
        <pt x="400" y="117" on="0"/>
        <pt x="293" y="0" on="0"/>
        <pt x="207" y="0" on="1"/>
        <pt x="123" y="0" on="0"/>
        <pt x="20" y="112" on="0"/>
      </contour>
      <contour>
        <pt x="85" y="217" on="1"/>
        <pt x="85" y="137" on="0"/>
        <pt x="151" y="55" on="0"/>
        <pt x="213" y="55" on="1"/>
        <pt x="272" y="55" on="0"/>
        <pt x="335" y="133" on="0"/>
        <pt x="335" y="210" on="1"/>
        <pt x="335" y="288" on="0"/>
        <pt x="272" y="365" on="0"/>
        <pt x="208" y="365" on="1"/>
        <pt x="151" y="365" on="0"/>
        <pt x="85" y="294" on="0"/>
      </contour>
    </TTGlyph>
    <TTGlyph name="oacute" xMin="20" yMin="0" xMax="400" yMax="600">
      <component glyphName="o" x="0" y="0" flags="0x204"/>
      <component glyphName="uni0301" x="420" y="0" flags="0x4"/>
    </TTGlyph>
    <TTGlyph name="obreve" xMin="20" yMin="0" xMax="400" yMax="600">
      <component glyphName="o" x="0" y="0" flags="0x204"/>
      <component glyphName="uni0306" x="420" y="0" flags="0x4"/>
    </TTGlyph>
    <TTGlyph name="ocircumflex" xMin="20" yMin="0" xMax="400" yMax="600">
      <component glyphName="o" x="0" y="0" flags="0x204"/>
      <component glyphName="uni0302" x="420" y="0" flags="0x4"/>
    </TTGlyph>
    <TTGlyph name="odieresis" xMin="20" yMin="0" xMax="400" yMax="569">
      <component glyphName="o" x="0" y="0" flags="0x204"/>
      <component glyphName="uni0308" x="420" y="0" flags="0x4"/>
    </TTGlyph>
    <TTGlyph name="oe" xMin="20" yMin="0" xMax="660" yMax="420">
      <contour>
        <pt x="20" y="208" on="1"/>
        <pt x="20" y="257" on="0"/>
        <pt x="48" y="335" on="0"/>
        <pt x="98" y="390" on="0"/>
        <pt x="167" y="420" on="0"/>
        <pt x="209" y="420" on="1"/>
        <pt x="308" y="420" on="0"/>
        <pt x="357" y="341" on="1"/>
        <pt x="359" y="341" on="1"/>
        <pt x="410" y="420" on="0"/>
        <pt x="509" y="420" on="1"/>
        <pt x="581" y="420" on="0"/>
        <pt x="660" y="321" on="0"/>
        <pt x="660" y="233" on="1"/>
        <pt x="660" y="202" on="1"/>
        <pt x="388" y="202" on="1"/>
        <pt x="391" y="133" on="0"/>
        <pt x="455" y="55" on="0"/>
        <pt x="524" y="55" on="1"/>
        <pt x="588" y="55" on="0"/>
        <pt x="650" y="96" on="1"/>
        <pt x="650" y="37" on="1"/>
        <pt x="586" y="0" on="0"/>
        <pt x="515" y="0" on="1"/>
        <pt x="407" y="0" on="0"/>
        <pt x="355" y="83" on="1"/>
        <pt x="353" y="83" on="1"/>
        <pt x="299" y="0" on="0"/>
        <pt x="201" y="0" on="1"/>
        <pt x="118" y="0" on="0"/>
        <pt x="20" y="111" on="0"/>
      </contour>
      <contour>
        <pt x="85" y="217" on="1"/>
        <pt x="85" y="136" on="0"/>
        <pt x="147" y="55" on="0"/>
        <pt x="207" y="55" on="1"/>
        <pt x="263" y="55" on="0"/>
        <pt x="322" y="132" on="0"/>
        <pt x="322" y="210" on="1"/>
        <pt x="322" y="365" on="0"/>
        <pt x="201" y="365" on="1"/>
        <pt x="146" y="365" on="0"/>
        <pt x="85" y="295" on="0"/>
      </contour>
      <contour>
        <pt x="600" y="257" on="1"/>
        <pt x="595" y="365" on="0"/>
        <pt x="502" y="365" on="1"/>
        <pt x="451" y="365" on="0"/>
        <pt x="398" y="308" on="0"/>
        <pt x="391" y="257" on="1"/>
      </contour>
    </TTGlyph>
    <TTGlyph name="ogonek" xMin="0" yMin="-180" xMax="140" yMax="10">
      <component glyphName="uni0328" x="200" y="0" flags="0x4"/>
    </TTGlyph>
    <TTGlyph name="ograve" xMin="20" yMin="0" xMax="400" yMax="600">
      <component glyphName="o" x="0" y="0" flags="0x204"/>
      <component glyphName="uni0300" x="420" y="0" flags="0x4"/>
    </TTGlyph>
    <TTGlyph name="ohungarumlaut" xMin="20" yMin="0" xMax="400" yMax="600">
      <component glyphName="o" x="0" y="0" flags="0x204"/>
      <component glyphName="uni030B" x="420" y="0" flags="0x4"/>
    </TTGlyph>
    <TTGlyph name="omacron" xMin="20" yMin="0" xMax="400" yMax="530">
      <component glyphName="o" x="0" y="0" flags="0x204"/>
      <component glyphName="uni0304" x="420" y="0" flags="0x4"/>
    </TTGlyph>
    <TTGlyph name="one" xMin="0" yMin="0" xMax="120" yMax="480">
      <contour>
        <pt x="60" y="0" on="1"/>
        <pt x="60" y="425" on="1"/>
        <pt x="0" y="425" on="1"/>
        <pt x="0" y="480" on="1"/>
        <pt x="120" y="480" on="1"/>
        <pt x="120" y="0" on="1"/>
      </contour>
    </TTGlyph>
    <TTGlyph name="onehalf" xMin="0" yMin="0" xMax="640" yMax="540">
      <component glyphName="onesuperior" x="0" y="0" flags="0x4"/>
      <component glyphName="fraction" x="260" y="0" flags="0x4"/>
      <component glyphName="twosuperior" x="360" y="-179" flags="0x4"/>
    </TTGlyph>
    <TTGlyph name="onequarter" xMin="0" yMin="0" xMax="600" yMax="540">
      <component glyphName="onesuperior" x="0" y="0" flags="0x4"/>
      <component glyphName="fraction" x="270" y="0" flags="0x4"/>
      <component glyphName="uni2074" x="300" y="-179" flags="0x4"/>
    </TTGlyph>
    <TTGlyph name="onesuperior" xMin="0" yMin="180" xMax="120" yMax="540">
      <contour>
        <pt x="60" y="180" on="1"/>
        <pt x="60" y="490" on="1"/>
        <pt x="0" y="490" on="1"/>
        <pt x="0" y="540" on="1"/>
        <pt x="120" y="540" on="1"/>
        <pt x="120" y="180" on="1"/>
      </contour>
    </TTGlyph>
    <TTGlyph name="ordfeminine" xMin="-5" yMin="180" xMax="320" yMax="540">
      <contour>
        <pt x="20" y="510" on="1"/>
        <pt x="82" y="540" on="0"/>
        <pt x="143" y="540" on="1"/>
        <pt x="200" y="540" on="0"/>
        <pt x="260" y="481" on="0"/>
        <pt x="260" y="426" on="1"/>
        <pt x="260" y="230" on="1"/>
        <pt x="320" y="230" on="1"/>
        <pt x="320" y="180" on="1"/>
        <pt x="204" y="180" on="1"/>
        <pt x="200" y="219" on="1"/>
        <pt x="198" y="219" on="1"/>
        <pt x="156" y="180" on="0"/>
        <pt x="104" y="180" on="1"/>
        <pt x="55" y="180" on="0"/>
        <pt x="-5" y="232" on="0"/>
        <pt x="-5" y="279" on="1"/>
        <pt x="-5" y="392" on="0"/>
        <pt x="167" y="392" on="1"/>
        <pt x="200" y="392" on="1"/>
        <pt x="200" y="430" on="1"/>
        <pt x="200" y="461" on="0"/>
        <pt x="170" y="490" on="0"/>
        <pt x="132" y="490" on="1"/>
        <pt x="81" y="490" on="0"/>
        <pt x="20" y="458" on="1"/>
      </contour>
      <contour>
        <pt x="161" y="344" on="1"/>
        <pt x="60" y="344" on="0"/>
        <pt x="60" y="283" on="1"/>
        <pt x="60" y="256" on="0"/>
        <pt x="94" y="230" on="0"/>
        <pt x="119" y="230" on="1"/>
        <pt x="159" y="230" on="0"/>
        <pt x="200" y="261" on="1"/>
        <pt x="200" y="344" on="1"/>
      </contour>
    </TTGlyph>
    <TTGlyph name="ordmasculine" xMin="20" yMin="156" xMax="340" yMax="540">
      <contour>
        <pt x="20" y="346" on="1"/>
        <pt x="20" y="436" on="0"/>
        <pt x="114" y="540" on="0"/>
        <pt x="184" y="540" on="1"/>
        <pt x="254" y="540" on="0"/>
        <pt x="340" y="442" on="0"/>
        <pt x="340" y="354" on="1"/>
        <pt x="340" y="263" on="0"/>
        <pt x="250" y="156" on="0"/>
        <pt x="178" y="156" on="1"/>
        <pt x="107" y="156" on="0"/>
        <pt x="20" y="258" on="0"/>
      </contour>
      <contour>
        <pt x="85" y="354" on="1"/>
        <pt x="85" y="281" on="0"/>
        <pt x="136" y="206" on="0"/>
        <pt x="182" y="206" on="1"/>
        <pt x="227" y="206" on="0"/>
        <pt x="275" y="278" on="0"/>
        <pt x="275" y="348" on="1"/>
        <pt x="275" y="419" on="0"/>
        <pt x="227" y="490" on="0"/>
        <pt x="179" y="490" on="1"/>
        <pt x="136" y="490" on="0"/>
        <pt x="85" y="425" on="0"/>
      </contour>
    </TTGlyph>
    <TTGlyph name="oslash" xMin="20" yMin="-30" xMax="400" yMax="450">
      <contour>
        <pt x="20" y="208" on="1"/>
        <pt x="20" y="306" on="0"/>
        <pt x="130" y="420" on="0"/>
        <pt x="215" y="420" on="1"/>
        <pt x="271" y="420" on="0"/>
        <pt x="311" y="395" on="1"/>
        <pt x="349" y="450" on="1"/>
        <pt x="385" y="426" on="1"/>
        <pt x="346" y="369" on="1"/>
        <pt x="400" y="315" on="0"/>
        <pt x="400" y="217" on="1"/>
        <pt x="400" y="117" on="0"/>
        <pt x="293" y="0" on="0"/>
        <pt x="207" y="0" on="1"/>
        <pt x="151" y="0" on="0"/>
        <pt x="110" y="26" on="1"/>
        <pt x="71" y="-30" on="1"/>
        <pt x="35" y="-6" on="1"/>
        <pt x="75" y="53" on="1"/>
        <pt x="20" y="108" on="0"/>
      </contour>
      <contour>
        <pt x="85" y="217" on="1"/>
        <pt x="85" y="145" on="0"/>
        <pt x="111" y="105" on="1"/>
        <pt x="279" y="348" on="1"/>
        <pt x="250" y="365" on="0"/>
        <pt x="208" y="365" on="1"/>
        <pt x="151" y="365" on="0"/>
        <pt x="85" y="294" on="0"/>
      </contour>
      <contour>
        <pt x="213" y="55" on="1"/>
        <pt x="272" y="55" on="0"/>
        <pt x="335" y="133" on="0"/>
        <pt x="335" y="210" on="1"/>
        <pt x="335" y="279" on="0"/>
        <pt x="310" y="317" on="1"/>
        <pt x="142" y="73" on="1"/>
        <pt x="171" y="55" on="0"/>
      </contour>
    </TTGlyph>
    <TTGlyph name="otilde" xMin="20" yMin="0" xMax="400" yMax="577">
      <component glyphName="o" x="0" y="0" flags="0x204"/>
      <component glyphName="uni0303" x="420" y="0" flags="0x4"/>
    </TTGlyph>
    <TTGlyph name="p" xMin="0" yMin="-180" xMax="400" yMax="420">
      <contour>
        <pt x="180" y="-125" on="1"/>
        <pt x="180" y="-180" on="1"/>
        <pt x="0" y="-180" on="1"/>
        <pt x="0" y="-125" on="1"/>
        <pt x="60" y="-125" on="1"/>
        <pt x="60" y="365" on="1"/>
        <pt x="0" y="365" on="1"/>
        <pt x="0" y="420" on="1"/>
        <pt x="116" y="420" on="1"/>
        <pt x="120" y="372" on="1"/>
        <pt x="124" y="372" on="1"/>
        <pt x="176" y="420" on="0"/>
        <pt x="238" y="420" on="1"/>
        <pt x="310" y="420" on="0"/>
        <pt x="400" y="307" on="0"/>
        <pt x="400" y="218" on="1"/>
        <pt x="400" y="121" on="0"/>
        <pt x="295" y="0" on="0"/>
        <pt x="213" y="0" on="1"/>
        <pt x="166" y="0" on="0"/>
        <pt x="122" y="19" on="1"/>
        <pt x="120" y="18" on="1"/>
        <pt x="120" y="-125" on="1"/>
      </contour>
      <contour>
        <pt x="120" y="72" on="1"/>
        <pt x="157" y="55" on="0"/>
        <pt x="205" y="55" on="1"/>
        <pt x="267" y="55" on="0"/>
        <pt x="335" y="128" on="0"/>
        <pt x="335" y="208" on="1"/>
        <pt x="335" y="283" on="0"/>
        <pt x="274" y="365" on="0"/>
        <pt x="220" y="365" on="1"/>
        <pt x="167" y="365" on="0"/>
        <pt x="120" y="314" on="1"/>
      </contour>
    </TTGlyph>
    <TTGlyph name="paragraph" xMin="0" yMin="-120" xMax="420" yMax="540">
      <contour>
        <pt x="180" y="-120" on="1"/>
        <pt x="180" y="240" on="1"/>
        <pt x="93" y="242" on="0"/>
        <pt x="0" y="320" on="0"/>
        <pt x="0" y="394" on="1"/>
        <pt x="0" y="462" on="0"/>
        <pt x="90" y="540" on="0"/>
        <pt x="184" y="540" on="1"/>
        <pt x="420" y="540" on="1"/>
        <pt x="420" y="485" on="1"/>
        <pt x="360" y="485" on="1"/>
        <pt x="360" y="-120" on="1"/>
        <pt x="300" y="-120" on="1"/>
        <pt x="300" y="485" on="1"/>
        <pt x="240" y="485" on="1"/>
        <pt x="240" y="-120" on="1"/>
      </contour>
    </TTGlyph>
    <TTGlyph name="parenleft" xMin="55" yMin="-180" xMax="240" yMax="600">
      <contour>
        <pt x="120" y="212" on="1"/>
        <pt x="120" y="-16" on="0"/>
        <pt x="240" y="-180" on="1"/>
        <pt x="180" y="-180" on="1"/>
        <pt x="55" y="-2" on="0"/>
        <pt x="55" y="208" on="1"/>
        <pt x="55" y="419" on="0"/>
        <pt x="180" y="600" on="1"/>
        <pt x="240" y="600" on="1"/>
        <pt x="120" y="436" on="0"/>
      </contour>
    </TTGlyph>
    <TTGlyph name="parenleft.case" xMin="55" yMin="-120" xMax="240" yMax="660">
      <component glyphName="parenleft" x="0" y="60" flags="0x204"/>
    </TTGlyph>
    <TTGlyph name="parenright" xMin="0" yMin="-180" xMax="185" yMax="600">
      <contour>
        <pt x="120" y="212" on="1"/>
        <pt x="120" y="436" on="0"/>
        <pt x="0" y="600" on="1"/>
        <pt x="60" y="600" on="1"/>
        <pt x="185" y="419" on="0"/>
        <pt x="185" y="208" on="1"/>
        <pt x="185" y="-2" on="0"/>
        <pt x="60" y="-180" on="1"/>
        <pt x="0" y="-180" on="1"/>
        <pt x="120" y="-16" on="0"/>
      </contour>
    </TTGlyph>
    <TTGlyph name="parenright.case" xMin="0" yMin="-120" xMax="185" yMax="660">
      <component glyphName="parenright" x="0" y="60" flags="0x204"/>
    </TTGlyph>
    <TTGlyph name="percent" xMin="20" yMin="0" xMax="820" yMax="540">
      <component glyphName="uni2070" x="0" y="0" flags="0x4"/>
      <component glyphName="fraction" x="420" y="0" flags="0x4"/>
      <component glyphName="uni2070" x="480" y="-179" flags="0x4"/>
    </TTGlyph>
    <TTGlyph name="period" xMin="40" yMin="0" xMax="141" yMax="101">
      <contour>
        <pt x="40" y="49" on="1"/>
        <pt x="40" y="73" on="0"/>
        <pt x="67" y="101" on="0"/>
        <pt x="91" y="101" on="1"/>
        <pt x="114" y="101" on="0"/>
        <pt x="141" y="74" on="0"/>
        <pt x="141" y="51" on="1"/>
        <pt x="141" y="27" on="0"/>
        <pt x="113" y="0" on="0"/>
        <pt x="89" y="0" on="1"/>
        <pt x="66" y="0" on="0"/>
        <pt x="40" y="27" on="0"/>
      </contour>
    </TTGlyph>
    <TTGlyph name="periodcentered" xMin="40" yMin="160" xMax="141" yMax="261">
      <component glyphName="period" x="0" y="160" flags="0x204"/>
    </TTGlyph>
    <TTGlyph name="perthousand" xMin="20" yMin="0" xMax="1180" yMax="540">
      <component glyphName="uni2070" x="0" y="0" flags="0x4"/>
      <component glyphName="fraction" x="420" y="0" flags="0x4"/>
      <component glyphName="uni2070" x="480" y="-179" flags="0x4"/>
      <component glyphName="uni2070" x="840" y="-179" flags="0x4"/>
    </TTGlyph>
    <TTGlyph name="plus" xMin="0" yMin="20" xMax="420" yMax="435">
      <contour>
        <pt x="0" y="200" on="1"/>
        <pt x="0" y="255" on="1"/>
        <pt x="180" y="255" on="1"/>
        <pt x="180" y="435" on="1"/>
        <pt x="240" y="435" on="1"/>
        <pt x="240" y="255" on="1"/>
        <pt x="420" y="255" on="1"/>
        <pt x="420" y="200" on="1"/>
        <pt x="240" y="200" on="1"/>
        <pt x="240" y="20" on="1"/>
        <pt x="180" y="20" on="1"/>
        <pt x="180" y="200" on="1"/>
      </contour>
    </TTGlyph>
    <TTGlyph name="plusminus" xMin="0" yMin="30" xMax="420" yMax="435">
      <contour>
        <pt x="0" y="260" on="1"/>
        <pt x="0" y="315" on="1"/>
        <pt x="180" y="315" on="1"/>
        <pt x="180" y="435" on="1"/>
        <pt x="240" y="435" on="1"/>
        <pt x="240" y="315" on="1"/>
        <pt x="420" y="315" on="1"/>
        <pt x="420" y="260" on="1"/>
        <pt x="240" y="260" on="1"/>
        <pt x="240" y="140" on="1"/>
        <pt x="180" y="140" on="1"/>
        <pt x="180" y="260" on="1"/>
      </contour>
      <contour>
        <pt x="0" y="30" on="1"/>
        <pt x="0" y="85" on="1"/>
        <pt x="420" y="85" on="1"/>
        <pt x="420" y="30" on="1"/>
      </contour>
    </TTGlyph>
    <TTGlyph name="q" xMin="20" yMin="-180" xMax="420" yMax="420">
      <contour>
        <pt x="420" y="-125" on="1"/>
        <pt x="420" y="-180" on="1"/>
        <pt x="240" y="-180" on="1"/>
        <pt x="240" y="-125" on="1"/>
        <pt x="300" y="-125" on="1"/>
        <pt x="300" y="46" on="1"/>
        <pt x="298" y="46" on="1"/>
        <pt x="250" y="0" on="0"/>
        <pt x="188" y="0" on="1"/>
        <pt x="115" y="0" on="0"/>
        <pt x="20" y="114" on="0"/>
        <pt x="20" y="201" on="1"/>
        <pt x="20" y="300" on="0"/>
        <pt x="124" y="420" on="0"/>
        <pt x="220" y="420" on="1"/>
        <pt x="282" y="420" on="0"/>
        <pt x="360" y="397" on="1"/>
        <pt x="360" y="-125" on="1"/>
      </contour>
      <contour>
        <pt x="300" y="355" on="1"/>
        <pt x="259" y="365" on="0"/>
        <pt x="215" y="365" on="1"/>
        <pt x="149" y="365" on="0"/>
        <pt x="85" y="288" on="0"/>
        <pt x="85" y="210" on="1"/>
        <pt x="85" y="133" on="0"/>
        <pt x="147" y="55" on="0"/>
        <pt x="203" y="55" on="1"/>
        <pt x="259" y="55" on="0"/>
        <pt x="300" y="98" on="1"/>
      </contour>
    </TTGlyph>
    <TTGlyph name="question" xMin="0" yMin="0" xMax="245" yMax="540">
      <contour>
        <pt x="65" y="170" on="1"/>
        <pt x="55" y="192" on="0"/>
        <pt x="55" y="217" on="1"/>
        <pt x="55" y="246" on="0"/>
        <pt x="90" y="292" on="0"/>
        <pt x="117" y="314" on="1"/>
        <pt x="147" y="338" on="0"/>
        <pt x="180" y="382" on="0"/>
        <pt x="180" y="411" on="1"/>
        <pt x="180" y="446" on="0"/>
        <pt x="133" y="485" on="0"/>
        <pt x="89" y="485" on="1"/>
        <pt x="45" y="485" on="0"/>
        <pt x="0" y="467" on="1"/>
        <pt x="0" y="521" on="1"/>
        <pt x="50" y="540" on="0"/>
        <pt x="98" y="540" on="1"/>
        <pt x="163" y="540" on="0"/>
        <pt x="245" y="475" on="0"/>
        <pt x="245" y="417" on="1"/>
        <pt x="245" y="376" on="0"/>
        <pt x="209" y="319" on="0"/>
        <pt x="174" y="293" on="1"/>
        <pt x="145" y="271" on="0"/>
        <pt x="110" y="226" on="0"/>
        <pt x="110" y="199" on="1"/>
        <pt x="110" y="187" on="0"/>
        <pt x="115" y="170" on="1"/>
      </contour>
      <contour>
        <pt x="40" y="49" on="1"/>
        <pt x="40" y="73" on="0"/>
        <pt x="67" y="101" on="0"/>
        <pt x="91" y="101" on="1"/>
        <pt x="114" y="101" on="0"/>
        <pt x="141" y="74" on="0"/>
        <pt x="141" y="51" on="1"/>
        <pt x="141" y="27" on="0"/>
        <pt x="113" y="0" on="0"/>
        <pt x="89" y="0" on="1"/>
        <pt x="66" y="0" on="0"/>
        <pt x="40" y="27" on="0"/>
      </contour>
    </TTGlyph>
    <TTGlyph name="questiondown" xMin="-5" yMin="-120" xMax="240" yMax="420">
      <contour>
        <pt x="175" y="250" on="1"/>
        <pt x="185" y="228" on="0"/>
        <pt x="185" y="203" on="1"/>
        <pt x="185" y="174" on="0"/>
        <pt x="150" y="128" on="0"/>
        <pt x="123" y="106" on="1"/>
        <pt x="93" y="82" on="0"/>
        <pt x="60" y="38" on="0"/>
        <pt x="60" y="9" on="1"/>
        <pt x="60" y="-26" on="0"/>
        <pt x="107" y="-65" on="0"/>
        <pt x="151" y="-65" on="1"/>
        <pt x="195" y="-65" on="0"/>
        <pt x="240" y="-47" on="1"/>
        <pt x="240" y="-101" on="1"/>
        <pt x="190" y="-120" on="0"/>
        <pt x="142" y="-120" on="1"/>
        <pt x="77" y="-120" on="0"/>
        <pt x="-5" y="-55" on="0"/>
        <pt x="-5" y="3" on="1"/>
        <pt x="-5" y="44" on="0"/>
        <pt x="31" y="101" on="0"/>
        <pt x="66" y="127" on="1"/>
        <pt x="95" y="149" on="0"/>
        <pt x="130" y="194" on="0"/>
        <pt x="130" y="221" on="1"/>
        <pt x="130" y="233" on="0"/>
        <pt x="125" y="250" on="1"/>
      </contour>
      <contour>
        <pt x="200" y="371" on="1"/>
        <pt x="200" y="347" on="0"/>
        <pt x="173" y="319" on="0"/>
        <pt x="149" y="319" on="1"/>
        <pt x="126" y="319" on="0"/>
        <pt x="99" y="346" on="0"/>
        <pt x="99" y="369" on="1"/>
        <pt x="99" y="393" on="0"/>
        <pt x="127" y="420" on="0"/>
        <pt x="151" y="420" on="1"/>
        <pt x="174" y="420" on="0"/>
        <pt x="200" y="393" on="0"/>
      </contour>
    </TTGlyph>
    <TTGlyph name="questiondown.case" xMin="-5" yMin="0" xMax="240" yMax="540">
      <component glyphName="questiondown" x="0" y="120" flags="0x204"/>
    </TTGlyph>
    <TTGlyph name="quotedbl" xMin="24" yMin="370" xMax="216" yMax="550">
      <component glyphName="quotesingle" x="0" y="0" flags="0x4"/>
      <component glyphName="quotesingle" x="120" y="0" flags="0x4"/>
    </TTGlyph>
    <TTGlyph name="quotedblbase" xMin="30" yMin="-80" xMax="261" yMax="100">
      <component glyphName="quotesinglbase" x="0" y="0" flags="0x4"/>
      <component glyphName="quotesinglbase" x="120" y="0" flags="0x4"/>
    </TTGlyph>
    <TTGlyph name="quotedblleft" xMin="0" yMin="370" xMax="231" yMax="550">
      <component glyphName="quoteleft" x="0" y="0" flags="0x4"/>
      <component glyphName="quoteleft" x="120" y="0" flags="0x4"/>
    </TTGlyph>
    <TTGlyph name="quotedblright" xMin="0" yMin="370" xMax="231" yMax="550">
      <component glyphName="quoteright" x="0" y="0" flags="0x4"/>
      <component glyphName="quoteright" x="120" y="0" flags="0x4"/>
    </TTGlyph>
    <TTGlyph name="quoteleft" xMin="0" yMin="370" xMax="111" yMax="550">
      <contour>
        <pt x="111" y="550" on="1"/>
        <pt x="71" y="370" on="1"/>
        <pt x="0" y="370" on="1"/>
        <pt x="65" y="550" on="1"/>
      </contour>
    </TTGlyph>
    <TTGlyph name="quoteright" xMin="0" yMin="370" xMax="111" yMax="550">
      <contour>
        <pt x="0" y="370" on="1"/>
        <pt x="40" y="550" on="1"/>
        <pt x="111" y="550" on="1"/>
        <pt x="46" y="370" on="1"/>
      </contour>
    </TTGlyph>
    <TTGlyph name="quotesinglbase" xMin="30" yMin="-80" xMax="141" yMax="100">
      <contour>
        <pt x="30" y="-80" on="1"/>
        <pt x="70" y="100" on="1"/>
        <pt x="141" y="100" on="1"/>
        <pt x="76" y="-80" on="1"/>
      </contour>
    </TTGlyph>
    <TTGlyph name="quotesingle" xMin="24" yMin="370" xMax="96" yMax="550">
      <contour>
        <pt x="24" y="550" on="1"/>
        <pt x="96" y="550" on="1"/>
        <pt x="80" y="370" on="1"/>
        <pt x="40" y="370" on="1"/>
      </contour>
    </TTGlyph>
    <TTGlyph name="r" xMin="0" yMin="0" xMax="260" yMax="420">
      <contour>
        <pt x="260" y="351" on="1"/>
        <pt x="239" y="355" on="0"/>
        <pt x="219" y="355" on="1"/>
        <pt x="151" y="355" on="0"/>
        <pt x="120" y="292" on="1"/>
        <pt x="120" y="55" on="1"/>
        <pt x="180" y="55" on="1"/>
        <pt x="180" y="0" on="1"/>
        <pt x="0" y="0" on="1"/>
        <pt x="0" y="55" on="1"/>
        <pt x="60" y="55" on="1"/>
        <pt x="60" y="365" on="1"/>
        <pt x="0" y="365" on="1"/>
        <pt x="0" y="420" on="1"/>
        <pt x="116" y="420" on="1"/>
        <pt x="120" y="359" on="1"/>
        <pt x="122" y="359" on="1"/>
        <pt x="161" y="420" on="0"/>
        <pt x="229" y="420" on="1"/>
        <pt x="244" y="420" on="0"/>
        <pt x="260" y="417" on="1"/>
      </contour>
    </TTGlyph>
    <TTGlyph name="racute" xMin="0" yMin="0" xMax="260" yMax="600">
      <component glyphName="r" x="0" y="0" flags="0x204"/>
      <component glyphName="uni0301" x="330" y="0" flags="0x4"/>
    </TTGlyph>
    <TTGlyph name="rcaron" xMin="0" yMin="0" xMax="260" yMax="600">
      <component glyphName="r" x="0" y="0" flags="0x204"/>
      <component glyphName="uni030C" x="330" y="0" flags="0x4"/>
    </TTGlyph>
</ttFont>
